<?xml version="1.0" standalone="no"?>
<!DOCTYPE svg PUBLIC "-//W3C//DTD SVG 1.1//EN" "http://www.w3.org/Graphics/SVG/1.1/DTD/svg11.dtd" >
<svg>
<metadata>
Created by FontForge 20120731 at Wed Sep 11 21:48:16 2019
 By www
Copyright (c) 2018 by Kvant Type Foundry. All rights reserved.
</metadata>
<defs>
<font id="Menco-Bold" horiz-adv-x="600" >
  <font-face 
    font-family="Menco"
    font-weight="700"
    font-stretch="normal"
    units-per-em="1000"
    panose-1="1 0 0 0 0 0 0 0 0 0"
    ascent="800"
    descent="-200"
    x-height="474"
    cap-height="667"
    bbox="-90 -275 958 1065"
    underline-thickness="50"
    underline-position="-75"
    unicode-range="U+0020-FB04"
  />
<missing-glyph horiz-adv-x="635" 
d="M190 118h255v422h-255v-422zM506 0h-377q-28 0 -44.5 16.5t-16.5 44.5v536q0 28 16.5 44.5t44.5 16.5h377q28 0 44.5 -16.5t16.5 -44.5v-536q0 -28 -16.5 -44.5t-44.5 -16.5z" />
    <glyph glyph-name="f_f" unicode="ff" horiz-adv-x="691" 
d="M540 348v-291q0 -29 -17 -47.5t-42 -18.5t-42 18.5t-17 47.5v291h-192v-291q0 -29 -17 -47.5t-42 -18.5t-42 18.5t-17 47.5v291h-33q-29 0 -46.5 16t-17.5 41t17.5 41t46.5 16h33v35q0 83 41 128t118 45q90 0 90 -60q0 -55 -71 -55q-32 0 -46 -15.5t-14 -53.5v-24h192v35
q0 83 41 128t118 45q90 0 90 -60q0 -55 -71 -55q-32 0 -46 -15.5t-14 -53.5v-24h67q29 0 46.5 -16t17.5 -41t-17.5 -41t-46.5 -16h-67z" />
    <glyph glyph-name="fi" unicode="fi" horiz-adv-x="603" 
d="M230 348v-291q0 -29 -17 -47.5t-42 -18.5t-42 18.5t-17 47.5v291h-33q-29 0 -46.5 16t-17.5 41t17.5 41t46.5 16h33v35q0 83 41 128t118 45q90 0 90 -60q0 -55 -71 -55q-32 0 -46 -15.5t-14 -53.5v-24h67q29 0 46.5 -16t17.5 -41t-17.5 -41t-46.5 -16h-67zM481 548
q-29 0 -49 20t-20 49t20 49t49 20t49 -20t20 -49t-20 -49t-49 -20zM481 -9q-25 0 -42 18t-17 48v360q0 30 17 48t42 18t42 -18t17 -48v-360q0 -30 -17 -48t-42 -18z" />
    <glyph glyph-name="fl" unicode="fl" horiz-adv-x="620" 
d="M230 348v-291q0 -29 -17 -47.5t-42 -18.5t-42 18.5t-17 47.5v291h-33q-29 0 -46.5 16t-17.5 41t17.5 41t46.5 16h33v35q0 83 41 128t118 45q90 0 90 -60q0 -55 -71 -55q-32 0 -46 -15.5t-14 -53.5v-24h67q29 0 46.5 -16t17.5 -41t-17.5 -41t-46.5 -16h-67zM539 -9
q-54 0 -85.5 47.5t-31.5 131.5v431q0 30 17 48t42 18t42 -18t17 -48v-444q0 -46 29 -69q26 -22 26 -50q0 -47 -56 -47z" />
    <glyph glyph-name="f_f_i" unicode="ffi" horiz-adv-x="913" 
d="M540 348v-291q0 -29 -17 -47.5t-42 -18.5t-42 18.5t-17 47.5v291h-192v-291q0 -29 -17 -47.5t-42 -18.5t-42 18.5t-17 47.5v291h-33q-29 0 -46.5 16t-17.5 41t17.5 41t46.5 16h33v35q0 83 41 128t118 45q90 0 90 -60q0 -55 -71 -55q-32 0 -46 -15.5t-14 -53.5v-24h192v35
q0 83 41 128t118 45q90 0 90 -60q0 -55 -71 -55q-32 0 -46 -15.5t-14 -53.5v-24h67q29 0 46.5 -16t17.5 -41t-17.5 -41t-46.5 -16h-67zM791 548q-29 0 -49 20t-20 49t20 49t49 20t49 -20t20 -49t-20 -49t-49 -20zM791 -9q-25 0 -42 18t-17 48v360q0 30 17 48t42 18t42 -18
t17 -48v-360q0 -30 -17 -48t-42 -18z" />
    <glyph glyph-name="f_f_l" unicode="ffl" horiz-adv-x="930" 
d="M540 348v-291q0 -29 -17 -47.5t-42 -18.5t-42 18.5t-17 47.5v291h-192v-291q0 -29 -17 -47.5t-42 -18.5t-42 18.5t-17 47.5v291h-33q-29 0 -46.5 16t-17.5 41t17.5 41t46.5 16h33v35q0 83 41 128t118 45q90 0 90 -60q0 -55 -71 -55q-32 0 -46 -15.5t-14 -53.5v-24h192v35
q0 83 41 128t118 45q90 0 90 -60q0 -55 -71 -55q-32 0 -46 -15.5t-14 -53.5v-24h67q29 0 46.5 -16t17.5 -41t-17.5 -41t-46.5 -16h-67zM849 -9q-54 0 -85.5 47.5t-31.5 131.5v431q0 30 17 48t42 18t42 -18t17 -48v-444q0 -46 29 -69q26 -22 26 -50q0 -47 -56 -47z" />
    <glyph glyph-name=".notdef" horiz-adv-x="635" 
d="M190 118h255v422h-255v-422zM506 0h-377q-28 0 -44.5 16.5t-16.5 44.5v536q0 28 16.5 44.5t44.5 16.5h377q28 0 44.5 -16.5t16.5 -44.5v-536q0 -28 -16.5 -44.5t-44.5 -16.5z" />
    <glyph glyph-name=".null" horiz-adv-x="0" 
 />
    <glyph glyph-name="nonmarkingreturn" horiz-adv-x="333" 
 />
    <glyph glyph-name="space" unicode=" " horiz-adv-x="180" 
 />
    <glyph glyph-name="exclam" unicode="!" horiz-adv-x="289" 
d="M148 194q-25 0 -42 18t-17 48v341q0 30 17 48t42 18t42 -18t17 -48v-341q0 -30 -17 -48t-42 -18zM148 -9q-30 0 -51 21.5t-21 51.5t21 51.5t51 21.5t51 -21.5t21 -51.5t-21 -51.5t-51 -21.5z" />
    <glyph glyph-name="quotedbl" unicode="&#x22;" horiz-adv-x="428" 
d="M114 342q-25 0 -42 18.5t-17 47.5v193q0 30 17 48t42 18t42 -18t17 -48v-193q0 -29 -17 -47.5t-42 -18.5zM314 342q-25 0 -42 18.5t-17 47.5v193q0 30 17 48t42 18t42 -18t17 -48v-193q0 -29 -17 -47.5t-42 -18.5z" />
    <glyph glyph-name="numbersign" unicode="#" horiz-adv-x="727" 
d="M283 257h145l17 144h-145zM603 143h-72l-10 -86q-4 -31 -21.5 -48.5t-44.5 -17.5q-24 0 -38 14.5t-14 43.5q0 5 4 41l6 53h-145l-10 -86q-4 -31 -21.5 -48.5t-44.5 -17.5q-24 0 -38 14.5t-14 43.5q0 5 4 41l7 53h-64q-65 0 -65 56q0 28 19.5 43t51.5 15h72l17 144h-64
q-65 0 -65 56q0 28 19.5 43t51.5 15h72l11 86q4 31 21.5 48.5t44.5 17.5q24 0 38 -14.5t14 -43.5q0 -5 -4 -41l-7 -53h145l11 86q4 31 21.5 48.5t44.5 17.5q24 0 38 -14.5t14 -43.5q0 -5 -4 -41l-7 -53h63q65 0 65 -56q0 -28 -19.5 -43t-51.5 -15h-71l-18 -144h64
q65 0 65 -56q0 -28 -19.5 -43t-51.5 -15z" />
    <glyph glyph-name="dollar" unicode="$" horiz-adv-x="562" 
d="M344 -7v-61q0 -30 -17 -48t-42 -18t-42 18t-17 48v60q-26 3 -54 12t-56.5 23t-47 37.5t-18.5 51.5q0 25 15 40.5t41 15.5q28 0 53 -23q17 -15 27.5 -22t37 -16t60.5 -9q104 0 104 72q0 23 -9 39t-31 27.5t-39.5 17t-54.5 15.5q-39 10 -69 24t-59.5 37t-46 59.5
t-16.5 84.5q0 77 41.5 125.5t121.5 61.5v60q0 30 17 48t42 18t42 -18t17 -48v-59q52 -8 97 -34.5t45 -71.5q0 -24 -14.5 -38t-39.5 -14q-22 0 -45 16q-48 32 -102 32q-98 0 -98 -73q0 -42 29 -61.5t99 -39.5q33 -9 56.5 -18t52 -25.5t46 -36.5t30 -51.5t12.5 -70.5
q0 -75 -43 -125t-125 -62z" />
    <glyph glyph-name="percent" unicode="%" horiz-adv-x="891" 
d="M688 71q38 0 60 36t22 90t-22 90.5t-60 36.5q-37 0 -59 -36.5t-22 -90.5t22 -90t59 -36zM202 334q38 0 60 36t22 90t-22 90.5t-60 36.5q-37 0 -59 -36.5t-22 -90.5t22 -90t59 -36zM202 256q-74 0 -118 59t-44 145q0 87 44 146t118 59q75 0 119 -59t44 -146t-44 -145.5
t-119 -58.5zM303 -9q-34 0 -34 36q0 13 7 29l270 581q14 30 41 30q34 0 34 -36q0 -13 -7 -29l-270 -581q-14 -30 -41 -30zM688 -7q-74 0 -118 59t-44 145q0 87 44 146t118 59q75 0 119 -59t44 -146t-44 -145.5t-119 -58.5z" />
    <glyph glyph-name="ampersand" unicode="&#x26;" horiz-adv-x="635" 
d="M380 217v69h-100q-50 0 -78.5 -25.5t-28.5 -64.5q0 -40 28.5 -65t80.5 -25q98 0 98 111zM538 286h-37v-75q0 -107 -57 -165t-163 -58q-109 0 -170 57t-61 144q0 53 24 93.5t70 61.5q-75 45 -75 141q0 79 57 132t152 53q113 0 167 -64q23 -28 23 -57q0 -25 -14.5 -40
t-40.5 -15q-27 0 -51 22q-1 1 -8 7t-9 7.5t-9 6.5t-11.5 6.5l-12 4t-15.5 3.5t-17 1q-41 0 -64.5 -21t-23.5 -54t23.5 -54t64.5 -21h258q29 0 47 -16.5t18 -41.5t-18 -41.5t-47 -16.5z" />
    <glyph glyph-name="quotesingle" unicode="'" horiz-adv-x="228" 
d="M114 342q-25 0 -42 18.5t-17 47.5v193q0 30 17 48t42 18t42 -18t17 -48v-193q0 -29 -17 -47.5t-42 -18.5z" />
    <glyph glyph-name="parenleft" unicode="(" horiz-adv-x="371" 
d="M278 -135q-23 0 -39 12t-36 35q-138 158 -138 375t138 375q13 15 21 23t23 16t31 8q23 0 38 -15t15 -39q0 -30 -35 -65q-113 -112 -113 -303t113 -303q35 -35 35 -65q0 -24 -15 -39t-38 -15z" />
    <glyph glyph-name="parenright" unicode=")" horiz-adv-x="371" 
d="M93 -135q-23 0 -38 15t-15 39q0 30 35 65q113 112 113 303t-113 303q-35 35 -35 65q0 24 15 39t38 15t39 -12t36 -35q138 -158 138 -375t-138 -375q-13 -15 -21 -23t-23 -16t-31 -8z" />
    <glyph glyph-name="asterisk" unicode="*" horiz-adv-x="496" 
d="M248 370l-13 -23q-41 -71 -81 -71q-22 0 -36.5 12.5t-14.5 36.5q0 29 46 84l17 21l-26 6q-46 11 -70.5 26t-24.5 46q0 23 14.5 36.5t37.5 13.5t75 -21l25 -10l-2 27q-2 24 -2 40q0 73 55 73t55 -73q0 -16 -2 -40l-2 -27l25 10q52 21 75 21t37.5 -13.5t14.5 -36.5
q0 -31 -24.5 -46t-70.5 -26l-26 -6l17 -21q46 -55 46 -84q0 -24 -14.5 -36.5t-36.5 -12.5q-40 0 -81 71z" />
    <glyph glyph-name="plus" unicode="+" 
d="M480 228h-120v-123q0 -30 -17.5 -48.5t-42.5 -18.5t-42.5 18.5t-17.5 48.5v123h-120q-30 0 -48 17t-18 42t18 42t48 17h120v123q0 30 17.5 48.5t42.5 18.5t42.5 -18.5t17.5 -48.5v-123h120q30 0 48 -17t18 -42t-18 -42t-48 -17z" />
    <glyph glyph-name="comma" unicode="," horiz-adv-x="269" 
d="M104 -163q-24 0 -39 15.5t-15 42.5q0 19 14 68l35 123q10 33 24.5 51t41.5 18q24 0 39 -15.5t15 -42.5q0 -19 -14 -68l-35 -123q-10 -33 -24.5 -51t-41.5 -18z" />
    <glyph glyph-name="hyphen" unicode="-" horiz-adv-x="475" 
d="M352 181h-229q-30 0 -48 17t-18 42t18 42t48 17h229q30 0 48 -17t18 -42t-18 -42t-48 -17z" />
    <glyph glyph-name="period" unicode="." horiz-adv-x="272" 
d="M136 -9q-30 0 -51.5 21.5t-21.5 51.5t21.5 51.5t51.5 21.5t51.5 -21.5t21.5 -51.5t-21.5 -51.5t-51.5 -21.5z" />
    <glyph glyph-name="slash" unicode="/" horiz-adv-x="500" 
d="M114 -135q-24 0 -38 15.5t-14 40.5q0 15 10 45l252 690q20 53 62 53q24 0 38 -15.5t14 -40.5q0 -15 -10 -45l-252 -690q-20 -53 -62 -53z" />
    <glyph glyph-name="zero" unicode="0" horiz-adv-x="620" 
d="M310 106q66 0 105.5 63.5t39.5 159.5t-39.5 159.5t-105.5 63.5t-105.5 -63.5t-39.5 -159.5t39.5 -159.5t105.5 -63.5zM310 -12q-122 0 -194.5 98.5t-72.5 242.5t72.5 242.5t194.5 98.5t194.5 -98.5t72.5 -242.5t-72.5 -242.5t-194.5 -98.5z" />
    <glyph glyph-name="one" unicode="1" horiz-adv-x="374" 
d="M178 490l-40 -33q-34 -28 -63 -28q-25 0 -41 15t-16 41q0 34 35 60l137 103q27 19 50 19q25 0 40 -16t15 -45v-548q0 -30 -17.5 -48.5t-42.5 -18.5t-42.5 18.5t-17.5 48.5v291q0 9 3 141z" />
    <glyph glyph-name="two" unicode="2" horiz-adv-x="526" 
d="M167 118h253q30 0 48 -17t18 -42t-18 -42t-48 -17h-314q-28 0 -44.5 16.5t-16.5 44.5v36q0 38 11.5 71.5t26.5 55.5t43.5 46.5t47 36.5t52.5 33t49.5 31.5t37 29t30.5 37t9 40.5q0 33 -22.5 53.5t-68.5 20.5q-29 0 -51 -9.5t-32 -19.5t-23 -28q-21 -28 -53 -28
q-24 0 -38.5 14t-14.5 40q0 23 11 45q22 45 79.5 74.5t129.5 29.5q98 0 152.5 -55t54.5 -138q0 -74 -42.5 -124.5t-115.5 -96.5q-11 -7 -32 -19.5t-32 -19t-27 -17.5t-25 -19.5t-18 -19t-13 -21t-4 -22.5z" />
    <glyph glyph-name="three" unicode="3" horiz-adv-x="512" 
d="M129 165q5 -4 18.5 -17.5t22.5 -20.5t28 -14t42 -7q50 0 79 25.5t29 64.5t-28.5 64.5t-78.5 25.5h-27q-29 0 -47 16.5t-18 41.5t18 41.5t47 16.5h27q41 0 64.5 21t23.5 54t-23.5 54t-64.5 21q-9 0 -17 -1t-15.5 -3.5l-12 -4t-11.5 -6.5t-9 -6.5t-9 -7.5t-8 -7
q-24 -22 -51 -22q-26 0 -40.5 15t-14.5 40q0 29 23 57q54 64 167 64q95 0 152 -52.5t57 -132.5q0 -96 -75 -141q46 -21 70 -61.5t24 -93.5q0 -87 -61 -144t-168 -57q-71 0 -124 26t-74 65q-13 24 -13 47q0 26 15.5 41t39.5 15t43 -17z" />
    <glyph glyph-name="four" unicode="4" horiz-adv-x="574" 
d="M442 128v-70q0 -30 -17.5 -48.5t-42.5 -18.5t-42.5 18.5t-17.5 48.5v70h-241q-26 0 -41 15t-15 40q0 23 21 65l175 358q16 32 32 46.5t40 14.5q25 0 39 -15.5t14 -40.5q0 -22 -20 -64l-70 -141q-37 -76 -88 -166q84 2 119 2h35v92q0 30 17.5 48.5t42.5 18.5t42.5 -18.5
t17.5 -48.5v-88h40q30 0 48 -17t18 -42t-18 -42t-48 -17h-40z" />
    <glyph glyph-name="five" unicode="5" horiz-adv-x="521" 
d="M244 -12q-68 0 -119 24.5t-74 63.5q-15 24 -15 51q0 25 15 40t39 15q23 0 45 -18q4 -3 18 -17.5t22.5 -20.5t28 -13t43.5 -7q52 0 82 27t30 75q0 49 -29.5 75t-81.5 26q-40 0 -78.5 -20.5t-58.5 -20.5q-27 0 -42 16t-15 42q0 20 2 48l14 228q2 26 18 41t44 15h240
q30 0 48 -17t18 -42t-18 -42t-48 -17h-183l-14 -140q43 25 95 25q88 0 149.5 -60.5t61.5 -154.5t-63.5 -158t-173.5 -64z" />
    <glyph glyph-name="six" unicode="6" horiz-adv-x="529" 
d="M267 106q48 0 77 33.5t29 84.5t-29 84.5t-77 33.5q-49 0 -77.5 -33.5t-28.5 -84.5t28.5 -84.5t77.5 -33.5zM262 -12q-107 0 -165.5 69.5t-58.5 198.5q0 133 58.5 237t149.5 155q35 19 69 19q27 0 42.5 -14.5t15.5 -37.5q0 -32 -32 -55q-9 -6 -34.5 -20.5t-42 -26t-38 -37
t-36.5 -58.5q42 31 103 31q89 0 146 -63t57 -161q0 -101 -62.5 -169t-171.5 -68z" />
    <glyph glyph-name="seven" unicode="7" horiz-adv-x="512" 
d="M340 544q-59 -4 -131 -4h-51v-37q0 -30 -17.5 -48.5t-42.5 -18.5t-42.5 18.5t-17.5 48.5v94q0 28 16.5 44.5t44.5 16.5h314q65 0 65 -53q0 -20 -22 -77l-188 -476q-23 -61 -68 -61q-25 0 -39.5 15.5t-14.5 41.5q0 23 17 66l110 272q5 13 67 158z" />
    <glyph glyph-name="eight" unicode="8" horiz-adv-x="542" 
d="M271 106q50 0 78.5 25.5t28.5 64.5t-28.5 64.5t-78.5 25.5t-78.5 -25.5t-28.5 -64.5t28.5 -64.5t78.5 -25.5zM271 402q41 0 64.5 21t23.5 54t-23.5 54t-64.5 21t-64.5 -21t-23.5 -54t23.5 -54t64.5 -21zM271 -12q-108 0 -169 57t-61 144q0 53 24 93.5t70 61.5
q-75 45 -75 141q0 80 57 132.5t154 52.5t154 -52.5t57 -132.5q0 -96 -75 -141q46 -21 70 -61.5t24 -93.5q0 -87 -61 -144t-169 -57z" />
    <glyph glyph-name="nine" unicode="9" horiz-adv-x="529" 
d="M262 316q49 0 77.5 33.5t28.5 84.5t-28.5 84.5t-77.5 33.5q-48 0 -77 -33.5t-29 -84.5t29 -84.5t77 -33.5zM339 240q-42 -31 -103 -31q-89 0 -146 63.5t-57 161.5q0 101 62 168.5t172 67.5q107 0 165.5 -69.5t58.5 -198.5q0 -133 -58.5 -237t-149.5 -155q-35 -19 -69 -19
q-27 0 -42.5 14.5t-15.5 37.5q0 32 32 55q9 6 34.5 20.5t42 26t38 37t36.5 58.5z" />
    <glyph glyph-name="colon" unicode=":" horiz-adv-x="272" 
d="M136 337q-30 0 -51.5 21.5t-21.5 51.5t21.5 51.5t51.5 21.5t51.5 -21.5t21.5 -51.5t-21.5 -51.5t-51.5 -21.5zM136 -9q-30 0 -51.5 21.5t-21.5 51.5t21.5 51.5t51.5 21.5t51.5 -21.5t21.5 -51.5t-21.5 -51.5t-51.5 -21.5z" />
    <glyph glyph-name="semicolon" unicode=";" horiz-adv-x="294" 
d="M158 337q-30 0 -51.5 21.5t-21.5 51.5t21.5 51.5t51.5 21.5t51.5 -21.5t21.5 -51.5t-21.5 -51.5t-51.5 -21.5zM104 -163q-24 0 -39 15.5t-15 42.5q0 19 14 68l35 123q10 33 24.5 51t41.5 18q24 0 39 -15.5t15 -42.5q0 -19 -14 -68l-35 -123q-10 -33 -24.5 -51t-41.5 -18z
" />
    <glyph glyph-name="less" unicode="&#x3c;" 
d="M237 287q92 -32 114 -42l143 -62q52 -23 52 -63q0 -25 -15 -39.5t-41 -14.5t-56 14l-329 147q-51 23 -51 60t51 60l329 147q30 14 56 14t41 -14.5t15 -39.5q0 -40 -52 -63l-143 -62q-22 -10 -114 -42z" />
    <glyph glyph-name="equal" unicode="=" 
d="M480 341h-360q-30 0 -48 17t-18 42t18 42t48 17h360q30 0 48 -17t18 -42t-18 -42t-48 -17zM480 115h-360q-30 0 -48 17t-18 42t18 42t48 17h360q30 0 48 -17t18 -42t-18 -42t-48 -17z" />
    <glyph glyph-name="greater" unicode="&#x3e;" 
d="M363 287q-92 32 -114 42l-143 62q-52 23 -52 63q0 25 15 39.5t41 14.5t56 -14l329 -147q51 -23 51 -60t-51 -60l-329 -147q-30 -14 -56 -14t-41 14.5t-15 39.5q0 40 52 63l143 62q22 10 114 42z" />
    <glyph glyph-name="question" unicode="?" horiz-adv-x="469" 
d="M265 301v-41q0 -30 -17 -48t-42 -18t-42 18t-17 48v83q0 27 16 43t43 16h17q41 0 64.5 21.5t23.5 53.5t-23.5 53.5t-65.5 21.5q-9 0 -17 -1t-15.5 -3.5t-12 -4.5t-11 -6.5t-8.5 -6t-9 -7.5t-8 -7q-24 -22 -51 -22q-26 0 -40.5 15t-14.5 40q0 29 23 57q54 64 167 64
q96 0 152.5 -52.5t56.5 -134.5q0 -74 -46 -124t-123 -58zM206 -9q-30 0 -51 21.5t-21 51.5t21 51.5t51 21.5t51 -21.5t21 -51.5t-21.5 -51.5t-50.5 -21.5z" />
    <glyph glyph-name="at" unicode="@" horiz-adv-x="908" 
d="M442 127q38 0 60.5 30.5t22.5 77.5t-22.5 77.5t-60.5 30.5t-60.5 -30.5t-21.5 -77.5q1 -48 23 -78t59 -30zM541 90q-33 -56 -112 -56q-74 0 -120 57t-46 144q0 86 45.5 143.5t119.5 57.5q65 0 95 -43q3 18 15.5 29.5t31.5 11.5q21 0 34.5 -14.5t13.5 -38.5v-186
q0 -69 53 -69q80 0 80 140q0 136 -79.5 223.5t-212.5 87.5q-140 0 -221 -99.5t-81 -243.5q0 -149 78.5 -245t219.5 -96q38 0 70 8t44.5 15t34.5 20q31 18 50 18t30 -11.5t11 -29.5q0 -31 -36 -58q-34 -25 -89.5 -40t-113.5 -15q-182 0 -289 125.5t-107 309.5q0 120 46 217.5
t137.5 157.5t213.5 60q178 0 284.5 -116.5t106.5 -284.5q0 -111 -49.5 -173t-140.5 -62q-85 0 -117 56z" />
    <glyph glyph-name="A" unicode="A" horiz-adv-x="582" 
d="M214 245h153q-69 191 -76 215q-24 -73 -77 -215zM445 47l-33 82h-243l-32 -82q-22 -56 -65 -56q-27 0 -42 17t-15 44q0 18 16 59l198 504q21 52 62 52t62 -52l198 -504q16 -41 16 -59q0 -27 -15 -44t-42 -17q-43 0 -65 56z" />
    <glyph glyph-name="B" unicode="B" horiz-adv-x="573" 
d="M190 280v-162h112q113 0 113 81t-113 81h-112zM190 540v-144h99q100 0 100 72t-100 72h-99zM423 342q54 -14 87 -53.5t33 -106.5q0 -87 -60 -134.5t-182 -47.5h-172q-28 0 -44.5 16.5t-16.5 44.5v536q0 28 16.5 44.5t44.5 16.5h154q111 0 171.5 -49t60.5 -132
q0 -102 -92 -135z" />
    <glyph glyph-name="C" unicode="C" horiz-adv-x="596" 
d="M341 -12q-139 0 -221 98.5t-82 242.5t82 242.5t221 98.5q66 0 118.5 -22t82.5 -57q22 -25 22 -54q0 -25 -14.5 -40t-40.5 -15q-24 0 -55 23q-2 1 -13.5 10t-15 11.5t-15.5 9t-20 9t-21.5 5t-27.5 2.5q-83 0 -131.5 -63t-48.5 -160t48.5 -160t131.5 -63q14 0 27.5 2.5
t21.5 5t20 9t15.5 9t15 11.5t13.5 10q31 23 55 23q26 0 40.5 -15t14.5 -40q0 -29 -22 -54q-30 -35 -82.5 -57t-118.5 -22z" />
    <glyph glyph-name="D" unicode="D" horiz-adv-x="627" 
d="M190 540v-422h93q89 0 138.5 55t49.5 156t-49.5 156t-138.5 55h-93zM282 0h-153q-28 0 -44.5 16.5t-16.5 44.5v536q0 28 16.5 44.5t44.5 16.5h153q144 0 228 -92t84 -237t-84 -237t-228 -92z" />
    <glyph glyph-name="E" unicode="E" horiz-adv-x="534" 
d="M190 118h253q30 0 48 -17t18 -42t-18 -42t-48 -17h-314q-28 0 -44.5 16.5t-16.5 44.5v536q0 28 16.5 44.5t44.5 16.5h308q30 0 48 -17t18 -42t-18 -42t-48 -17h-247v-144h142q29 0 47 -16.5t18 -41.5t-18 -41.5t-47 -16.5h-142v-162z" />
    <glyph glyph-name="F" unicode="F" horiz-adv-x="515" 
d="M190 262v-203q0 -31 -17.5 -49.5t-43.5 -18.5t-43.5 18.5t-17.5 49.5v538q0 28 16.5 44.5t44.5 16.5h308q30 0 48 -17t18 -42t-18 -42t-48 -17h-247v-162h142q29 0 47 -16.5t18 -41.5t-18 -41.5t-47 -16.5h-142z" />
    <glyph glyph-name="G" unicode="G" horiz-adv-x="655" 
d="M485 250h-102q-29 0 -47 16.5t-18 41.5t18 41.5t47 16.5h163q28 0 44.5 -16.5t16.5 -44.5v-58q0 -108 -68.5 -183.5t-194.5 -75.5q-143 0 -224.5 98t-81.5 243q0 144 82 242.5t221 98.5q66 0 118.5 -22t82.5 -57q22 -25 22 -54q0 -25 -14.5 -40t-40.5 -15q-24 0 -55 23
q-2 1 -13.5 10t-15 11.5t-15.5 9t-20 9t-21.5 5t-27.5 2.5q-83 0 -131.5 -63t-48.5 -160t48.5 -160t131.5 -63q65 0 104.5 36.5t39.5 85.5v22z" />
    <glyph glyph-name="H" unicode="H" horiz-adv-x="636" 
d="M446 280h-256v-221q0 -31 -17.5 -49.5t-43.5 -18.5t-43.5 18.5t-17.5 49.5v540q0 31 17.5 49.5t43.5 18.5t43.5 -18.5t17.5 -49.5v-203h256v203q0 31 17.5 49.5t43.5 18.5t43.5 -18.5t17.5 -49.5v-540q0 -31 -17.5 -49.5t-43.5 -18.5t-43.5 18.5t-17.5 49.5v221z" />
    <glyph glyph-name="I" unicode="I" horiz-adv-x="270" 
d="M135 -9q-26 0 -43.5 18.5t-17.5 49.5v540q0 31 17.5 49.5t43.5 18.5t43.5 -18.5t17.5 -49.5v-540q0 -31 -17.5 -49.5t-43.5 -18.5z" />
    <glyph glyph-name="J" unicode="J" horiz-adv-x="463" 
d="M213 -12q-67 0 -130 35.5t-63 97.5q0 26 14.5 41.5t38.5 15.5t43 -19q3 -3 15.5 -16.5t19 -19t22 -11.5t34.5 -6q40 0 56 24.5t16 79.5v389q0 31 17.5 49.5t43.5 18.5t43.5 -18.5t17.5 -49.5v-386q0 -110 -48 -167.5t-140 -57.5z" />
    <glyph glyph-name="K" unicode="K" horiz-adv-x="602" 
d="M190 192v-133q0 -31 -17.5 -49.5t-43.5 -18.5t-43.5 18.5t-17.5 49.5v540q0 31 17.5 49.5t43.5 18.5t43.5 -18.5t17.5 -49.5v-241q107 128 163 188l78 84q35 37 67 37q24 0 38.5 -14.5t14.5 -38.5q0 -32 -34 -68l-140 -151l179 -297q16 -27 16 -52q0 -26 -15.5 -40.5
t-41.5 -14.5q-38 0 -66 48l-158 262z" />
    <glyph glyph-name="L" unicode="L" horiz-adv-x="506" 
d="M190 118h235q30 0 48 -17t18 -42t-18 -42t-48 -17h-296q-28 0 -44.5 16.5t-16.5 44.5v538q0 31 17.5 49.5t43.5 18.5t43.5 -18.5t17.5 -49.5v-481z" />
    <glyph glyph-name="M" unicode="M" horiz-adv-x="738" 
d="M369 280l176 331q16 29 30.5 42.5t37.5 13.5q25 0 41 -17t16 -45v-546q0 -31 -17.5 -49.5t-43.5 -18.5t-43.5 18.5t-17.5 49.5v160q0 36 6 166q-31 -63 -71 -138l-50 -94q-25 -46 -64 -46t-64 46l-50 94q-40 75 -71 138q6 -130 6 -166v-160q0 -31 -17.5 -49.5
t-43.5 -18.5t-43.5 18.5t-17.5 49.5v546q0 28 16 45t41 17q23 0 37.5 -13.5t30.5 -42.5z" />
    <glyph glyph-name="N" unicode="N" horiz-adv-x="662" 
d="M477 223q-5 97 -5 148v228q0 31 17.5 49.5t43.5 18.5t43.5 -18.5t17.5 -49.5v-544q0 -30 -15 -47t-43 -17q-25 0 -41.5 13.5t-37.5 42.5l-190 267q-51 71 -82 121q5 -97 5 -148v-228q0 -31 -17.5 -49.5t-43.5 -18.5t-43.5 18.5t-17.5 49.5v544q0 30 15 47t43 17
q25 0 41.5 -13.5t37.5 -42.5l190 -267q51 -71 82 -121z" />
    <glyph glyph-name="O" unicode="O" horiz-adv-x="678" 
d="M339 106q81 0 129.5 63.5t48.5 159.5t-48.5 159.5t-129.5 63.5t-129.5 -63.5t-48.5 -159.5t48.5 -159.5t129.5 -63.5zM339 -12q-137 0 -219 98.5t-82 242.5t82 242.5t219 98.5t219 -98.5t82 -242.5t-82 -242.5t-219 -98.5z" />
    <glyph glyph-name="P" unicode="P" horiz-adv-x="557" 
d="M190 540v-192h114q53 0 82.5 24.5t29.5 71.5t-29.5 71.5t-82.5 24.5h-114zM304 232h-114v-173q0 -31 -17.5 -49.5t-43.5 -18.5t-43.5 18.5t-17.5 49.5v538q0 28 16.5 44.5t44.5 16.5h175q109 0 172 -58.5t63 -154.5t-63 -154.5t-172 -58.5z" />
    <glyph glyph-name="Q" unicode="Q" horiz-adv-x="678" 
d="M424 130l-50 49q-31 31 -31 60q0 25 16 40.5t40 15.5q29 0 59 -30l41 -40q18 47 18 104q0 96 -48.5 159.5t-129.5 63.5t-129.5 -63.5t-48.5 -159.5t48.5 -159.5t129.5 -63.5q49 0 85 24zM538 20l-31 30q-59 -62 -167 -62q-139 0 -220.5 98.5t-81.5 242.5t82 242.5
t219 98.5t219 -98.5t82 -241.5q0 -108 -55 -188l37 -36q31 -31 31 -60q0 -24 -16 -39.5t-40 -15.5q-30 0 -59 29z" />
    <glyph glyph-name="R" unicode="R" horiz-adv-x="576" 
d="M190 540v-186h116q52 0 81 24t29 69t-29 69t-81 24h-116zM303 238h-113v-179q0 -31 -17.5 -49.5t-43.5 -18.5t-43.5 18.5t-17.5 49.5v538q0 28 16.5 44.5t44.5 16.5h178q106 0 169.5 -57t63.5 -153q0 -130 -116 -180l101 -164q21 -36 21 -59q0 -25 -14.5 -39.5
t-41.5 -14.5q-39 0 -69 49z" />
    <glyph glyph-name="S" unicode="S" horiz-adv-x="532" 
d="M270 -12q-30 0 -67 6.5t-76.5 20.5t-65.5 40.5t-26 60.5q0 25 15 40.5t41 15.5q28 0 53 -23q17 -15 27.5 -22t37 -16t60.5 -9q104 0 104 72q0 23 -9 39t-31 27.5t-39.5 17t-54.5 15.5q-39 10 -69 24t-59.5 37t-46 59.5t-16.5 84.5q0 90 57 141t165 51q27 0 58.5 -5.5
t65 -16.5t55.5 -34t22 -54q0 -24 -14.5 -38t-39.5 -14q-22 0 -45 16q-48 32 -102 32q-98 0 -98 -73q0 -42 29 -61.5t99 -39.5q33 -9 56.5 -18t52 -25.5t46 -36.5t30 -51.5t12.5 -70.5q0 -88 -58 -140t-169 -52z" />
    <glyph glyph-name="T" unicode="T" horiz-adv-x="542" 
d="M332 540v-481q0 -31 -17.5 -49.5t-43.5 -18.5t-43.5 18.5t-17.5 49.5v481h-129q-30 0 -48 17t-18 42t18 42t48 17h380q30 0 48 -17t18 -42t-18 -42t-48 -17h-129z" />
    <glyph glyph-name="U" unicode="U" horiz-adv-x="640" 
d="M320 -12q-121 0 -189 78.5t-68 206.5v326q0 31 17.5 49.5t43.5 18.5t43.5 -18.5t17.5 -49.5v-323q0 -170 135 -170t135 170v323q0 31 17.5 49.5t43.5 18.5t43.5 -18.5t17.5 -49.5v-326q0 -128 -68 -206.5t-189 -78.5z" />
    <glyph glyph-name="V" unicode="V" horiz-adv-x="582" 
d="M291 -9q-41 0 -62 52l-198 504q-16 41 -16 59q0 27 15 44t42 17q43 0 65 -56l50 -127q47 -121 104 -283q57 162 104 283l50 127q22 56 65 56q27 0 42 -17t15 -44q0 -18 -16 -59l-198 -504q-21 -52 -62 -52z" />
    <glyph glyph-name="W" unicode="W" horiz-adv-x="866" 
d="M609 240q38 127 59 193l57 179q18 55 63 55q28 0 43 -16.5t15 -44.5q0 -15 -12 -56l-163 -505q-17 -52 -61 -52t-61 52l-58 185q-30 96 -58 194q-28 -98 -58 -194l-58 -185q-17 -52 -61 -52t-61 52l-163 505q-12 41 -12 56q0 28 15 44.5t43 16.5q45 0 63 -55l57 -179
q21 -66 59 -193q15 56 57 193l57 182q17 52 62 52t62 -52l57 -182q42 -137 57 -193z" />
    <glyph glyph-name="X" unicode="X" horiz-adv-x="550" 
d="M272 236q-7 -11 -73 -112l-57 -86q-32 -47 -70 -47q-25 0 -39.5 15.5t-14.5 40.5q0 27 24 61l155 233l-145 207q-24 33 -24 61q0 25 14.5 40.5t39.5 15.5q38 0 70 -47l52 -75q48 -68 74 -107q18 30 70 107l50 75q32 47 70 47q25 0 39.5 -15.5t14.5 -40.5q0 -24 -24 -61
l-146 -216l156 -224q24 -34 24 -61q0 -25 -14.5 -40.5t-39.5 -15.5q-38 0 -70 47l-60 86q-31 44 -76 112z" />
    <glyph glyph-name="Y" unicode="Y" horiz-adv-x="526" 
d="M263 371q51 104 81 160l40 76q17 31 32 44.5t39 13.5q26 0 41 -15.5t15 -41.5q0 -24 -19 -58l-168 -307v-184q0 -31 -17.5 -49.5t-43.5 -18.5t-43.5 18.5t-17.5 49.5v184l-168 307q-19 34 -19 58q0 26 15 41.5t41 15.5q24 0 39 -13.5t32 -44.5l40 -76q30 -56 81 -160z
" />
    <glyph glyph-name="Z" unicode="Z" horiz-adv-x="560" 
d="M207 118h250q30 0 48 -17t18 -42t-18 -42t-48 -17h-362q-58 0 -58 52q0 26 26 67l278 421h-231q-30 0 -48 17t-18 42t18 42t48 17h343q58 0 58 -52q0 -26 -26 -67z" />
    <glyph glyph-name="bracketleft" unicode="[" horiz-adv-x="347" 
d="M186 -12h72q29 0 46.5 -16t17.5 -41t-17.5 -41t-46.5 -16h-131q-27 0 -43 16t-16 43v708q0 27 16 43t43 16h131q29 0 46.5 -16t17.5 -41t-17.5 -41t-46.5 -16h-72v-598z" />
    <glyph glyph-name="backslash" unicode="\" horiz-adv-x="500" 
d="M386 -135q-42 0 -62 53l-252 690q-10 30 -10 45q0 25 14 40.5t38 15.5q42 0 62 -53l252 -690q10 -30 10 -45q0 -25 -14 -40.5t-38 -15.5z" />
    <glyph glyph-name="bracketright" unicode="]" horiz-adv-x="347" 
d="M161 -12v598h-72q-29 0 -46.5 16t-17.5 41t17.5 41t46.5 16h131q27 0 43 -16t16 -43v-708q0 -27 -16 -43t-43 -16h-131q-29 0 -46.5 16t-17.5 41t17.5 41t46.5 16h72z" />
    <glyph glyph-name="asciicircum" unicode="^" horiz-adv-x="422" 
d="M211 483l-46 -107q-23 -55 -65 -55q-26 0 -40.5 14.5t-14.5 39.5q0 23 14 51l92 190q13 27 26 39t34 12t34 -12t26 -39l92 -190q14 -28 14 -51q0 -25 -14.5 -39.5t-40.5 -14.5q-42 0 -65 55z" />
    <glyph glyph-name="underscore" unicode="_" horiz-adv-x="490" 
d="M494 -126h-498q-23 0 -37.5 13.5t-14.5 33.5t14.5 33.5t37.5 13.5h498q23 0 37.5 -13.5t14.5 -33.5t-14.5 -33.5t-37.5 -13.5z" />
    <glyph glyph-name="grave" unicode="`" horiz-adv-x="500" 
d="M314 542q-21 0 -44 21l-105 99q-26 24 -26 51q0 20 13 33.5t34 13.5t44 -21l105 -99q26 -24 26 -51q0 -20 -13 -33.5t-34 -13.5z" />
    <glyph glyph-name="a" unicode="a" horiz-adv-x="501" 
d="M308 188v10h-41q-27 0 -43 -1.5t-35 -6.5t-28.5 -17t-9.5 -31q0 -26 18 -39.5t47 -13.5q44 0 68 27.5t24 71.5zM333 49q-37 -61 -130 -61q-78 0 -124 41.5t-46 111.5q0 153 228 153h47v12q0 70 -78 70q-32 0 -60.5 -19.5t-50.5 -19.5q-25 0 -39.5 14.5t-14.5 36.5
q0 27 18.5 47t46.5 30.5t55.5 15.5t51.5 5q83 0 136 -44t53 -138v-147q0 -46 29 -69q26 -22 26 -50q0 -47 -56 -47q-61 0 -92 58z" />
    <glyph glyph-name="b" unicode="b" horiz-adv-x="537" 
d="M280 102q47 0 75 37.5t28 97.5t-28 97.5t-75 37.5t-74.5 -38t-27.5 -97t27.5 -97t74.5 -38zM179 39q-5 -22 -20 -35t-37 -13q-25 0 -42 18.5t-17 47.5v544q0 30 17 48t42 18t42 -18t17 -48v-163q37 48 118 48q93 0 149 -70.5t56 -178.5q0 -107 -56.5 -178t-147.5 -71
q-83 0 -121 51z" />
    <glyph glyph-name="c" unicode="c" horiz-adv-x="458" 
d="M259 -12q-103 0 -164.5 72t-61.5 177t61.5 177t164.5 72q56 0 112.5 -27.5t56.5 -78.5q0 -24 -14.5 -38t-37.5 -14q-22 0 -47 17q-40 27 -70 27q-49 0 -78 -38.5t-29 -96.5t29 -96.5t78 -38.5q7 0 13.5 0.5t12.5 2.5t10 3.5t10 5t8 4.5t8.5 5.5t7.5 5.5q25 17 47 17
q23 0 37.5 -14t14.5 -38q0 -51 -56.5 -78.5t-112.5 -27.5z" />
    <glyph glyph-name="d" unicode="d" horiz-adv-x="537" 
d="M257 102q47 0 74.5 38t27.5 97t-27.5 97t-74.5 38t-75 -37.5t-28 -97.5t28 -97.5t75 -37.5zM358 39q-38 -51 -121 -51q-91 0 -147.5 71t-56.5 178q0 108 56 178.5t149 70.5q81 0 118 -48v163q0 30 17 48t42 18t42 -18t17 -48v-544q0 -29 -17 -47.5t-42 -18.5
q-22 0 -37 13t-20 35z" />
    <glyph glyph-name="e" unicode="e" horiz-adv-x="489" 
d="M157 287h180q-7 42 -30 67.5t-60 25.5t-60 -25.5t-30 -67.5zM398 191h-243q14 -93 103 -93q10 0 19.5 1.5t15.5 3t13.5 5.5t10.5 6t10 7t9 6q17 12 39 12t35.5 -14.5t13.5 -36.5q0 -34 -32 -58t-68.5 -33t-69.5 -9q-102 0 -161.5 72t-59.5 178q0 105 57.5 176.5
t156.5 71.5q100 0 156 -71.5t56 -162.5q0 -28 -16.5 -44.5t-44.5 -16.5z" />
    <glyph glyph-name="f" unicode="f" horiz-adv-x="381" 
d="M230 348v-291q0 -29 -17 -47.5t-42 -18.5t-42 18.5t-17 47.5v291h-33q-29 0 -46.5 16t-17.5 41t17.5 41t46.5 16h33v35q0 83 41 128t118 45q90 0 90 -60q0 -55 -71 -55q-32 0 -46 -15.5t-14 -53.5v-24h67q29 0 46.5 -16t17.5 -41t-17.5 -41t-46.5 -16h-67z" />
    <glyph glyph-name="g" unicode="g" horiz-adv-x="535" 
d="M255 120q47 0 74.5 35.5t27.5 90.5t-27.5 90.5t-74.5 35.5q-46 0 -73.5 -35.5t-27.5 -90.5t27.5 -90.5t73.5 -35.5zM355 46v9q-39 -48 -120 -48q-90 0 -146 68t-56 171t56 171.5t146 68.5q84 0 121 -51q5 22 20 35t37 13q25 0 42 -18t17 -48v-382q0 -102 -55.5 -163.5
t-157.5 -61.5q-24 0 -53 5t-59.5 15.5t-50.5 31t-20 47.5q0 23 14 36.5t36 13.5t45 -14q2 -1 8 -5t9.5 -5.5t9.5 -4.5t11 -5t12.5 -3.5t15 -2.5t16.5 -1q102 0 102 128z" />
    <glyph glyph-name="h" unicode="h" horiz-adv-x="528" 
d="M181 438q37 48 117 48q86 0 129.5 -58.5t43.5 -159.5v-211q0 -29 -17 -47.5t-42 -18.5t-42 18.5t-17 47.5v208q0 107 -77 107q-41 0 -68 -31t-27 -86v-198q0 -29 -17 -47.5t-42 -18.5t-42 18.5t-17 47.5v544q0 30 17 48t42 18t42 -18t17 -48v-163z" />
    <glyph glyph-name="i" unicode="i" horiz-adv-x="244" 
d="M122 548q-28 0 -48.5 20t-20.5 49t20.5 49t48.5 20t48.5 -20t20.5 -49t-20.5 -49t-48.5 -20zM122 -9q-25 0 -42 18t-17 48v360q0 30 17 48t42 18t42 -18t17 -48v-360q0 -30 -17 -48t-42 -18z" />
    <glyph glyph-name="j" unicode="j" horiz-adv-x="277" 
d="M55 -190q-90 0 -90 60q0 55 71 55q32 0 46 15.5t14 53.5v423q0 30 17 48t42 18t42 -18t17 -48v-434q0 -83 -41 -128t-118 -45zM155 548q-29 0 -49 20t-20 49t20 49t49 20t49 -20t20 -49t-20 -49t-49 -20z" />
    <glyph glyph-name="k" unicode="k" horiz-adv-x="491" 
d="M181 134v-77q0 -30 -17 -48t-42 -18t-42 18t-17 48v544q0 30 17 48t42 18t42 -18t17 -48v-320q75 93 167 179q25 23 53 23q25 0 39.5 -15.5t14.5 -39.5q0 -27 -26 -53l-98 -95l122 -184q17 -26 17 -52q0 -24 -15 -38.5t-41 -14.5q-34 0 -57 35l-112 170z" />
    <glyph glyph-name="l" unicode="l" horiz-adv-x="261" 
d="M180 -9q-54 0 -85.5 47.5t-31.5 131.5v431q0 30 17 48t42 18t42 -18t17 -48v-444q0 -46 29 -69q26 -22 26 -50q0 -47 -56 -47z" />
    <glyph glyph-name="m" unicode="m" horiz-adv-x="788" 
d="M424 408q42 78 139 78q86 0 127 -58t41 -160v-211q0 -30 -17 -48t-42 -18t-42 18t-17 48v208q0 107 -70 107q-37 0 -62 -31.5t-25 -85.5v-198q0 -30 -17 -48t-42 -18t-42 18t-17 48v208q0 107 -70 107q-38 0 -62.5 -31t-24.5 -86v-198q0 -30 -17 -48t-42 -18t-42 18
t-17 48v360q0 30 17 48t42 18q22 0 37 -13t20 -35q36 51 115 51q87 0 130 -78z" />
    <glyph glyph-name="n" unicode="n" horiz-adv-x="528" 
d="M179 435q36 51 119 51q86 0 129.5 -58.5t43.5 -159.5v-211q0 -30 -17 -48t-42 -18t-42 18t-17 48v208q0 107 -77 107q-41 0 -68 -31t-27 -86v-198q0 -30 -17 -48t-42 -18t-42 18t-17 48v360q0 30 17 48t42 18q22 0 37 -13t20 -35z" />
    <glyph glyph-name="o" unicode="o" horiz-adv-x="518" 
d="M259 102q49 0 78 38.5t29 96.5t-29 96.5t-78 38.5t-78 -38.5t-29 -96.5t29 -96.5t78 -38.5zM259 -12q-103 0 -164.5 72t-61.5 177t61.5 177t164.5 72t164.5 -72t61.5 -177t-61.5 -177t-164.5 -72z" />
    <glyph glyph-name="p" unicode="p" horiz-adv-x="537" 
d="M280 102q47 0 75 37.5t28 97.5t-28 97.5t-75 37.5t-74.5 -38t-27.5 -97t27.5 -97t74.5 -38zM181 36v-157q0 -30 -17 -48t-42 -18t-42 18t-17 48v538q0 30 17 48t42 18q22 0 37 -13t20 -35q38 51 121 51q91 0 147.5 -71t56.5 -178q0 -108 -56.5 -178.5t-148.5 -70.5
q-81 0 -118 48z" />
    <glyph glyph-name="q" unicode="q" horiz-adv-x="537" 
d="M257 102q47 0 74.5 38t27.5 97t-27.5 97t-74.5 38t-75 -37.5t-28 -97.5t28 -97.5t75 -37.5zM356 -121v157q-37 -48 -118 -48q-92 0 -148.5 70.5t-56.5 178.5q0 107 56.5 178t147.5 71q83 0 121 -51q5 22 20 35t37 13q25 0 42 -18t17 -48v-538q0 -30 -17 -48t-42 -18
t-42 18t-17 48z" />
    <glyph glyph-name="r" unicode="r" horiz-adv-x="362" 
d="M181 420q13 30 38.5 47.5t57.5 17.5q29 0 47 -15t18 -43q0 -29 -19 -45.5t-50 -16.5q-41 0 -66.5 -30t-25.5 -95v-183q0 -30 -17 -48t-42 -18t-42 18t-17 48v360q0 30 17 48t42 18t41.5 -17t17.5 -46z" />
    <glyph glyph-name="s" unicode="s" horiz-adv-x="427" 
d="M211 -12q-73 0 -126.5 27t-53.5 71q0 21 13 35t38 14q21 0 56.5 -22.5t74.5 -22.5q32 0 51 11t19 32q0 8 -2.5 14t-9 11t-12.5 8t-17.5 7t-18.5 6t-22 5.5t-22 5.5q-29 8 -50 16.5t-43.5 24.5t-34 42.5t-11.5 62.5q0 69 44.5 109.5t129.5 40.5q65 0 110.5 -22.5
t45.5 -64.5q0 -22 -13.5 -35t-36.5 -13q-18 0 -47.5 16.5t-60.5 16.5q-59 0 -59 -39q0 -25 21 -35.5t63 -19.5q32 -7 54.5 -15t49 -24.5t41 -44.5t14.5 -67q0 -73 -49 -112t-136 -39z" />
    <glyph glyph-name="t" unicode="t" horiz-adv-x="381" 
d="M230 360v-188q0 -38 14 -53.5t46 -15.5q71 0 71 -55q0 -60 -90 -60q-77 0 -118 45t-41 128v199h-33q-29 0 -46.5 16t-17.5 41t17.5 41t46.5 16h33v84q0 29 17 47.5t42 18.5t42 -18.5t17 -47.5v-84h67q29 0 46.5 -16t17.5 -41t-17.5 -41t-46.5 -16h-67z" />
    <glyph glyph-name="u" unicode="u" horiz-adv-x="528" 
d="M349 39q-36 -51 -119 -51q-86 0 -129.5 58.5t-43.5 159.5v211q0 30 17 48t42 18t42 -18t17 -48v-208q0 -107 77 -107q41 0 68 31t27 86v198q0 30 17 48t42 18t42 -18t17 -48v-360q0 -30 -17 -48t-42 -18q-22 0 -37 13t-20 35z" />
    <glyph glyph-name="v" unicode="v" horiz-adv-x="446" 
d="M223 167q42 150 91 266q22 50 62 50q24 0 39.5 -14.5t15.5 -41.5q0 -19 -9 -41l-139 -346q-21 -49 -60 -49t-60 49l-139 346q-9 22 -9 41q0 27 15.5 41.5t39.5 14.5q40 0 62 -50q49 -116 91 -266z" />
    <glyph glyph-name="w" unicode="w" horiz-adv-x="680" 
d="M340 279q-26 -92 -54 -179l-20 -60q-16 -49 -60 -49q-41 0 -58 49l-118 333q-13 39 -13 53q0 24 14.5 40.5t41.5 16.5q44 0 63 -56l21 -62q28 -82 49 -167q47 153 54 173l22 63q17 49 58 49t58 -49l22 -63q7 -20 54 -173q21 85 49 167l21 62q19 56 63 56q27 0 41.5 -16.5
t14.5 -40.5q0 -14 -13 -53l-118 -333q-17 -49 -58 -49q-44 0 -60 49l-20 60q-28 87 -54 179z" />
    <glyph glyph-name="x" unicode="x" horiz-adv-x="454" 
d="M223 158l-92 -134q-23 -33 -58 -33q-24 0 -38.5 15t-14.5 39q0 26 19 52l110 151l-100 129q-19 26 -19 52q0 24 14.5 39t38.5 15q34 0 58 -33l90 -120l81 120q22 33 58 33q24 0 38.5 -15t14.5 -39q0 -26 -19 -52l-99 -138l110 -142q19 -26 19 -52q0 -24 -14.5 -39
t-38.5 -15q-34 0 -58 33z" />
    <glyph glyph-name="y" unicode="y" horiz-adv-x="446" 
d="M223 167q42 150 91 266q22 50 62 50q24 0 39.5 -14.5t15.5 -41.5q0 -19 -9 -41l-129 -321q-17 -41 -35.5 -77t-48 -79.5t-67 -69.5t-76.5 -26q-28 0 -44 14.5t-16 38.5q0 29 27 48q5 4 29 18t37 24.5t31 36t28 59.5l-134 334q-9 22 -9 41q0 27 15.5 41.5t39.5 14.5
q40 0 62 -50q49 -116 91 -266z" />
    <glyph glyph-name="z" unicode="z" horiz-adv-x="439" 
d="M199 114h148q29 0 46.5 -16t17.5 -41t-17.5 -41t-46.5 -16h-260q-59 0 -59 50q0 27 22 58l182 252h-136q-29 0 -46.5 16t-17.5 41t17.5 41t46.5 16h248q59 0 59 -50q0 -27 -22 -58z" />
    <glyph glyph-name="braceleft" unicode="{" horiz-adv-x="405" 
d="M185 287q62 -24 62 -98v-133q0 -67 59 -67q30 0 47 -16t17 -41q0 -58 -82 -58q-74 0 -116.5 48t-42.5 127v140q0 41 -34 41q-25 0 -42.5 16.5t-17.5 40.5t17.5 40.5t42.5 16.5q34 0 34 41v140q0 79 42.5 127t116.5 48q82 0 82 -58q0 -25 -17 -41t-47 -16q-59 0 -59 -67
v-133q0 -74 -62 -98z" />
    <glyph glyph-name="bar" unicode="|" horiz-adv-x="298" 
d="M149 -135q-25 0 -42 18.5t-17 47.5v712q0 30 17 48t42 18t42 -18t17 -48v-712q0 -29 -17 -47.5t-42 -18.5z" />
    <glyph glyph-name="braceright" unicode="}" horiz-adv-x="405" 
d="M220 287q-62 24 -62 98v133q0 67 -59 67q-30 0 -47 16t-17 41q0 58 82 58q74 0 116.5 -48t42.5 -127v-140q0 -41 34 -41q25 0 42.5 -16.5t17.5 -40.5t-17.5 -40.5t-42.5 -16.5q-34 0 -34 -41v-140q0 -79 -42.5 -127t-116.5 -48q-82 0 -82 58q0 25 17 41t47 16q59 0 59 67
v133q0 74 62 98z" />
    <glyph glyph-name="asciitilde" unicode="~" 
d="M392 197q-42 0 -98 31t-82 31q-28 0 -54 -31t-53 -31q-25 0 -39 15t-14 40q0 50 49.5 87.5t106.5 37.5q42 0 98 -31t82 -31q28 0 54 31t53 31q25 0 39 -15t14 -40q0 -50 -49.5 -87.5t-106.5 -37.5z" />
    <glyph glyph-name="uni00A0" unicode="&#xa0;" horiz-adv-x="180" 
 />
    <glyph glyph-name="exclamdown" unicode="&#xa1;" horiz-adv-x="289" 
d="M141 337q-30 0 -51 21.5t-21 51.5t21 51.5t51 21.5t51 -21.5t21 -51.5t-21 -51.5t-51 -21.5zM141 -193q-25 0 -42 18t-17 48v341q0 30 17 48t42 18t42 -18t17 -48v-341q0 -30 -17 -48t-42 -18z" />
    <glyph glyph-name="cent" unicode="&#xa2;" horiz-adv-x="487" 
d="M322 -7v-61q0 -30 -17 -48t-42 -18t-42 18t-17 48v65q-74 22 -116.5 88t-42.5 152t42.5 152t116.5 88v65q0 30 17 48t42 18t42 -18t17 -48v-61q44 -9 81 -35.5t37 -65.5q0 -24 -14.5 -38t-37.5 -14q-22 0 -47 17q-40 27 -70 27q-49 0 -78 -38.5t-29 -96.5t29 -96.5
t78 -38.5q7 0 13.5 0.5t12.5 2.5t10 3.5t10 5t8 4.5t8.5 5.5t7.5 5.5q25 17 47 17q23 0 37.5 -14t14.5 -38q0 -39 -37 -65.5t-81 -35.5z" />
    <glyph glyph-name="sterling" unicode="&#xa3;" horiz-adv-x="591" 
d="M260 118h235q30 0 48 -17t18 -42t-18 -42t-48 -17h-296q-28 0 -44.5 16.5t-16.5 44.5v219h-53q-29 0 -47 16.5t-18 41.5t18 41.5t47 16.5h53v54q0 104 54 162t152 58q81 0 135.5 -35.5t54.5 -85.5q0 -25 -14.5 -40t-40.5 -15q-23 0 -40.5 14.5t-38.5 29t-53 14.5
q-87 0 -87 -108v-48h142q29 0 47 -16.5t18 -41.5t-18 -41.5t-47 -16.5h-142v-162z" />
    <glyph glyph-name="currency" unicode="&#xa4;" 
d="M300 172q45 0 75.5 33t30.5 82t-30.5 82t-75.5 33t-75.5 -33t-30.5 -82t30.5 -82t75.5 -33zM300 62q-60 0 -112 33l-26 -27q-26 -27 -57 -27q-24 0 -38.5 14.5t-14.5 36.5q0 28 26 54l31 30q-31 54 -31 111t31 111l-31 30q-26 26 -26 54q0 22 14.5 36.5t38.5 14.5
q31 0 57 -27l26 -27q52 33 112 33t112 -33l26 27q26 27 57 27q24 0 38.5 -14.5t14.5 -36.5q0 -28 -26 -54l-31 -30q31 -54 31 -111t-31 -111l31 -30q26 -26 26 -54q0 -22 -14.5 -36.5t-38.5 -14.5q-31 0 -57 27l-26 27q-52 -33 -112 -33z" />
    <glyph glyph-name="yen" unicode="&#xa5;" horiz-adv-x="576" 
d="M349 155v-96q0 -31 -17.5 -49.5t-43.5 -18.5t-43.5 18.5t-17.5 49.5v96h-133q-24 0 -39 14t-15 34t15 34t39 14h129l-41 75h-88q-24 0 -39 14t-15 34t15 34t39 14h35l-70 128q-19 34 -19 58q0 26 15 41.5t41 15.5q24 0 39 -13.5t32 -44.5l40 -76q30 -56 81 -160
q51 104 81 160l40 76q17 31 32 44.5t39 13.5q26 0 41 -15.5t15 -41.5q0 -24 -19 -58l-70 -128h35q24 0 39 -14t15 -34t-15 -34t-39 -14h-88l-41 -75h129q24 0 39 -14t15 -34t-15 -34t-39 -14h-133z" />
    <glyph glyph-name="brokenbar" unicode="&#xa6;" horiz-adv-x="294" 
d="M147 334q-25 0 -42 18t-17 48v243q0 30 17 48t42 18t42 -18t17 -48v-243q0 -30 -17 -48t-42 -18zM147 -135q-25 0 -42 18t-17 48v243q0 30 17 48t42 18t42 -18t17 -48v-243q0 -30 -17 -48t-42 -18z" />
    <glyph glyph-name="section" unicode="&#xa7;" horiz-adv-x="570" 
d="M366 186q33 20 33 47q0 28 -24.5 46t-68.5 33q-8 3 -46.5 14.5t-55.5 19.5q-33 -20 -33 -47q0 -28 24.5 -46t68.5 -33q8 -3 46.5 -14.5t55.5 -19.5zM451 119q31 -34 31 -92q0 -77 -49.5 -121t-139.5 -44q-28 0 -60 6.5t-64 20t-53 37.5t-21 55q0 24 13.5 38.5t39.5 14.5
q25 0 50 -20l10 -8q11 -9 13.5 -10.5l12.5 -7.5t16.5 -8t17 -4t22.5 -2q33 0 51.5 13.5t18.5 35.5q0 10 -4 19t-13 16.5t-18 13t-25 11.5t-27.5 10t-31.5 11t-32 11q-35 12 -60 24.5t-50 32.5t-38.5 49t-13.5 66q0 80 72 126q-31 34 -31 92q0 77 49.5 121t139.5 44
q28 0 60 -6.5t64 -20t53 -37.5t21 -55q0 -24 -13.5 -38.5t-39.5 -14.5q-25 0 -50 20l-10 8q-11 9 -13.5 10.5l-12.5 7.5t-16.5 8t-17 4t-22.5 2q-33 0 -51.5 -13.5t-18.5 -35.5q0 -10 4 -19t13 -16.5t18 -13t25 -11.5t27.5 -10t31.5 -11t32 -11q35 -12 60 -24.5t50 -32.5
t38.5 -49t13.5 -66q0 -80 -72 -126z" />
    <glyph glyph-name="dieresis" unicode="&#xa8;" horiz-adv-x="500" 
d="M152 548q-28 0 -48.5 20t-20.5 49t20.5 49t48.5 20t48.5 -20t20.5 -49t-20.5 -49t-48.5 -20zM347 548q-29 0 -49 20t-20 49t20 49t49 20t49 -20t20 -49t-20 -49t-49 -20z" />
    <glyph glyph-name="copyright" unicode="&#xa9;" horiz-adv-x="810" 
d="M405 68q102 0 176.5 77t74.5 184t-74.5 184t-176.5 77t-176.5 -77t-74.5 -184t74.5 -184t176.5 -77zM414 141q-84 0 -132.5 55.5t-48.5 132.5t48.5 132.5t132.5 55.5q67 0 110 -36q27 -22 27 -45q0 -18 -10.5 -29t-28.5 -11t-37 17q-26 22 -61 22q-44 0 -70.5 -29.5
t-26.5 -76.5t26.5 -76.5t70.5 -29.5q35 0 61 22q19 17 37 17t28.5 -11t10.5 -29q0 -23 -27 -45q-43 -36 -110 -36zM405 -12q-136 0 -235.5 100.5t-99.5 240.5t99.5 240.5t235.5 100.5t235.5 -100.5t99.5 -240.5t-99.5 -240.5t-235.5 -100.5z" />
    <glyph glyph-name="ordfeminine" unicode="&#xaa;" horiz-adv-x="374" 
d="M221 455v7h-27q-18 0 -28.5 -1t-24 -4t-20 -11.5t-6.5 -21.5q0 -36 44 -36q30 0 46 18.5t16 48.5zM240 358q-25 -42 -91 -42q-55 0 -87 29t-32 78q0 107 159 107h32v8q0 47 -53 47q-22 0 -42 -13.5t-35 -13.5q-18 0 -28.5 10.5t-10.5 26.5q0 33 37 51.5t84 18.5
q58 0 96 -31.5t38 -97.5v-100q0 -35 14 -45q1 -1 4 -3t4.5 -3.5l4 -4t4 -4.5t3.5 -5.5t2.5 -7.5t0.5 -9q0 -36 -41 -36t-63 40z" />
    <glyph glyph-name="guillemotleft" unicode="&#xab;" horiz-adv-x="615" 
d="M176 228l104 -111q23 -23 23 -50q0 -24 -15 -40t-41 -16q-30 0 -55 27l-141 152q-16 16 -16 38t16 38l141 152q25 27 55 27q26 0 41 -16t15 -40q0 -27 -23 -50zM443 228l104 -111q23 -23 23 -50q0 -24 -15 -40t-41 -16q-30 0 -55 27l-141 152q-16 16 -16 38t16 38
l141 152q25 27 55 27q26 0 41 -16t15 -40q0 -27 -23 -50z" />
    <glyph glyph-name="logicalnot" unicode="&#xac;" 
d="M426 228h-306q-30 0 -48 17t-18 42t18 42t48 17h365q28 0 44.5 -16.5t16.5 -44.5v-180q0 -30 -17.5 -48.5t-42.5 -18.5t-42.5 18.5t-17.5 48.5v123z" />
    <glyph glyph-name="uni00AD" unicode="&#xad;" horiz-adv-x="475" 
d="M352 181h-229q-30 0 -48 17t-18 42t18 42t48 17h229q30 0 48 -17t18 -42t-18 -42t-48 -17z" />
    <glyph glyph-name="registered" unicode="&#xae;" horiz-adv-x="510" 
d="M255 302q66 0 111.5 47t45.5 114q0 68 -45 114.5t-112 46.5t-112 -46.5t-45 -114.5q0 -67 45.5 -114t111.5 -47zM226 535v-60h37q35 0 35 30t-35 30h-37zM255 256q-87 0 -146 60.5t-59 146.5t59 146.5t146 60.5t146 -60.5t59 -146.5t-59 -146.5t-146 -60.5zM261 431h-35
v-58q0 -26 -24 -26t-24 26v184q0 11 7 17.5t17 6.5h62q38 0 60.5 -20t22.5 -55q0 -44 -38 -63l33 -53q7 -10 7 -21q0 -22 -23 -22q-15 0 -25 18z" />
    <glyph glyph-name="macron" unicode="&#xaf;" horiz-adv-x="500" 
d="M363 567h-226q-26 0 -41 14t-15 36t15 36t41 14h226q26 0 41 -14t15 -36t-15 -36t-41 -14z" />
    <glyph glyph-name="degree" unicode="&#xb0;" horiz-adv-x="378" 
d="M189 454q25 0 43 19t18 48t-18 48t-43 19t-43 -19t-18 -48t18 -48t43 -19zM189 372q-61 0 -104 43.5t-43 105.5t43 105.5t104 43.5t104 -43.5t43 -105.5t-43 -105.5t-104 -43.5z" />
    <glyph glyph-name="plusminus" unicode="&#xb1;" 
d="M360 318v-98q0 -30 -17.5 -48.5t-42.5 -18.5t-42.5 18.5t-17.5 48.5v98h-120q-30 0 -48 17t-18 42t18 42t48 17h120v99q0 30 17.5 48.5t42.5 18.5t42.5 -18.5t17.5 -48.5v-99h120q30 0 48 -17t18 -42t-18 -42t-48 -17h-120zM480 0h-360q-30 0 -48 17t-18 42t18 42t48 17
h360q30 0 48 -17t18 -42t-18 -42t-48 -17z" />
    <glyph glyph-name="twosuperior" unicode="&#xb2;" horiz-adv-x="349" 
d="M123 340q28 1 89 1h55q20 0 32 -11t12 -28t-12 -28t-32 -11h-185q-40 0 -40 47v14q0 30 9 53.5t29.5 43t34 28.5t40.5 26q23 14 34.5 22t22 22t10.5 29q0 17 -12 28t-35 11q-31 0 -53 -26t-42 -26q-36 0 -36 38q0 37 39 64.5t95 27.5q60 0 93 -33t33 -84q0 -73 -84 -126
q-10 -7 -27.5 -17t-27.5 -16t-21 -14.5t-16 -17t-5 -17.5z" />
    <glyph glyph-name="threesuperior" unicode="&#xb3;" horiz-adv-x="339" 
d="M161 256q-57 0 -93 25t-36 59q0 18 10.5 27.5t27.5 9.5t39.5 -21.5t50.5 -21.5t43.5 13.5t15.5 35.5t-15.5 35.5t-43.5 13.5h-18q-18 0 -29.5 10.5t-11.5 26.5t11.5 27t29.5 11h18q22 0 35 11t13 29t-12.5 29t-35.5 11q-22 0 -40.5 -16t-35.5 -16q-18 0 -28 10t-10 26
q0 31 33 52.5t82 21.5q59 0 93.5 -31.5t34.5 -80.5q0 -57 -44 -84q55 -24 55 -91q0 -53 -37 -87.5t-102 -34.5z" />
    <glyph glyph-name="acute" unicode="&#xb4;" horiz-adv-x="500" 
d="M186 542q-21 0 -34 13.5t-13 33.5q0 27 26 51l105 99q23 21 44 21t34 -13.5t13 -33.5q0 -27 -26 -51l-105 -99q-23 -21 -44 -21z" />
    <glyph glyph-name="uni00B5" unicode="&#xb5;" horiz-adv-x="534" 
d="M353 65q-18 -40 -46.5 -58.5t-73.5 -18.5q-26 0 -52 8v-65q0 -30 -17 -48t-42 -18t-42 18t-17 48v486q0 29 17 47.5t42 18.5t42 -18.5t17 -47.5v-208q0 -107 77 -107q41 0 68 31t27 86v198q0 29 17 47.5t42 18.5t42 -18.5t17 -47.5v-360q0 -30 -17 -48t-42 -18t-42 18
t-17 48v8z" />
    <glyph glyph-name="paragraph" unicode="&#xb6;" horiz-adv-x="726" 
d="M256 344h74v196h-74q-114 0 -114 -98t114 -98zM390 -135q-25 0 -42.5 18.5t-17.5 48.5v294h-80q-105 0 -167.5 58t-62.5 158t62.5 158t167.5 58h139q28 0 44.5 -16.5t16.5 -44.5v-665q0 -30 -17.5 -48.5t-42.5 -18.5zM578 -135q-25 0 -42.5 18.5t-17.5 48.5v668
q0 30 17.5 48.5t42.5 18.5t42.5 -18.5t17.5 -48.5v-668q0 -30 -17.5 -48.5t-42.5 -18.5z" />
    <glyph glyph-name="periodcentered" unicode="&#xb7;" horiz-adv-x="272" 
d="M136 256q-30 0 -51.5 21.5t-21.5 51.5t21.5 51.5t51.5 21.5t51.5 -21.5t21.5 -51.5t-21.5 -51.5t-51.5 -21.5z" />
    <glyph glyph-name="cedilla" unicode="&#xb8;" horiz-adv-x="500" 
d="M245 -41q15 3 31 3q43 0 67 -26.5t24 -68.5q0 -54 -35 -83t-86 -29q-43 0 -79 18t-36 52q0 17 10 27t26 10q13 0 33 -14.5t43 -14.5q43 0 43 34q0 32 -43 32q-9 0 -27 -2t-23 -2q-18 0 -28.5 10t-10.5 26t7 31l30 61q8 16 13.5 25t17 17.5t25.5 8.5q18 0 28.5 -11
t10.5 -27q0 -30 -41 -77z" />
    <glyph glyph-name="onesuperior" unicode="&#xb9;" horiz-adv-x="261" 
d="M123 547l-21 -19q-20 -16 -39 -16q-17 0 -27.5 10t-10.5 27q0 23 23 40l84 63q16 11 32 11q36 0 36 -40v-321q0 -20 -11.5 -32.5t-28.5 -12.5t-28.5 12.5t-11.5 32.5v160q0 43 3 85z" />
    <glyph glyph-name="ordmasculine" unicode="&#xba;" horiz-adv-x="378" 
d="M189 398q33 0 52.5 26.5t19.5 65.5t-19.5 65.5t-52.5 26.5t-52.5 -26.5t-19.5 -65.5t19.5 -65.5t52.5 -26.5zM189 315q-73 0 -116 50.5t-43 124.5t43 124.5t116 50.5t116 -50.5t43 -124.5t-43 -124.5t-116 -50.5z" />
    <glyph glyph-name="guillemotright" unicode="&#xbb;" horiz-adv-x="615" 
d="M172 228l-104 111q-23 23 -23 50q0 24 15 40t41 16q30 0 55 -27l141 -152q16 -16 16 -38t-16 -38l-141 -152q-25 -27 -55 -27q-26 0 -41 16t-15 40q0 27 23 50zM439 228l-104 111q-23 23 -23 50q0 24 15 40t41 16q30 0 55 -27l141 -152q16 -16 16 -38t-16 -38l-141 -152
q-25 -27 -55 -27q-26 0 -41 16t-15 40q0 27 23 50z" />
    <glyph glyph-name="onequarter" unicode="&#xbc;" horiz-adv-x="719" 
d="M123 547l-21 -19q-20 -16 -39 -16q-17 0 -27.5 10t-10.5 27q0 23 23 40l84 63q16 11 32 11q36 0 36 -40v-321q0 -20 -11.5 -32.5t-28.5 -12.5t-28.5 12.5t-11.5 32.5v160q0 43 3 85zM182 -9q-34 0 -34 36q0 13 7 29l270 581q13 30 41 30q34 0 34 -36q0 -13 -7 -29
l-270 -581q-13 -30 -41 -30zM646 74h-20v-35q0 -20 -11.5 -32.5t-28.5 -12.5t-28.5 12.5t-11.5 32.5v35h-139q-39 0 -39 38q0 15 12 39l104 213q17 36 46 36q17 0 26.5 -10.5t9.5 -26.5t-13 -40l-41 -82q-22 -45 -49 -92q23 1 65 1h18v49q0 20 11.5 32.5t28.5 12.5
t28.5 -12.5t11.5 -32.5v-47h20q20 0 32 -11t12 -28t-12 -28t-32 -11z" />
    <glyph glyph-name="onehalf" unicode="&#xbd;" horiz-adv-x="733" 
d="M123 547l-21 -19q-20 -16 -39 -16q-17 0 -27.5 10t-10.5 27q0 23 23 40l84 63q16 11 32 11q36 0 36 -40v-321q0 -20 -11.5 -32.5t-28.5 -12.5t-28.5 12.5t-11.5 32.5v160q0 43 3 85zM182 -9q-34 0 -34 36q0 13 7 29l270 581q13 30 41 30q34 0 34 -36q0 -13 -7 -29
l-270 -581q-13 -30 -41 -30zM507 77q28 1 89 1h55q20 0 32 -11t12 -28t-12 -28t-32 -11h-185q-40 0 -40 47v14q0 30 9 53.5t29.5 43t34 28.5t40.5 26q23 14 34.5 22t22 22t10.5 29q0 17 -12 28t-35 11q-31 0 -53 -26t-42 -26q-36 0 -36 38q0 37 39 64.5t95 27.5q60 0 93 -33
t33 -84q0 -73 -84 -126q-10 -7 -27.5 -17t-27.5 -16t-21 -14.5t-16 -17t-5 -17.5z" />
    <glyph glyph-name="threequarters" unicode="&#xbe;" horiz-adv-x="794" 
d="M161 256q-57 0 -93 25t-36 59q0 18 10.5 27.5t27.5 9.5t39.5 -21.5t50.5 -21.5t43.5 13.5t15.5 35.5t-15.5 35.5t-43.5 13.5h-18q-18 0 -29.5 10.5t-11.5 26.5t11.5 27t29.5 11h18q22 0 35 11t13 29t-12.5 29t-35.5 11q-22 0 -40.5 -16t-35.5 -16q-18 0 -28 10t-10 26
q0 31 33 52.5t82 21.5q59 0 93.5 -31.5t34.5 -80.5q0 -57 -44 -84q55 -24 55 -91q0 -53 -37 -87.5t-102 -34.5zM257 -9q-34 0 -34 36q0 13 7 29l270 581q14 30 41 30q34 0 34 -36q0 -13 -7 -29l-270 -581q-14 -30 -41 -30zM721 74h-20v-35q0 -20 -11.5 -32.5t-28.5 -12.5
t-28.5 12.5t-11.5 32.5v35h-139q-39 0 -39 38q0 15 12 39l104 213q17 36 46 36q17 0 26.5 -10.5t9.5 -26.5t-13 -40l-41 -82q-22 -45 -49 -92q23 1 65 1h18v49q0 20 11.5 32.5t28.5 12.5t28.5 -12.5t11.5 -32.5v-47h20q20 0 32 -11t12 -28t-12 -28t-32 -11z" />
    <glyph glyph-name="questiondown" unicode="&#xbf;" horiz-adv-x="469" 
d="M263 337q-30 0 -51 21.5t-21 51.5t21.5 51.5t50.5 21.5q30 0 51 -21.5t21 -51.5t-21 -51.5t-51 -21.5zM244 -196q-96 0 -152.5 52.5t-56.5 134.5q0 74 46 124t123 58v41q0 30 17 48t42 18t42 -18t17 -48v-83q0 -27 -16 -43t-43 -16h-17q-41 0 -64.5 -21.5t-23.5 -53.5
t23.5 -53.5t65.5 -21.5q9 0 17 1t15.5 3.5t12 4.5t11 6.5t8.5 6t9 7.5t8 7q24 22 51 22q26 0 40.5 -15t14.5 -40q0 -29 -23 -57q-54 -64 -167 -64z" />
    <glyph glyph-name="Agrave" unicode="&#xc0;" horiz-adv-x="582" 
d="M214 245h153q-69 191 -76 215q-24 -73 -77 -215zM445 47l-33 82h-243l-32 -82q-22 -56 -65 -56q-27 0 -42 17t-15 44q0 18 16 59l198 504q21 52 62 52t62 -52l198 -504q16 -41 16 -59q0 -27 -15 -44t-42 -17q-43 0 -65 56zM324 702q-21 0 -44 21l-105 99q-26 24 -26 51
q0 20 13 33.5t34 13.5t44 -21l105 -99q26 -24 26 -51q0 -20 -13 -33.5t-34 -13.5z" />
    <glyph glyph-name="Aacute" unicode="&#xc1;" horiz-adv-x="582" 
d="M214 245h153q-69 191 -76 215q-24 -73 -77 -215zM445 47l-33 82h-243l-32 -82q-22 -56 -65 -56q-27 0 -42 17t-15 44q0 18 16 59l198 504q21 52 62 52t62 -52l198 -504q16 -41 16 -59q0 -27 -15 -44t-42 -17q-43 0 -65 56zM258 702q-21 0 -34 13.5t-13 33.5q0 27 26 51
l105 99q23 21 44 21t34 -13.5t13 -33.5q0 -27 -26 -51l-105 -99q-23 -21 -44 -21z" />
    <glyph glyph-name="Acircumflex" unicode="&#xc2;" horiz-adv-x="582" 
d="M214 245h153q-69 191 -76 215q-24 -73 -77 -215zM445 47l-33 82h-243l-32 -82q-22 -56 -65 -56q-27 0 -42 17t-15 44q0 18 16 59l198 504q21 52 62 52t62 -52l198 -504q16 -41 16 -59q0 -27 -15 -44t-42 -17q-43 0 -65 56zM371 712l-80 76l-80 -76q-23 -21 -44 -21
t-34 13.5t-13 33.5q0 27 26 51l109 103q17 17 36 17t36 -17l109 -103q26 -24 26 -51q0 -20 -13 -33.5t-34 -13.5t-44 21z" />
    <glyph glyph-name="Atilde" unicode="&#xc3;" horiz-adv-x="582" 
d="M214 245h153q-69 191 -76 215q-24 -73 -77 -215zM445 47l-33 82h-243l-32 -82q-22 -56 -65 -56q-27 0 -42 17t-15 44q0 18 16 59l198 504q21 52 62 52t62 -52l198 -504q16 -41 16 -59q0 -27 -15 -44t-42 -17q-43 0 -65 56zM356 705q-35 0 -71.5 22.5t-52.5 22.5
q-18 0 -38.5 -22.5t-42.5 -22.5t-33.5 13t-11.5 34q0 38 36 67.5t84 29.5q35 0 71.5 -22.5t52.5 -22.5q18 0 38.5 22.5t42.5 22.5t33.5 -13t11.5 -34q0 -38 -36 -67.5t-84 -29.5z" />
    <glyph glyph-name="Adieresis" unicode="&#xc4;" horiz-adv-x="582" 
d="M214 245h153q-69 191 -76 215q-24 -73 -77 -215zM445 47l-33 82h-243l-32 -82q-22 -56 -65 -56q-27 0 -42 17t-15 44q0 18 16 59l198 504q21 52 62 52t62 -52l198 -504q16 -41 16 -59q0 -27 -15 -44t-42 -17q-43 0 -65 56zM194 708q-28 0 -48.5 20t-20.5 49t20.5 49
t48.5 20t48.5 -20t20.5 -49t-20.5 -49t-48.5 -20zM389 708q-29 0 -49 20t-20 49t20 49t49 20t49 -20t20 -49t-20 -49t-49 -20z" />
    <glyph glyph-name="Aring" unicode="&#xc5;" horiz-adv-x="582" 
d="M214 245h153q-69 191 -76 215q-24 -73 -77 -215zM291 770q19 0 30.5 12.5t11.5 32.5t-11.5 32.5t-30.5 12.5t-30.5 -12.5t-11.5 -32.5t11.5 -32.5t30.5 -12.5zM445 47l-33 82h-243l-32 -82q-22 -56 -65 -56q-27 0 -42 17t-15 44q0 18 16 59l198 504q21 52 62 52t62 -52
l198 -504q16 -41 16 -59q0 -27 -15 -44t-42 -17q-43 0 -65 56zM291 700q-47 0 -81 34t-34 81t34 81t81 34t81 -34t34 -81t-34 -81t-81 -34z" />
    <glyph glyph-name="AE" unicode="&#xc6;" horiz-adv-x="842" 
d="M225 251h151v289h-26zM376 61v74h-200l-43 -98q-19 -46 -61 -46q-26 0 -41.5 16t-15.5 41t16 59l224 510q17 41 69 41h421q30 0 48 -17t18 -42t-18 -42t-48 -17h-247v-144h142q29 0 47 -16.5t18 -41.5t-18 -41.5t-47 -16.5h-142v-162h253q30 0 48 -17t18 -42t-18 -42
t-48 -17h-314q-28 0 -44.5 16.5t-16.5 44.5z" />
    <glyph glyph-name="Ccedilla" unicode="&#xc7;" horiz-adv-x="596" 
d="M352 -12q-1 -2 -23 -29q15 3 31 3q43 0 67 -26.5t24 -68.5q0 -54 -35 -83t-86 -29q-43 0 -79 18t-36 52q0 17 10 27t26 10q13 0 33 -14.5t43 -14.5q43 0 43 34q0 32 -43 32q-9 0 -27 -2t-23 -2q-18 0 -28.5 10t-10.5 26t7 31l17 36q-104 26 -164 117.5t-60 213.5
q0 144 82 242.5t221 98.5q66 0 118.5 -22t82.5 -57q22 -25 22 -54q0 -25 -14.5 -40t-40.5 -15q-24 0 -55 23q-2 1 -13.5 10t-15 11.5t-15.5 9t-20 9t-21.5 5t-27.5 2.5q-83 0 -131.5 -63t-48.5 -160t48.5 -160t131.5 -63q14 0 27.5 2.5t21.5 5t20 9t15.5 9t15 11.5t13.5 10
q31 23 55 23q26 0 40.5 -15t14.5 -40q0 -29 -22 -54q-63 -73 -190 -79z" />
    <glyph glyph-name="Egrave" unicode="&#xc8;" horiz-adv-x="534" 
d="M190 118h253q30 0 48 -17t18 -42t-18 -42t-48 -17h-314q-28 0 -44.5 16.5t-16.5 44.5v536q0 28 16.5 44.5t44.5 16.5h308q30 0 48 -17t18 -42t-18 -42t-48 -17h-247v-144h142q29 0 47 -16.5t18 -41.5t-18 -41.5t-47 -16.5h-142v-162zM314 702q-21 0 -44 21l-105 99
q-26 24 -26 51q0 20 13 33.5t34 13.5t44 -21l105 -99q26 -24 26 -51q0 -20 -13 -33.5t-34 -13.5z" />
    <glyph glyph-name="Eacute" unicode="&#xc9;" horiz-adv-x="534" 
d="M190 118h253q30 0 48 -17t18 -42t-18 -42t-48 -17h-314q-28 0 -44.5 16.5t-16.5 44.5v536q0 28 16.5 44.5t44.5 16.5h308q30 0 48 -17t18 -42t-18 -42t-48 -17h-247v-144h142q29 0 47 -16.5t18 -41.5t-18 -41.5t-47 -16.5h-142v-162zM221 702q-21 0 -34 13.5t-13 33.5
q0 27 26 51l105 99q23 21 44 21t34 -13.5t13 -33.5q0 -27 -26 -51l-105 -99q-23 -21 -44 -21z" />
    <glyph glyph-name="Ecircumflex" unicode="&#xca;" horiz-adv-x="534" 
d="M190 118h253q30 0 48 -17t18 -42t-18 -42t-48 -17h-314q-28 0 -44.5 16.5t-16.5 44.5v536q0 28 16.5 44.5t44.5 16.5h308q30 0 48 -17t18 -42t-18 -42t-48 -17h-247v-144h142q29 0 47 -16.5t18 -41.5t-18 -41.5t-47 -16.5h-142v-162zM280 788l-80 -76q-23 -21 -44 -21
t-34 13.5t-13 33.5q0 27 26 51l109 103q17 17 36 17t36 -17l109 -103q26 -24 26 -51q0 -20 -13 -33.5t-34 -13.5t-44 21z" />
    <glyph glyph-name="Edieresis" unicode="&#xcb;" horiz-adv-x="534" 
d="M190 118h253q30 0 48 -17t18 -42t-18 -42t-48 -17h-314q-28 0 -44.5 16.5t-16.5 44.5v536q0 28 16.5 44.5t44.5 16.5h308q30 0 48 -17t18 -42t-18 -42t-48 -17h-247v-144h142q29 0 47 -16.5t18 -41.5t-18 -41.5t-47 -16.5h-142v-162zM179 708q-29 0 -49 20t-20 49t20 49
t49 20t49 -20t20 -49t-20 -49t-49 -20zM374 708q-28 0 -48.5 20t-20.5 49t20.5 49t48.5 20t48.5 -20t20.5 -49t-20.5 -49t-48.5 -20z" />
    <glyph glyph-name="Igrave" unicode="&#xcc;" horiz-adv-x="270" 
d="M135 -9q-26 0 -43.5 18.5t-17.5 49.5v540q0 31 17.5 49.5t43.5 18.5t43.5 -18.5t17.5 -49.5v-540q0 -31 -17.5 -49.5t-43.5 -18.5zM150 702q-21 0 -44 21l-105 99q-26 24 -26 51q0 20 13 33.5t34 13.5t44 -21l105 -99q26 -24 26 -51q0 -20 -13 -33.5t-34 -13.5z" />
    <glyph glyph-name="Iacute" unicode="&#xcd;" horiz-adv-x="270" 
d="M135 -9q-26 0 -43.5 18.5t-17.5 49.5v540q0 31 17.5 49.5t43.5 18.5t43.5 -18.5t17.5 -49.5v-540q0 -31 -17.5 -49.5t-43.5 -18.5zM120 702q-21 0 -34 13.5t-13 33.5q0 27 26 51l105 99q23 21 44 21t34 -13.5t13 -33.5q0 -27 -26 -51l-105 -99q-23 -21 -44 -21z" />
    <glyph glyph-name="Icircumflex" unicode="&#xce;" horiz-adv-x="270" 
d="M135 -9q-26 0 -43.5 18.5t-17.5 49.5v540q0 31 17.5 49.5t43.5 18.5t43.5 -18.5t17.5 -49.5v-540q0 -31 -17.5 -49.5t-43.5 -18.5zM135 788l-80 -76q-23 -21 -44 -21t-34 13.5t-13 33.5q0 27 26 51l109 103q17 17 36 17t36 -17l109 -103q26 -24 26 -51q0 -20 -13 -33.5
t-34 -13.5t-44 21z" />
    <glyph glyph-name="Idieresis" unicode="&#xcf;" horiz-adv-x="270" 
d="M135 -9q-26 0 -43.5 18.5t-17.5 49.5v540q0 31 17.5 49.5t43.5 18.5t43.5 -18.5t17.5 -49.5v-540q0 -31 -17.5 -49.5t-43.5 -18.5zM38 708q-28 0 -48.5 20t-20.5 49t20.5 49t48.5 20t48.5 -20t20.5 -49t-20.5 -49t-48.5 -20zM233 708q-29 0 -49 20t-20 49t20 49t49 20
t49 -20t20 -49t-20 -49t-49 -20z" />
    <glyph glyph-name="Eth" unicode="&#xd0;" horiz-adv-x="698" 
d="M261 280v-162h93q89 0 138.5 55t49.5 156t-49.5 156t-138.5 55h-93v-144h86q29 0 47 -16.5t18 -41.5t-18 -41.5t-47 -16.5h-86zM353 0h-153q-28 0 -44.5 16.5t-16.5 44.5v219h-44q-29 0 -47 16.5t-18 41.5t18 41.5t47 16.5h44v201q0 28 16.5 44.5t44.5 16.5h153
q144 0 228 -92t84 -237t-84 -237t-228 -92z" />
    <glyph glyph-name="Ntilde" unicode="&#xd1;" horiz-adv-x="662" 
d="M477 223q-5 97 -5 148v228q0 31 17.5 49.5t43.5 18.5t43.5 -18.5t17.5 -49.5v-544q0 -30 -15 -47t-43 -17q-25 0 -41.5 13.5t-37.5 42.5l-190 267q-51 71 -82 121q5 -97 5 -148v-228q0 -31 -17.5 -49.5t-43.5 -18.5t-43.5 18.5t-17.5 49.5v544q0 30 15 47t43 17
q25 0 41.5 -13.5t37.5 -42.5l190 -267q51 -71 82 -121zM396 705q-35 0 -71.5 22.5t-52.5 22.5q-18 0 -38.5 -22.5t-42.5 -22.5t-33.5 13t-11.5 34q0 38 36 67.5t84 29.5q35 0 71.5 -22.5t52.5 -22.5q18 0 38.5 22.5t42.5 22.5t33.5 -13t11.5 -34q0 -38 -36 -67.5t-84 -29.5z
" />
    <glyph glyph-name="Ograve" unicode="&#xd2;" horiz-adv-x="678" 
d="M339 106q81 0 129.5 63.5t48.5 159.5t-48.5 159.5t-129.5 63.5t-129.5 -63.5t-48.5 -159.5t48.5 -159.5t129.5 -63.5zM339 -12q-137 0 -219 98.5t-82 242.5t82 242.5t219 98.5t219 -98.5t82 -242.5t-82 -242.5t-219 -98.5zM372 702q-21 0 -44 21l-105 99q-26 24 -26 51
q0 20 13 33.5t34 13.5t44 -21l105 -99q26 -24 26 -51q0 -20 -13 -33.5t-34 -13.5z" />
    <glyph glyph-name="Oacute" unicode="&#xd3;" horiz-adv-x="678" 
d="M339 106q81 0 129.5 63.5t48.5 159.5t-48.5 159.5t-129.5 63.5t-129.5 -63.5t-48.5 -159.5t48.5 -159.5t129.5 -63.5zM339 -12q-137 0 -219 98.5t-82 242.5t82 242.5t219 98.5t219 -98.5t82 -242.5t-82 -242.5t-219 -98.5zM306 702q-21 0 -34 13.5t-13 33.5q0 27 26 51
l105 99q23 21 44 21t34 -13.5t13 -33.5q0 -27 -26 -51l-105 -99q-23 -21 -44 -21z" />
    <glyph glyph-name="Ocircumflex" unicode="&#xd4;" horiz-adv-x="678" 
d="M339 106q81 0 129.5 63.5t48.5 159.5t-48.5 159.5t-129.5 63.5t-129.5 -63.5t-48.5 -159.5t48.5 -159.5t129.5 -63.5zM339 -12q-137 0 -219 98.5t-82 242.5t82 242.5t219 98.5t219 -98.5t82 -242.5t-82 -242.5t-219 -98.5zM419 712l-80 76l-80 -76q-23 -21 -44 -21
t-34 13.5t-13 33.5q0 27 26 51l109 103q17 17 36 17t36 -17l109 -103q26 -24 26 -51q0 -20 -13 -33.5t-34 -13.5t-44 21z" />
    <glyph glyph-name="Otilde" unicode="&#xd5;" horiz-adv-x="678" 
d="M339 106q81 0 129.5 63.5t48.5 159.5t-48.5 159.5t-129.5 63.5t-129.5 -63.5t-48.5 -159.5t48.5 -159.5t129.5 -63.5zM339 -12q-137 0 -219 98.5t-82 242.5t82 242.5t219 98.5t219 -98.5t82 -242.5t-82 -242.5t-219 -98.5zM404 705q-35 0 -71.5 22.5t-52.5 22.5
q-18 0 -38.5 -22.5t-42.5 -22.5t-33.5 13t-11.5 34q0 38 36 67.5t84 29.5q35 0 71.5 -22.5t52.5 -22.5q18 0 38.5 22.5t42.5 22.5t33.5 -13t11.5 -34q0 -38 -36 -67.5t-84 -29.5z" />
    <glyph glyph-name="Odieresis" unicode="&#xd6;" horiz-adv-x="678" 
d="M339 106q81 0 129.5 63.5t48.5 159.5t-48.5 159.5t-129.5 63.5t-129.5 -63.5t-48.5 -159.5t48.5 -159.5t129.5 -63.5zM339 -12q-137 0 -219 98.5t-82 242.5t82 242.5t219 98.5t219 -98.5t82 -242.5t-82 -242.5t-219 -98.5zM242 708q-28 0 -48.5 20t-20.5 49t20.5 49
t48.5 20t48.5 -20t20.5 -49t-20.5 -49t-48.5 -20zM437 708q-29 0 -49 20t-20 49t20 49t49 20t49 -20t20 -49t-20 -49t-49 -20z" />
    <glyph glyph-name="multiply" unicode="&#xd7;" 
d="M300 202l-115 -115q-26 -26 -54 -26q-25 0 -40.5 16t-15.5 42q0 28 26 54l114 114l-114 114q-26 26 -26 54q0 26 15.5 42t40.5 16q28 0 54 -26l115 -115l115 115q26 26 54 26q25 0 40.5 -16t15.5 -42q0 -28 -26 -54l-114 -114l114 -114q26 -26 26 -54q0 -26 -15.5 -42
t-40.5 -16q-28 0 -54 26z" />
    <glyph glyph-name="Oslash" unicode="&#xd8;" horiz-adv-x="678" 
d="M339 106q81 0 129.5 63.5t48.5 159.5t-48.5 159.5t-129.5 63.5t-129.5 -63.5t-48.5 -159.5t48.5 -159.5t129.5 -63.5zM339 -12q-92 0 -159 46l-31 -40q-24 -31 -54 -31q-22 0 -35.5 14t-13.5 36q0 24 18 48l38 49q-64 91 -64 219q0 144 82 242.5t219 98.5q92 0 159 -46
l31 40q24 31 54 31q22 0 35.5 -14t13.5 -36q0 -24 -18 -48l-38 -49q64 -91 64 -219q0 -144 -82 -242.5t-219 -98.5z" />
    <glyph glyph-name="Ugrave" unicode="&#xd9;" horiz-adv-x="640" 
d="M320 -12q-121 0 -189 78.5t-68 206.5v326q0 31 17.5 49.5t43.5 18.5t43.5 -18.5t17.5 -49.5v-323q0 -170 135 -170t135 170v323q0 31 17.5 49.5t43.5 18.5t43.5 -18.5t17.5 -49.5v-326q0 -128 -68 -206.5t-189 -78.5zM343 702q-21 0 -44 21l-105 99q-26 24 -26 51
q0 20 13 33.5t34 13.5t44 -21l105 -99q26 -24 26 -51q0 -20 -13 -33.5t-34 -13.5z" />
    <glyph glyph-name="Uacute" unicode="&#xda;" horiz-adv-x="640" 
d="M320 -12q-121 0 -189 78.5t-68 206.5v326q0 31 17.5 49.5t43.5 18.5t43.5 -18.5t17.5 -49.5v-323q0 -170 135 -170t135 170v323q0 31 17.5 49.5t43.5 18.5t43.5 -18.5t17.5 -49.5v-326q0 -128 -68 -206.5t-189 -78.5zM298 702q-21 0 -34 13.5t-13 33.5q0 27 26 51l105 99
q23 21 44 21t34 -13.5t13 -33.5q0 -27 -26 -51l-105 -99q-23 -21 -44 -21z" />
    <glyph glyph-name="Ucircumflex" unicode="&#xdb;" horiz-adv-x="640" 
d="M320 -12q-121 0 -189 78.5t-68 206.5v326q0 31 17.5 49.5t43.5 18.5t43.5 -18.5t17.5 -49.5v-323q0 -170 135 -170t135 170v323q0 31 17.5 49.5t43.5 18.5t43.5 -18.5t17.5 -49.5v-326q0 -128 -68 -206.5t-189 -78.5zM319 788l-80 -76q-23 -21 -44 -21t-34 13.5t-13 33.5
q0 27 26 51l109 103q17 17 36 17t36 -17l109 -103q26 -24 26 -51q0 -20 -13 -33.5t-34 -13.5t-44 21z" />
    <glyph glyph-name="Udieresis" unicode="&#xdc;" horiz-adv-x="640" 
d="M320 -12q-121 0 -189 78.5t-68 206.5v326q0 31 17.5 49.5t43.5 18.5t43.5 -18.5t17.5 -49.5v-323q0 -170 135 -170t135 170v323q0 31 17.5 49.5t43.5 18.5t43.5 -18.5t17.5 -49.5v-326q0 -128 -68 -206.5t-189 -78.5zM223 708q-29 0 -49 20t-20 49t20 49t49 20t49 -20
t20 -49t-20 -49t-49 -20zM418 708q-28 0 -48.5 20t-20.5 49t20.5 49t48.5 20t48.5 -20t20.5 -49t-20.5 -49t-48.5 -20z" />
    <glyph glyph-name="Yacute" unicode="&#xdd;" horiz-adv-x="526" 
d="M263 371q51 104 81 160l40 76q17 31 32 44.5t39 13.5q26 0 41 -15.5t15 -41.5q0 -24 -19 -58l-168 -307v-184q0 -31 -17.5 -49.5t-43.5 -18.5t-43.5 18.5t-17.5 49.5v184l-168 307q-19 34 -19 58q0 26 15 41.5t41 15.5q24 0 39 -13.5t32 -44.5l40 -76q30 -56 81 -160z
M230 702q-21 0 -34 13.5t-13 33.5q0 27 26 51l105 99q23 21 44 21t34 -13.5t13 -33.5q0 -27 -26 -51l-105 -99q-23 -21 -44 -21z" />
    <glyph glyph-name="Thorn" unicode="&#xde;" horiz-adv-x="557" 
d="M190 424v-192h114q53 0 82.5 24.5t29.5 71.5t-29.5 71.5t-82.5 24.5h-114zM304 116h-114v-57q0 -31 -17.5 -49.5t-43.5 -18.5t-43.5 18.5t-17.5 49.5v540q0 31 17.5 49.5t43.5 18.5t43.5 -18.5t17.5 -49.5v-57h114q109 0 172 -58.5t63 -154.5t-63 -154.5t-172 -58.5z" />
    <glyph glyph-name="germandbls" unicode="&#xdf;" horiz-adv-x="559" 
d="M423 338q101 -41 101 -152q0 -89 -57 -143.5t-146 -54.5q-87 0 -87 57q0 26 17.5 41.5t50.5 15.5q46 0 74 24.5t28 65.5q0 42 -29 64.5t-74 22.5q-72 0 -72 57q0 25 17.5 41t50.5 16q39 0 62 21.5t23 60.5t-24.5 60t-66.5 21q-51 0 -80.5 -32t-29.5 -97v-370
q0 -30 -17 -48t-42 -18t-42 18t-17 48v367q0 117 56 181.5t169 64.5q101 0 157 -51t56 -135q0 -100 -78 -146z" />
    <glyph glyph-name="agrave" unicode="&#xe0;" horiz-adv-x="501" 
d="M308 188v10h-41q-27 0 -43 -1.5t-35 -6.5t-28.5 -17t-9.5 -31q0 -26 18 -39.5t47 -13.5q44 0 68 27.5t24 71.5zM333 49q-37 -61 -130 -61q-78 0 -124 41.5t-46 111.5q0 153 228 153h47v12q0 70 -78 70q-32 0 -60.5 -19.5t-50.5 -19.5q-25 0 -39.5 14.5t-14.5 36.5
q0 27 18.5 47t46.5 30.5t55.5 15.5t51.5 5q83 0 136 -44t53 -138v-147q0 -46 29 -69q26 -22 26 -50q0 -47 -56 -47q-61 0 -92 58zM292 542q-21 0 -44 21l-105 99q-26 24 -26 51q0 20 13 33.5t34 13.5t44 -21l105 -99q26 -24 26 -51q0 -20 -13 -33.5t-34 -13.5z" />
    <glyph glyph-name="aacute" unicode="&#xe1;" horiz-adv-x="501" 
d="M308 188v10h-41q-27 0 -43 -1.5t-35 -6.5t-28.5 -17t-9.5 -31q0 -26 18 -39.5t47 -13.5q44 0 68 27.5t24 71.5zM333 49q-37 -61 -130 -61q-78 0 -124 41.5t-46 111.5q0 153 228 153h47v12q0 70 -78 70q-32 0 -60.5 -19.5t-50.5 -19.5q-25 0 -39.5 14.5t-14.5 36.5
q0 27 18.5 47t46.5 30.5t55.5 15.5t51.5 5q83 0 136 -44t53 -138v-147q0 -46 29 -69q26 -22 26 -50q0 -47 -56 -47q-61 0 -92 58zM215 542q-21 0 -34 13.5t-13 33.5q0 27 26 51l105 99q23 21 44 21t34 -13.5t13 -33.5q0 -27 -26 -51l-105 -99q-23 -21 -44 -21z" />
    <glyph glyph-name="acircumflex" unicode="&#xe2;" horiz-adv-x="501" 
d="M308 188v10h-41q-27 0 -43 -1.5t-35 -6.5t-28.5 -17t-9.5 -31q0 -26 18 -39.5t47 -13.5q44 0 68 27.5t24 71.5zM333 49q-37 -61 -130 -61q-78 0 -124 41.5t-46 111.5q0 153 228 153h47v12q0 70 -78 70q-32 0 -60.5 -19.5t-50.5 -19.5q-25 0 -39.5 14.5t-14.5 36.5
q0 27 18.5 47t46.5 30.5t55.5 15.5t51.5 5q83 0 136 -44t53 -138v-147q0 -46 29 -69q26 -22 26 -50q0 -47 -56 -47q-61 0 -92 58zM322 552l-80 76l-80 -76q-23 -21 -44 -21t-34 13.5t-13 33.5q0 27 26 51l109 103q17 17 36 17t36 -17l109 -103q26 -24 26 -51
q0 -20 -13 -33.5t-34 -13.5t-44 21z" />
    <glyph glyph-name="atilde" unicode="&#xe3;" horiz-adv-x="501" 
d="M308 188v10h-41q-27 0 -43 -1.5t-35 -6.5t-28.5 -17t-9.5 -31q0 -26 18 -39.5t47 -13.5q44 0 68 27.5t24 71.5zM333 49q-37 -61 -130 -61q-78 0 -124 41.5t-46 111.5q0 153 228 153h47v12q0 70 -78 70q-32 0 -60.5 -19.5t-50.5 -19.5q-25 0 -39.5 14.5t-14.5 36.5
q0 27 18.5 47t46.5 30.5t55.5 15.5t51.5 5q83 0 136 -44t53 -138v-147q0 -46 29 -69q26 -22 26 -50q0 -47 -56 -47q-61 0 -92 58zM307 545q-35 0 -71.5 22.5t-52.5 22.5q-18 0 -38.5 -22.5t-42.5 -22.5t-33.5 13t-11.5 34q0 38 36 67.5t84 29.5q35 0 71.5 -22.5t52.5 -22.5
q18 0 38.5 22.5t42.5 22.5t33.5 -13t11.5 -34q0 -38 -36 -67.5t-84 -29.5z" />
    <glyph glyph-name="adieresis" unicode="&#xe4;" horiz-adv-x="501" 
d="M308 188v10h-41q-27 0 -43 -1.5t-35 -6.5t-28.5 -17t-9.5 -31q0 -26 18 -39.5t47 -13.5q44 0 68 27.5t24 71.5zM333 49q-37 -61 -130 -61q-78 0 -124 41.5t-46 111.5q0 153 228 153h47v12q0 70 -78 70q-32 0 -60.5 -19.5t-50.5 -19.5q-25 0 -39.5 14.5t-14.5 36.5
q0 27 18.5 47t46.5 30.5t55.5 15.5t51.5 5q83 0 136 -44t53 -138v-147q0 -46 29 -69q26 -22 26 -50q0 -47 -56 -47q-61 0 -92 58zM145 548q-29 0 -49 20t-20 49t20 49t49 20t49 -20t20 -49t-20 -49t-49 -20zM340 548q-28 0 -48.5 20t-20.5 49t20.5 49t48.5 20t48.5 -20
t20.5 -49t-20.5 -49t-48.5 -20z" />
    <glyph glyph-name="aring" unicode="&#xe5;" horiz-adv-x="501" 
d="M308 188v10h-41q-27 0 -43 -1.5t-35 -6.5t-28.5 -17t-9.5 -31q0 -26 18 -39.5t47 -13.5q44 0 68 27.5t24 71.5zM241 610q19 0 30.5 12.5t11.5 32.5t-11.5 32.5t-30.5 12.5t-30.5 -12.5t-11.5 -32.5t11.5 -32.5t30.5 -12.5zM333 49q-37 -61 -130 -61q-78 0 -124 41.5
t-46 111.5q0 153 228 153h47v12q0 70 -78 70q-32 0 -60.5 -19.5t-50.5 -19.5q-25 0 -39.5 14.5t-14.5 36.5q0 27 18.5 47t46.5 30.5t55.5 15.5t51.5 5q83 0 136 -44t53 -138v-147q0 -46 29 -69q26 -22 26 -50q0 -47 -56 -47q-61 0 -92 58zM241 540q-47 0 -81 34t-34 81
t34 81t81 34t81 -34t34 -81t-34 -81t-81 -34z" />
    <glyph glyph-name="ae" unicode="&#xe6;" horiz-adv-x="764" 
d="M308 184v10h-41q-27 0 -43 -1.5t-35 -6t-28.5 -16t-9.5 -30.5q0 -25 18 -38t47 -13q44 0 68 26t24 69zM432 290h180q-8 40 -31 65t-59 25t-59 -25t-31 -65zM360 73q-45 -85 -158 -85q-77 0 -123 41t-46 110q0 151 228 151h47v16q0 70 -78 70q-32 0 -60.5 -19.5
t-50.5 -19.5q-25 0 -39.5 14.5t-14.5 36.5q0 27 18.5 47t46.5 30.5t55.5 15.5t51.5 5q94 0 141 -69q49 69 145 69q98 0 154.5 -71.5t56.5 -159.5q0 -29 -16 -45t-45 -16h-243q5 -44 30.5 -70t72.5 -26q10 0 19.5 1.5t15.5 3t13.5 5.5t10.5 6t10 7t9 6q17 12 39 12
t35.5 -14.5t13.5 -36.5q0 -34 -32 -58t-68.5 -33t-69.5 -9q-54 0 -99.5 22t-69.5 63z" />
    <glyph glyph-name="ccedilla" unicode="&#xe7;" horiz-adv-x="458" 
d="M272 -12q-1 -2 -23 -29q15 3 31 3q43 0 67 -26.5t24 -68.5q0 -54 -35 -83t-86 -29q-43 0 -79 18t-36 52q0 17 10 27t26 10q13 0 33 -14.5t43 -14.5q43 0 43 34q0 32 -43 32q-9 0 -27 -2t-23 -2q-18 0 -28.5 10t-10.5 26t7 31l19 38q-71 24 -111 88.5t-40 148.5
q0 105 61.5 177t164.5 72q56 0 112.5 -27.5t56.5 -78.5q0 -24 -14.5 -38t-37.5 -14q-22 0 -47 17q-40 27 -70 27q-49 0 -78 -38.5t-29 -96.5t29 -96.5t78 -38.5q7 0 13.5 0.5t12.5 2.5t10 3.5t10 5t8 4.5t8.5 5.5t7.5 5.5q25 17 47 17q23 0 37.5 -14t14.5 -38
q0 -48 -50.5 -75t-105.5 -31z" />
    <glyph glyph-name="egrave" unicode="&#xe8;" horiz-adv-x="489" 
d="M157 287h180q-7 42 -30 67.5t-60 25.5t-60 -25.5t-30 -67.5zM398 191h-243q14 -93 103 -93q10 0 19.5 1.5t15.5 3t13.5 5.5t10.5 6t10 7t9 6q17 12 39 12t35.5 -14.5t13.5 -36.5q0 -34 -32 -58t-68.5 -33t-69.5 -9q-102 0 -161.5 72t-59.5 178q0 105 57.5 176.5
t156.5 71.5q100 0 156 -71.5t56 -162.5q0 -28 -16.5 -44.5t-44.5 -16.5zM282 542q-21 0 -44 21l-105 99q-26 24 -26 51q0 20 13 33.5t34 13.5t44 -21l105 -99q26 -24 26 -51q0 -20 -13 -33.5t-34 -13.5z" />
    <glyph glyph-name="eacute" unicode="&#xe9;" horiz-adv-x="489" 
d="M157 287h180q-7 42 -30 67.5t-60 25.5t-60 -25.5t-30 -67.5zM398 191h-243q14 -93 103 -93q10 0 19.5 1.5t15.5 3t13.5 5.5t10.5 6t10 7t9 6q17 12 39 12t35.5 -14.5t13.5 -36.5q0 -34 -32 -58t-68.5 -33t-69.5 -9q-102 0 -161.5 72t-59.5 178q0 105 57.5 176.5
t156.5 71.5q100 0 156 -71.5t56 -162.5q0 -28 -16.5 -44.5t-44.5 -16.5zM203 542q-21 0 -34 13.5t-13 33.5q0 27 26 51l105 99q23 21 44 21t34 -13.5t13 -33.5q0 -27 -26 -51l-105 -99q-23 -21 -44 -21z" />
    <glyph glyph-name="ecircumflex" unicode="&#xea;" horiz-adv-x="489" 
d="M157 287h180q-7 42 -30 67.5t-60 25.5t-60 -25.5t-30 -67.5zM398 191h-243q14 -93 103 -93q10 0 19.5 1.5t15.5 3t13.5 5.5t10.5 6t10 7t9 6q17 12 39 12t35.5 -14.5t13.5 -36.5q0 -34 -32 -58t-68.5 -33t-69.5 -9q-102 0 -161.5 72t-59.5 178q0 105 57.5 176.5
t156.5 71.5q100 0 156 -71.5t56 -162.5q0 -28 -16.5 -44.5t-44.5 -16.5zM327 552l-80 76l-80 -76q-23 -21 -44 -21t-34 13.5t-13 33.5q0 27 26 51l109 103q17 17 36 17t36 -17l109 -103q26 -24 26 -51q0 -20 -13 -33.5t-34 -13.5t-44 21z" />
    <glyph glyph-name="edieresis" unicode="&#xeb;" horiz-adv-x="489" 
d="M157 287h180q-7 42 -30 67.5t-60 25.5t-60 -25.5t-30 -67.5zM398 191h-243q14 -93 103 -93q10 0 19.5 1.5t15.5 3t13.5 5.5t10.5 6t10 7t9 6q17 12 39 12t35.5 -14.5t13.5 -36.5q0 -34 -32 -58t-68.5 -33t-69.5 -9q-102 0 -161.5 72t-59.5 178q0 105 57.5 176.5
t156.5 71.5q100 0 156 -71.5t56 -162.5q0 -28 -16.5 -44.5t-44.5 -16.5zM150 548q-28 0 -48.5 20t-20.5 49t20.5 49t48.5 20t48.5 -20t20.5 -49t-20.5 -49t-48.5 -20zM345 548q-29 0 -49 20t-20 49t20 49t49 20t49 -20t20 -49t-20 -49t-49 -20z" />
    <glyph glyph-name="igrave" unicode="&#xec;" horiz-adv-x="244" 
d="M137 542q-21 0 -44 21l-105 99q-26 24 -26 51q0 20 13 33.5t34 13.5t44 -21l105 -99q26 -24 26 -51q0 -20 -13 -33.5t-34 -13.5zM122 -9q-25 0 -42 18t-17 48v360q0 30 17 48t42 18t42 -18t17 -48v-360q0 -30 -17 -48t-42 -18z" />
    <glyph glyph-name="iacute" unicode="&#xed;" horiz-adv-x="244" 
d="M107 542q-21 0 -34 13.5t-13 33.5q0 27 26 51l105 99q23 21 44 21t34 -13.5t13 -33.5q0 -27 -26 -51l-105 -99q-23 -21 -44 -21zM122 -9q-25 0 -42 18t-17 48v360q0 30 17 48t42 18t42 -18t17 -48v-360q0 -30 -17 -48t-42 -18z" />
    <glyph glyph-name="icircumflex" unicode="&#xee;" horiz-adv-x="244" 
d="M122 -9q-25 0 -42 18t-17 48v360q0 30 17 48t42 18t42 -18t17 -48v-360q0 -30 -17 -48t-42 -18zM122 628l-80 -76q-23 -21 -44 -21t-34 13.5t-13 33.5q0 27 26 51l109 103q17 17 36 17t36 -17l109 -103q26 -24 26 -51q0 -20 -13 -33.5t-34 -13.5t-44 21z" />
    <glyph glyph-name="idieresis" unicode="&#xef;" horiz-adv-x="244" 
d="M25 548q-29 0 -49 20t-20 49t20 49t49 20t49 -20t20 -49t-20 -49t-49 -20zM220 548q-28 0 -48.5 20t-20.5 49t20.5 49t48.5 20t48.5 -20t20.5 -49t-20.5 -49t-48.5 -20zM122 -9q-25 0 -42 18t-17 48v360q0 30 17 48t42 18t42 -18t17 -48v-360q0 -30 -17 -48t-42 -18z" />
    <glyph glyph-name="eth" unicode="&#xf0;" horiz-adv-x="525" 
d="M259 102q49 0 78 33.5t29 83.5q0 51 -29 84.5t-78 33.5t-78 -33.5t-29 -84.5q0 -50 29 -83.5t78 -33.5zM261 -12q-105 0 -166.5 66.5t-61.5 163.5t61 165t158 68q48 0 80 -23q-12 20 -25.5 37t-24.5 27.5t-26.5 21.5t-22.5 15t-23 12.5t-19 9.5q-42 23 -42 62q0 24 16 39
t44 15q21 0 43.5 -10.5t34.5 -20t33 -28.5l57 32q19 11 40 11q22 0 36 -14.5t14 -36.5q0 -32 -37 -54l-37 -21q44 -61 68 -139t24 -150q0 -113 -60 -180.5t-164 -67.5z" />
    <glyph glyph-name="ntilde" unicode="&#xf1;" horiz-adv-x="528" 
d="M192 435q36 51 119 51q86 0 129.5 -58.5t43.5 -159.5v-211q0 -30 -17 -48t-42 -18t-42 18t-17 48v208q0 107 -77 107q-41 0 -68 -31t-27 -86v-198q0 -30 -17 -48t-42 -18t-42 18t-17 48v360q0 30 17 48t42 18q22 0 37 -13t20 -35zM339 545q-35 0 -71.5 22.5t-52.5 22.5
q-18 0 -38.5 -22.5t-42.5 -22.5t-33.5 13t-11.5 34q0 38 36 67.5t84 29.5q35 0 71.5 -22.5t52.5 -22.5q18 0 38.5 22.5t42.5 22.5t33.5 -13t11.5 -34q0 -38 -36 -67.5t-84 -29.5z" />
    <glyph glyph-name="ograve" unicode="&#xf2;" horiz-adv-x="518" 
d="M259 102q49 0 78 38.5t29 96.5t-29 96.5t-78 38.5t-78 -38.5t-29 -96.5t29 -96.5t78 -38.5zM259 -12q-103 0 -164.5 72t-61.5 177t61.5 177t164.5 72t164.5 -72t61.5 -177t-61.5 -177t-164.5 -72zM292 542q-21 0 -44 21l-105 99q-26 24 -26 51q0 20 13 33.5t34 13.5
t44 -21l105 -99q26 -24 26 -51q0 -20 -13 -33.5t-34 -13.5z" />
    <glyph glyph-name="oacute" unicode="&#xf3;" horiz-adv-x="518" 
d="M259 102q49 0 78 38.5t29 96.5t-29 96.5t-78 38.5t-78 -38.5t-29 -96.5t29 -96.5t78 -38.5zM259 -12q-103 0 -164.5 72t-61.5 177t61.5 177t164.5 72t164.5 -72t61.5 -177t-61.5 -177t-164.5 -72zM226 542q-21 0 -34 13.5t-13 33.5q0 27 26 51l105 99q23 21 44 21
t34 -13.5t13 -33.5q0 -27 -26 -51l-105 -99q-23 -21 -44 -21z" />
    <glyph glyph-name="ocircumflex" unicode="&#xf4;" horiz-adv-x="518" 
d="M259 102q49 0 78 38.5t29 96.5t-29 96.5t-78 38.5t-78 -38.5t-29 -96.5t29 -96.5t78 -38.5zM259 -12q-103 0 -164.5 72t-61.5 177t61.5 177t164.5 72t164.5 -72t61.5 -177t-61.5 -177t-164.5 -72zM339 552l-80 76l-80 -76q-23 -21 -44 -21t-34 13.5t-13 33.5q0 27 26 51
l109 103q17 17 36 17t36 -17l109 -103q26 -24 26 -51q0 -20 -13 -33.5t-34 -13.5t-44 21z" />
    <glyph glyph-name="otilde" unicode="&#xf5;" horiz-adv-x="518" 
d="M259 102q49 0 78 38.5t29 96.5t-29 96.5t-78 38.5t-78 -38.5t-29 -96.5t29 -96.5t78 -38.5zM259 -12q-103 0 -164.5 72t-61.5 177t61.5 177t164.5 72t164.5 -72t61.5 -177t-61.5 -177t-164.5 -72zM324 545q-35 0 -71.5 22.5t-52.5 22.5q-18 0 -38.5 -22.5t-42.5 -22.5
t-33.5 13t-11.5 34q0 38 36 67.5t84 29.5q35 0 71.5 -22.5t52.5 -22.5q18 0 38.5 22.5t42.5 22.5t33.5 -13t11.5 -34q0 -38 -36 -67.5t-84 -29.5z" />
    <glyph glyph-name="odieresis" unicode="&#xf6;" horiz-adv-x="518" 
d="M259 102q49 0 78 38.5t29 96.5t-29 96.5t-78 38.5t-78 -38.5t-29 -96.5t29 -96.5t78 -38.5zM259 -12q-103 0 -164.5 72t-61.5 177t61.5 177t164.5 72t164.5 -72t61.5 -177t-61.5 -177t-164.5 -72zM162 548q-28 0 -48.5 20t-20.5 49t20.5 49t48.5 20t48.5 -20t20.5 -49
t-20.5 -49t-48.5 -20zM357 548q-29 0 -49 20t-20 49t20 49t49 20t49 -20t20 -49t-20 -49t-49 -20z" />
    <glyph glyph-name="divide" unicode="&#xf7;" 
d="M300 406q-30 0 -51.5 21.5t-21.5 51.5t21.5 51.5t51.5 21.5t51.5 -21.5t21.5 -51.5t-21.5 -51.5t-51.5 -21.5zM480 228h-360q-30 0 -48 17t-18 42t18 42t48 17h360q30 0 48 -17t18 -42t-18 -42t-48 -17zM300 22q-30 0 -51.5 21.5t-21.5 51.5t21.5 51.5t51.5 21.5
t51.5 -21.5t21.5 -51.5t-21.5 -51.5t-51.5 -21.5z" />
    <glyph glyph-name="oslash" unicode="&#xf8;" horiz-adv-x="518" 
d="M259 102q49 0 78 38.5t29 96.5t-29 96.5t-78 38.5t-78 -38.5t-29 -96.5t29 -96.5t78 -38.5zM259 -12q-58 0 -108 26l-16 -20q-25 -31 -55 -31q-23 0 -38 14t-15 38t19 48l24 30q-37 63 -37 144q0 105 61.5 177t164.5 72q58 0 108 -26l16 20q25 31 55 31q23 0 38 -14
t15 -38t-19 -48l-24 -30q37 -63 37 -144q0 -105 -61.5 -177t-164.5 -72z" />
    <glyph glyph-name="ugrave" unicode="&#xf9;" horiz-adv-x="528" 
d="M349 39q-36 -51 -119 -51q-86 0 -129.5 58.5t-43.5 159.5v211q0 30 17 48t42 18t42 -18t17 -48v-208q0 -107 77 -107q41 0 68 31t27 86v198q0 30 17 48t42 18t42 -18t17 -48v-360q0 -30 -17 -48t-42 -18q-22 0 -37 13t-20 35zM271 542q-21 0 -44 21l-105 99
q-26 24 -26 51q0 20 13 33.5t34 13.5t44 -21l105 -99q26 -24 26 -51q0 -20 -13 -33.5t-34 -13.5z" />
    <glyph glyph-name="uacute" unicode="&#xfa;" horiz-adv-x="528" 
d="M349 39q-36 -51 -119 -51q-86 0 -129.5 58.5t-43.5 159.5v211q0 30 17 48t42 18t42 -18t17 -48v-208q0 -107 77 -107q41 0 68 31t27 86v198q0 30 17 48t42 18t42 -18t17 -48v-360q0 -30 -17 -48t-42 -18q-22 0 -37 13t-20 35zM251 542q-21 0 -34 13.5t-13 33.5
q0 27 26 51l105 99q23 21 44 21t34 -13.5t13 -33.5q0 -27 -26 -51l-105 -99q-23 -21 -44 -21z" />
    <glyph glyph-name="ucircumflex" unicode="&#xfb;" horiz-adv-x="528" 
d="M349 39q-36 -51 -119 -51q-86 0 -129.5 58.5t-43.5 159.5v211q0 30 17 48t42 18t42 -18t17 -48v-208q0 -107 77 -107q41 0 68 31t27 86v198q0 30 17 48t42 18t42 -18t17 -48v-360q0 -30 -17 -48t-42 -18q-22 0 -37 13t-20 35zM261 628l-80 -76q-23 -21 -44 -21t-34 13.5
t-13 33.5q0 27 26 51l109 103q17 17 36 17t36 -17l109 -103q26 -24 26 -51q0 -20 -13 -33.5t-34 -13.5t-44 21z" />
    <glyph glyph-name="udieresis" unicode="&#xfc;" horiz-adv-x="528" 
d="M349 39q-36 -51 -119 -51q-86 0 -129.5 58.5t-43.5 159.5v211q0 30 17 48t42 18t42 -18t17 -48v-208q0 -107 77 -107q41 0 68 31t27 86v198q0 30 17 48t42 18t42 -18t17 -48v-360q0 -30 -17 -48t-42 -18q-22 0 -37 13t-20 35zM164 548q-28 0 -48.5 20t-20.5 49t20.5 49
t48.5 20t48.5 -20t20.5 -49t-20.5 -49t-48.5 -20zM359 548q-29 0 -49 20t-20 49t20 49t49 20t49 -20t20 -49t-20 -49t-49 -20z" />
    <glyph glyph-name="yacute" unicode="&#xfd;" horiz-adv-x="446" 
d="M223 167q42 150 91 266q22 50 62 50q24 0 39.5 -14.5t15.5 -41.5q0 -19 -9 -41l-129 -321q-17 -41 -35.5 -77t-48 -79.5t-67 -69.5t-76.5 -26q-28 0 -44 14.5t-16 38.5q0 29 27 48q5 4 29 18t37 24.5t31 36t28 59.5l-134 334q-9 22 -9 41q0 27 15.5 41.5t39.5 14.5
q40 0 62 -50q49 -116 91 -266zM202 542q-21 0 -34 13.5t-13 33.5q0 27 26 51l105 99q23 21 44 21t34 -13.5t13 -33.5q0 -27 -26 -51l-105 -99q-23 -21 -44 -21z" />
    <glyph glyph-name="thorn" unicode="&#xfe;" horiz-adv-x="535" 
d="M280 102q47 0 75 37.5t28 97.5t-28 97.5t-75 37.5t-74.5 -38t-27.5 -97t27.5 -97t74.5 -38zM181 36v-157q0 -30 -17 -48t-42 -18t-42 18t-17 48v722q0 30 17 48t42 18t42 -18t17 -48v-163q37 48 118 48q93 0 149 -70.5t56 -178.5t-56.5 -178.5t-148.5 -70.5
q-81 0 -118 48z" />
    <glyph glyph-name="ydieresis" unicode="&#xff;" horiz-adv-x="446" 
d="M223 167q42 150 91 266q22 50 62 50q24 0 39.5 -14.5t15.5 -41.5q0 -19 -9 -41l-129 -321q-17 -41 -35.5 -77t-48 -79.5t-67 -69.5t-76.5 -26q-28 0 -44 14.5t-16 38.5q0 29 27 48q5 4 29 18t37 24.5t31 36t28 59.5l-134 334q-9 22 -9 41q0 27 15.5 41.5t39.5 14.5
q40 0 62 -50q49 -116 91 -266zM126 548q-28 0 -48.5 20t-20.5 49t20.5 49t48.5 20t48.5 -20t20.5 -49t-20.5 -49t-48.5 -20zM321 548q-29 0 -49 20t-20 49t20 49t49 20t49 -20t20 -49t-20 -49t-49 -20z" />
    <glyph glyph-name="Amacron" unicode="&#x100;" horiz-adv-x="582" 
d="M214 245h153q-69 191 -76 215q-24 -73 -77 -215zM445 47l-33 82h-243l-32 -82q-22 -56 -65 -56q-27 0 -42 17t-15 44q0 18 16 59l198 504q21 52 62 52t62 -52l198 -504q16 -41 16 -59q0 -27 -15 -44t-42 -17q-43 0 -65 56zM404 727h-226q-26 0 -41 14t-15 36t15 36t41 14
h226q26 0 41 -14t15 -36t-15 -36t-41 -14z" />
    <glyph glyph-name="amacron" unicode="&#x101;" horiz-adv-x="501" 
d="M308 188v10h-41q-27 0 -43 -1.5t-35 -6.5t-28.5 -17t-9.5 -31q0 -26 18 -39.5t47 -13.5q44 0 68 27.5t24 71.5zM333 49q-37 -61 -130 -61q-78 0 -124 41.5t-46 111.5q0 153 228 153h47v12q0 70 -78 70q-32 0 -60.5 -19.5t-50.5 -19.5q-25 0 -39.5 14.5t-14.5 36.5
q0 27 18.5 47t46.5 30.5t55.5 15.5t51.5 5q83 0 136 -44t53 -138v-147q0 -46 29 -69q26 -22 26 -50q0 -47 -56 -47q-61 0 -92 58zM361 567h-226q-26 0 -41 14t-15 36t15 36t41 14h226q26 0 41 -14t15 -36t-15 -36t-41 -14z" />
    <glyph glyph-name="Abreve" unicode="&#x102;" horiz-adv-x="582" 
d="M214 245h153q-69 191 -76 215q-24 -73 -77 -215zM445 47l-33 82h-243l-32 -82q-22 -56 -65 -56q-27 0 -42 17t-15 44q0 18 16 59l198 504q21 52 62 52t62 -52l198 -504q16 -41 16 -59q0 -27 -15 -44t-42 -17q-43 0 -65 56zM291 700q-66 0 -116.5 44.5t-50.5 98.5
q0 27 13 40.5t34 13.5q28 0 43 -24q5 -7 13.5 -23.5t14 -25t18.5 -16.5t31 -8t31 8t18.5 16.5t14 25t13.5 23.5q15 24 43 24q21 0 34 -13.5t13 -40.5q0 -54 -50.5 -98.5t-116.5 -44.5z" />
    <glyph glyph-name="abreve" unicode="&#x103;" horiz-adv-x="501" 
d="M308 188v10h-41q-27 0 -43 -1.5t-35 -6.5t-28.5 -17t-9.5 -31q0 -26 18 -39.5t47 -13.5q44 0 68 27.5t24 71.5zM333 49q-37 -61 -130 -61q-78 0 -124 41.5t-46 111.5q0 153 228 153h47v12q0 70 -78 70q-32 0 -60.5 -19.5t-50.5 -19.5q-25 0 -39.5 14.5t-14.5 36.5
q0 27 18.5 47t46.5 30.5t55.5 15.5t51.5 5q83 0 136 -44t53 -138v-147q0 -46 29 -69q26 -22 26 -50q0 -47 -56 -47q-61 0 -92 58zM244 540q-66 0 -116.5 44.5t-50.5 98.5q0 27 13 40.5t34 13.5q28 0 43 -24q5 -7 13.5 -23.5t14 -25t18.5 -16.5t31 -8t31 8t18.5 16.5t14 25
t13.5 23.5q15 24 43 24q21 0 34 -13.5t13 -40.5q0 -54 -50.5 -98.5t-116.5 -44.5z" />
    <glyph glyph-name="Aogonek" unicode="&#x104;" horiz-adv-x="582" 
d="M214 245h153q-69 191 -76 215q-24 -73 -77 -215zM448 41l-36 88h-243l-32 -82q-22 -56 -65 -56q-27 0 -42 17t-15 44q0 18 16 59l198 504q21 52 62 52t62 -52l198 -504q16 -41 16 -59q0 -26 -15 -44.5t-32.5 -28.5t-32.5 -31.5t-15 -51.5q0 -56 44 -56q18 0 37 14t34 14
q17 0 28 -11t11 -29q0 -31 -34 -52t-80 -21q-59 0 -94 36.5t-35 95.5q0 44 18 85.5t47 68.5z" />
    <glyph glyph-name="aogonek" unicode="&#x105;" horiz-adv-x="501" 
d="M308 188v10h-41q-27 0 -43 -1.5t-35 -6.5t-28.5 -17t-9.5 -31q0 -26 18 -39.5t47 -13.5q44 0 68 27.5t24 71.5zM333 49q-37 -61 -130 -61q-78 0 -124 41.5t-46 111.5q0 153 228 153h47v12q0 70 -78 70q-32 0 -60.5 -19.5t-50.5 -19.5q-25 0 -39.5 14.5t-14.5 36.5
q0 27 18.5 47t46.5 30.5t55.5 15.5t51.5 5q83 0 136 -44t53 -138v-147q0 -46 29 -69q26 -22 26 -50q0 -29 -39 -56q-16 -11 -25 -19.5t-17.5 -26.5t-8.5 -41q0 -55 44 -55q17 0 37 14t34 14q18 0 28.5 -11t10.5 -29q0 -31 -34 -52t-80 -21q-59 0 -94 36.5t-35 95.5
q0 77 49 137q-11 11 -18 25z" />
    <glyph glyph-name="Cacute" unicode="&#x106;" horiz-adv-x="596" 
d="M341 -12q-139 0 -221 98.5t-82 242.5t82 242.5t221 98.5q66 0 118.5 -22t82.5 -57q22 -25 22 -54q0 -25 -14.5 -40t-40.5 -15q-24 0 -55 23q-2 1 -13.5 10t-15 11.5t-15.5 9t-20 9t-21.5 5t-27.5 2.5q-83 0 -131.5 -63t-48.5 -160t48.5 -160t131.5 -63q14 0 27.5 2.5
t21.5 5t20 9t15.5 9t15 11.5t13.5 10q31 23 55 23q26 0 40.5 -15t14.5 -40q0 -29 -22 -54q-30 -35 -82.5 -57t-118.5 -22zM299 702q-21 0 -34 13.5t-13 33.5q0 27 26 51l105 99q23 21 44 21t34 -13.5t13 -33.5q0 -27 -26 -51l-105 -99q-23 -21 -44 -21z" />
    <glyph glyph-name="cacute" unicode="&#x107;" horiz-adv-x="458" 
d="M259 -12q-103 0 -164.5 72t-61.5 177t61.5 177t164.5 72q56 0 112.5 -27.5t56.5 -78.5q0 -24 -14.5 -38t-37.5 -14q-22 0 -47 17q-40 27 -70 27q-49 0 -78 -38.5t-29 -96.5t29 -96.5t78 -38.5q7 0 13.5 0.5t12.5 2.5t10 3.5t10 5t8 4.5t8.5 5.5t7.5 5.5q25 17 47 17
q23 0 37.5 -14t14.5 -38q0 -51 -56.5 -78.5t-112.5 -27.5zM205 542q-21 0 -34 13.5t-13 33.5q0 27 26 51l105 99q23 21 44 21t34 -13.5t13 -33.5q0 -27 -26 -51l-105 -99q-23 -21 -44 -21z" />
    <glyph glyph-name="Ccircumflex" unicode="&#x108;" horiz-adv-x="596" 
d="M341 -12q-139 0 -221 98.5t-82 242.5t82 242.5t221 98.5q66 0 118.5 -22t82.5 -57q22 -25 22 -54q0 -25 -14.5 -40t-40.5 -15q-24 0 -55 23q-2 1 -13.5 10t-15 11.5t-15.5 9t-20 9t-21.5 5t-27.5 2.5q-83 0 -131.5 -63t-48.5 -160t48.5 -160t131.5 -63q14 0 27.5 2.5
t21.5 5t20 9t15.5 9t15 11.5t13.5 10q31 23 55 23q26 0 40.5 -15t14.5 -40q0 -29 -22 -54q-30 -35 -82.5 -57t-118.5 -22zM330 788l-80 -76q-23 -21 -44 -21t-34 13.5t-13 33.5q0 27 26 51l109 103q17 17 36 17t36 -17l109 -103q26 -24 26 -51q0 -20 -13 -33.5t-34 -13.5
t-44 21z" />
    <glyph glyph-name="ccircumflex" unicode="&#x109;" horiz-adv-x="458" 
d="M259 -12q-103 0 -164.5 72t-61.5 177t61.5 177t164.5 72q56 0 112.5 -27.5t56.5 -78.5q0 -24 -14.5 -38t-37.5 -14q-22 0 -47 17q-40 27 -70 27q-49 0 -78 -38.5t-29 -96.5t29 -96.5t78 -38.5q7 0 13.5 0.5t12.5 2.5t10 3.5t10 5t8 4.5t8.5 5.5t7.5 5.5q25 17 47 17
q23 0 37.5 -14t14.5 -38q0 -51 -56.5 -78.5t-112.5 -27.5zM249 628l-80 -76q-23 -21 -44 -21t-34 13.5t-13 33.5q0 27 26 51l109 103q17 17 36 17t36 -17l109 -103q26 -24 26 -51q0 -20 -13 -33.5t-34 -13.5t-44 21z" />
    <glyph glyph-name="Cdotaccent" unicode="&#x10a;" horiz-adv-x="596" 
d="M341 -12q-139 0 -221 98.5t-82 242.5t82 242.5t221 98.5q66 0 118.5 -22t82.5 -57q22 -25 22 -54q0 -25 -14.5 -40t-40.5 -15q-24 0 -55 23q-2 1 -13.5 10t-15 11.5t-15.5 9t-20 9t-21.5 5t-27.5 2.5q-83 0 -131.5 -63t-48.5 -160t48.5 -160t131.5 -63q14 0 27.5 2.5
t21.5 5t20 9t15.5 9t15 11.5t13.5 10q31 23 55 23q26 0 40.5 -15t14.5 -40q0 -29 -22 -54q-30 -35 -82.5 -57t-118.5 -22zM332 708q-28 0 -48.5 20t-20.5 49t20.5 49t48.5 20t48.5 -20t20.5 -49t-20.5 -49t-48.5 -20z" />
    <glyph glyph-name="cdotaccent" unicode="&#x10b;" horiz-adv-x="458" 
d="M259 -12q-103 0 -164.5 72t-61.5 177t61.5 177t164.5 72q56 0 112.5 -27.5t56.5 -78.5q0 -24 -14.5 -38t-37.5 -14q-22 0 -47 17q-40 27 -70 27q-49 0 -78 -38.5t-29 -96.5t29 -96.5t78 -38.5q7 0 13.5 0.5t12.5 2.5t10 3.5t10 5t8 4.5t8.5 5.5t7.5 5.5q25 17 47 17
q23 0 37.5 -14t14.5 -38q0 -51 -56.5 -78.5t-112.5 -27.5zM253 548q-29 0 -49 20t-20 49t20 49t49 20t49 -20t20 -49t-20 -49t-49 -20z" />
    <glyph glyph-name="Ccaron" unicode="&#x10c;" horiz-adv-x="596" 
d="M341 -12q-139 0 -221 98.5t-82 242.5t82 242.5t221 98.5q66 0 118.5 -22t82.5 -57q22 -25 22 -54q0 -25 -14.5 -40t-40.5 -15q-24 0 -55 23q-2 1 -13.5 10t-15 11.5t-15.5 9t-20 9t-21.5 5t-27.5 2.5q-83 0 -131.5 -63t-48.5 -160t48.5 -160t131.5 -63q14 0 27.5 2.5
t21.5 5t20 9t15.5 9t15 11.5t13.5 10q31 23 55 23q26 0 40.5 -15t14.5 -40q0 -29 -22 -54q-30 -35 -82.5 -57t-118.5 -22zM330 812l80 76q23 21 44 21t34 -13.5t13 -33.5q0 -27 -26 -51l-109 -103q-17 -17 -36 -17t-36 17l-109 103q-26 24 -26 51q0 20 13 33.5t34 13.5
t44 -21z" />
    <glyph glyph-name="ccaron" unicode="&#x10d;" horiz-adv-x="458" 
d="M259 -12q-103 0 -164.5 72t-61.5 177t61.5 177t164.5 72q56 0 112.5 -27.5t56.5 -78.5q0 -24 -14.5 -38t-37.5 -14q-22 0 -47 17q-40 27 -70 27q-49 0 -78 -38.5t-29 -96.5t29 -96.5t78 -38.5q7 0 13.5 0.5t12.5 2.5t10 3.5t10 5t8 4.5t8.5 5.5t7.5 5.5q25 17 47 17
q23 0 37.5 -14t14.5 -38q0 -51 -56.5 -78.5t-112.5 -27.5zM254 652l80 76q23 21 44 21t34 -13.5t13 -33.5q0 -27 -26 -51l-109 -103q-17 -17 -36 -17t-36 17l-109 103q-26 24 -26 51q0 20 13 33.5t34 13.5t44 -21z" />
    <glyph glyph-name="Dcaron" unicode="&#x10e;" horiz-adv-x="627" 
d="M190 540v-422h93q89 0 138.5 55t49.5 156t-49.5 156t-138.5 55h-93zM282 0h-153q-28 0 -44.5 16.5t-16.5 44.5v536q0 28 16.5 44.5t44.5 16.5h153q144 0 228 -92t84 -237t-84 -237t-228 -92zM212 888l80 -76l80 76q23 21 44 21t34 -13.5t13 -33.5q0 -27 -26 -51
l-109 -103q-17 -17 -36 -17t-36 17l-109 103q-26 24 -26 51q0 20 13 33.5t34 13.5t44 -21z" />
    <glyph glyph-name="dcaron" unicode="&#x10f;" horiz-adv-x="657" 
d="M257 102q47 0 74.5 38t27.5 97t-27.5 97t-74.5 38t-75 -37.5t-28 -97.5t28 -97.5t75 -37.5zM358 39q-38 -51 -121 -51q-91 0 -147.5 71t-56.5 178q0 108 56 178.5t149 70.5q81 0 118 -48v163q0 30 17 48t42 18t42 -18t17 -48v-544q0 -29 -17 -47.5t-42 -18.5
q-22 0 -37 13t-20 35zM576 433q-24 0 -39 15.5t-15 42.5q0 19 14 68l11 39q10 33 24.5 51t41.5 18q24 0 39 -15.5t15 -42.5q0 -19 -14 -68l-11 -39q-10 -33 -24.5 -51t-41.5 -18z" />
    <glyph glyph-name="Dcroat" unicode="&#x110;" horiz-adv-x="698" 
d="M261 280v-162h93q89 0 138.5 55t49.5 156t-49.5 156t-138.5 55h-93v-144h86q29 0 47 -16.5t18 -41.5t-18 -41.5t-47 -16.5h-86zM353 0h-153q-28 0 -44.5 16.5t-16.5 44.5v219h-44q-29 0 -47 16.5t-18 41.5t18 41.5t47 16.5h44v201q0 28 16.5 44.5t44.5 16.5h153
q144 0 228 -92t84 -237t-84 -237t-228 -92z" />
    <glyph glyph-name="dcroat" unicode="&#x111;" horiz-adv-x="537" 
d="M257 102q47 0 74.5 38t27.5 97t-27.5 97t-74.5 38t-75 -37.5t-28 -97.5t28 -97.5t75 -37.5zM358 39q-38 -51 -121 -51q-91 0 -147.5 71t-56.5 178q0 108 56 178.5t149 70.5q81 0 118 -48v75h-100q-23 0 -36 12.5t-13 31.5t13 31.5t36 12.5h100q0 30 17 48t42 18t42 -18
t17 -48h23q23 0 36 -12.5t13 -31.5t-13 -31.5t-36 -12.5h-23v-456q0 -29 -17 -47.5t-42 -18.5q-22 0 -37 13t-20 35z" />
    <glyph glyph-name="Emacron" unicode="&#x112;" horiz-adv-x="534" 
d="M190 118h253q30 0 48 -17t18 -42t-18 -42t-48 -17h-314q-28 0 -44.5 16.5t-16.5 44.5v536q0 28 16.5 44.5t44.5 16.5h308q30 0 48 -17t18 -42t-18 -42t-48 -17h-247v-144h142q29 0 47 -16.5t18 -41.5t-18 -41.5t-47 -16.5h-142v-162zM395 727h-226q-26 0 -41 14t-15 36
t15 36t41 14h226q26 0 41 -14t15 -36t-15 -36t-41 -14z" />
    <glyph glyph-name="emacron" unicode="&#x113;" horiz-adv-x="489" 
d="M157 287h180q-7 42 -30 67.5t-60 25.5t-60 -25.5t-30 -67.5zM398 191h-243q14 -93 103 -93q10 0 19.5 1.5t15.5 3t13.5 5.5t10.5 6t10 7t9 6q17 12 39 12t35.5 -14.5t13.5 -36.5q0 -34 -32 -58t-68.5 -33t-69.5 -9q-102 0 -161.5 72t-59.5 178q0 105 57.5 176.5
t156.5 71.5q100 0 156 -71.5t56 -162.5q0 -28 -16.5 -44.5t-44.5 -16.5zM361 567h-226q-26 0 -41 14t-15 36t15 36t41 14h226q26 0 41 -14t15 -36t-15 -36t-41 -14z" />
    <glyph glyph-name="Ebreve" unicode="&#x114;" horiz-adv-x="534" 
d="M190 118h253q30 0 48 -17t18 -42t-18 -42t-48 -17h-314q-28 0 -44.5 16.5t-16.5 44.5v536q0 28 16.5 44.5t44.5 16.5h308q30 0 48 -17t18 -42t-18 -42t-48 -17h-247v-144h142q29 0 47 -16.5t18 -41.5t-18 -41.5t-47 -16.5h-142v-162zM287 700q-66 0 -116.5 44.5
t-50.5 98.5q0 27 13 40.5t34 13.5q28 0 43 -24q5 -7 13.5 -23.5t14 -25t18.5 -16.5t31 -8t31 8t18.5 16.5t14 25t13.5 23.5q15 24 43 24q21 0 34 -13.5t13 -40.5q0 -54 -50.5 -98.5t-116.5 -44.5z" />
    <glyph glyph-name="ebreve" unicode="&#x115;" horiz-adv-x="489" 
d="M157 287h180q-7 42 -30 67.5t-60 25.5t-60 -25.5t-30 -67.5zM398 191h-243q14 -93 103 -93q10 0 19.5 1.5t15.5 3t13.5 5.5t10.5 6t10 7t9 6q17 12 39 12t35.5 -14.5t13.5 -36.5q0 -34 -32 -58t-68.5 -33t-69.5 -9q-102 0 -161.5 72t-59.5 178q0 105 57.5 176.5
t156.5 71.5q100 0 156 -71.5t56 -162.5q0 -28 -16.5 -44.5t-44.5 -16.5zM247 540q-66 0 -116.5 44.5t-50.5 98.5q0 27 13 40.5t34 13.5q28 0 43 -24q5 -7 13.5 -23.5t14 -25t18.5 -16.5t31 -8t31 8t18.5 16.5t14 25t13.5 23.5q15 24 43 24q21 0 34 -13.5t13 -40.5
q0 -54 -50.5 -98.5t-116.5 -44.5z" />
    <glyph glyph-name="Edotaccent" unicode="&#x116;" horiz-adv-x="534" 
d="M190 118h253q30 0 48 -17t18 -42t-18 -42t-48 -17h-314q-28 0 -44.5 16.5t-16.5 44.5v536q0 28 16.5 44.5t44.5 16.5h308q30 0 48 -17t18 -42t-18 -42t-48 -17h-247v-144h142q29 0 47 -16.5t18 -41.5t-18 -41.5t-47 -16.5h-142v-162zM287 708q-29 0 -49 20t-20 49t20 49
t49 20t49 -20t20 -49t-20 -49t-49 -20z" />
    <glyph glyph-name="edotaccent" unicode="&#x117;" horiz-adv-x="489" 
d="M157 287h180q-7 42 -30 67.5t-60 25.5t-60 -25.5t-30 -67.5zM398 191h-243q14 -93 103 -93q10 0 19.5 1.5t15.5 3t13.5 5.5t10.5 6t10 7t9 6q17 12 39 12t35.5 -14.5t13.5 -36.5q0 -34 -32 -58t-68.5 -33t-69.5 -9q-102 0 -161.5 72t-59.5 178q0 105 57.5 176.5
t156.5 71.5q100 0 156 -71.5t56 -162.5q0 -28 -16.5 -44.5t-44.5 -16.5zM249 548q-29 0 -49 20t-20 49t20 49t49 20t49 -20t20 -49t-20 -49t-49 -20z" />
    <glyph glyph-name="Eogonek" unicode="&#x118;" horiz-adv-x="534" 
d="M341 0h-212q-28 0 -44.5 16.5t-16.5 44.5v536q0 28 16.5 44.5t44.5 16.5h308q30 0 48 -17t18 -42t-18 -42t-48 -17h-247v-144h142q29 0 47 -16.5t18 -41.5t-18 -41.5t-47 -16.5h-142v-162h253q30 0 48 -17t18 -42q0 -24 -18.5 -42.5t-40 -29.5t-40 -35t-18.5 -57
q0 -55 44 -55q18 0 37 14t34 14q17 0 28 -11t11 -29q0 -31 -34 -52t-80 -21q-60 0 -94.5 36.5t-34.5 96.5q0 65 38 112z" />
    <glyph glyph-name="eogonek" unicode="&#x119;" horiz-adv-x="489" 
d="M157 287h180q-7 42 -30 67.5t-60 25.5t-60 -25.5t-30 -67.5zM398 191h-243q14 -93 103 -93q10 0 19.5 1.5t15.5 3t13.5 5.5t10.5 6t10 7t9 6q17 12 39 12t35.5 -14.5t13.5 -36.5q0 -21 -13.5 -39.5t-33 -33t-39 -30.5t-33 -39.5t-13.5 -51.5q0 -54 44 -54q18 0 37.5 14
t33.5 14q17 0 28 -11t11 -29q0 -31 -34 -52t-80 -21q-59 0 -94 36.5t-35 95.5q0 54 26 103q-91 9 -143.5 79t-52.5 169q0 105 57.5 176.5t156.5 71.5q100 0 156 -71.5t56 -162.5q0 -28 -16.5 -44.5t-44.5 -16.5z" />
    <glyph glyph-name="Ecaron" unicode="&#x11a;" horiz-adv-x="534" 
d="M190 118h253q30 0 48 -17t18 -42t-18 -42t-48 -17h-314q-28 0 -44.5 16.5t-16.5 44.5v536q0 28 16.5 44.5t44.5 16.5h308q30 0 48 -17t18 -42t-18 -42t-48 -17h-247v-144h142q29 0 47 -16.5t18 -41.5t-18 -41.5t-47 -16.5h-142v-162zM276 812l80 76q23 21 44 21t34 -13.5
t13 -33.5q0 -27 -26 -51l-109 -103q-17 -17 -36 -17t-36 17l-109 103q-26 24 -26 51q0 20 13 33.5t34 13.5t44 -21z" />
    <glyph glyph-name="ecaron" unicode="&#x11b;" horiz-adv-x="489" 
d="M157 287h180q-7 42 -30 67.5t-60 25.5t-60 -25.5t-30 -67.5zM398 191h-243q14 -93 103 -93q10 0 19.5 1.5t15.5 3t13.5 5.5t10.5 6t10 7t9 6q17 12 39 12t35.5 -14.5t13.5 -36.5q0 -34 -32 -58t-68.5 -33t-69.5 -9q-102 0 -161.5 72t-59.5 178q0 105 57.5 176.5
t156.5 71.5q100 0 156 -71.5t56 -162.5q0 -28 -16.5 -44.5t-44.5 -16.5zM168 728l80 -76l80 76q23 21 44 21t34 -13.5t13 -33.5q0 -27 -26 -51l-109 -103q-17 -17 -36 -17t-36 17l-109 103q-26 24 -26 51q0 20 13 33.5t34 13.5t44 -21z" />
    <glyph glyph-name="Gcircumflex" unicode="&#x11c;" horiz-adv-x="655" 
d="M485 250h-102q-29 0 -47 16.5t-18 41.5t18 41.5t47 16.5h163q28 0 44.5 -16.5t16.5 -44.5v-58q0 -108 -68.5 -183.5t-194.5 -75.5q-143 0 -224.5 98t-81.5 243q0 144 82 242.5t221 98.5q66 0 118.5 -22t82.5 -57q22 -25 22 -54q0 -25 -14.5 -40t-40.5 -15q-24 0 -55 23
q-2 1 -13.5 10t-15 11.5t-15.5 9t-20 9t-21.5 5t-27.5 2.5q-83 0 -131.5 -63t-48.5 -160t48.5 -160t131.5 -63q65 0 104.5 36.5t39.5 85.5v22zM329 788l-80 -76q-23 -21 -44 -21t-34 13.5t-13 33.5q0 27 26 51l109 103q17 17 36 17t36 -17l109 -103q26 -24 26 -51
q0 -20 -13 -33.5t-34 -13.5t-44 21z" />
    <glyph glyph-name="gcircumflex" unicode="&#x11d;" horiz-adv-x="535" 
d="M255 120q47 0 74.5 35.5t27.5 90.5t-27.5 90.5t-74.5 35.5q-46 0 -73.5 -35.5t-27.5 -90.5t27.5 -90.5t73.5 -35.5zM355 46v9q-39 -48 -120 -48q-90 0 -146 68t-56 171t56 171.5t146 68.5q84 0 121 -51q5 22 20 35t37 13q25 0 42 -18t17 -48v-382q0 -102 -55.5 -163.5
t-157.5 -61.5q-24 0 -53 5t-59.5 15.5t-50.5 31t-20 47.5q0 23 14 36.5t36 13.5t45 -14q2 -1 8 -5t9.5 -5.5t9.5 -4.5t11 -5t12.5 -3.5t15 -2.5t16.5 -1q102 0 102 128zM347 552l-80 76l-80 -76q-23 -21 -44 -21t-34 13.5t-13 33.5q0 27 26 51l109 103q17 17 36 17t36 -17
l109 -103q26 -24 26 -51q0 -20 -13 -33.5t-34 -13.5t-44 21z" />
    <glyph glyph-name="Gbreve" unicode="&#x11e;" horiz-adv-x="655" 
d="M485 250h-102q-29 0 -47 16.5t-18 41.5t18 41.5t47 16.5h163q28 0 44.5 -16.5t16.5 -44.5v-58q0 -108 -68.5 -183.5t-194.5 -75.5q-143 0 -224.5 98t-81.5 243q0 144 82 242.5t221 98.5q66 0 118.5 -22t82.5 -57q22 -25 22 -54q0 -25 -14.5 -40t-40.5 -15q-24 0 -55 23
q-2 1 -13.5 10t-15 11.5t-15.5 9t-20 9t-21.5 5t-27.5 2.5q-83 0 -131.5 -63t-48.5 -160t48.5 -160t131.5 -63q65 0 104.5 36.5t39.5 85.5v22zM325 700q-66 0 -116.5 44.5t-50.5 98.5q0 27 13 40.5t34 13.5q28 0 43 -24q5 -7 13.5 -23.5t14 -25t18.5 -16.5t31 -8t31 8
t18.5 16.5t14 25t13.5 23.5q15 24 43 24q21 0 34 -13.5t13 -40.5q0 -54 -50.5 -98.5t-116.5 -44.5z" />
    <glyph glyph-name="gbreve" unicode="&#x11f;" horiz-adv-x="535" 
d="M255 120q47 0 74.5 35.5t27.5 90.5t-27.5 90.5t-74.5 35.5q-46 0 -73.5 -35.5t-27.5 -90.5t27.5 -90.5t73.5 -35.5zM355 46v9q-39 -48 -120 -48q-90 0 -146 68t-56 171t56 171.5t146 68.5q84 0 121 -51q5 22 20 35t37 13q25 0 42 -18t17 -48v-382q0 -102 -55.5 -163.5
t-157.5 -61.5q-24 0 -53 5t-59.5 15.5t-50.5 31t-20 47.5q0 23 14 36.5t36 13.5t45 -14q2 -1 8 -5t9.5 -5.5t9.5 -4.5t11 -5t12.5 -3.5t15 -2.5t16.5 -1q102 0 102 128zM267 540q-66 0 -116.5 44.5t-50.5 98.5q0 27 13 40.5t34 13.5q28 0 43 -24q5 -7 13.5 -23.5t14 -25
t18.5 -16.5t31 -8t31 8t18.5 16.5t14 25t13.5 23.5q15 24 43 24q21 0 34 -13.5t13 -40.5q0 -54 -50.5 -98.5t-116.5 -44.5z" />
    <glyph glyph-name="Gdotaccent" unicode="&#x120;" horiz-adv-x="655" 
d="M485 250h-102q-29 0 -47 16.5t-18 41.5t18 41.5t47 16.5h163q28 0 44.5 -16.5t16.5 -44.5v-58q0 -108 -68.5 -183.5t-194.5 -75.5q-143 0 -224.5 98t-81.5 243q0 144 82 242.5t221 98.5q66 0 118.5 -22t82.5 -57q22 -25 22 -54q0 -25 -14.5 -40t-40.5 -15q-24 0 -55 23
q-2 1 -13.5 10t-15 11.5t-15.5 9t-20 9t-21.5 5t-27.5 2.5q-83 0 -131.5 -63t-48.5 -160t48.5 -160t131.5 -63q65 0 104.5 36.5t39.5 85.5v22zM331 708q-29 0 -49 20t-20 49t20 49t49 20t49 -20t20 -49t-20 -49t-49 -20z" />
    <glyph glyph-name="gdotaccent" unicode="&#x121;" horiz-adv-x="535" 
d="M255 120q47 0 74.5 35.5t27.5 90.5t-27.5 90.5t-74.5 35.5q-46 0 -73.5 -35.5t-27.5 -90.5t27.5 -90.5t73.5 -35.5zM355 46v9q-39 -48 -120 -48q-90 0 -146 68t-56 171t56 171.5t146 68.5q84 0 121 -51q5 22 20 35t37 13q25 0 42 -18t17 -48v-382q0 -102 -55.5 -163.5
t-157.5 -61.5q-24 0 -53 5t-59.5 15.5t-50.5 31t-20 47.5q0 23 14 36.5t36 13.5t45 -14q2 -1 8 -5t9.5 -5.5t9.5 -4.5t11 -5t12.5 -3.5t15 -2.5t16.5 -1q102 0 102 128zM261 548q-29 0 -49 20t-20 49t20 49t49 20t49 -20t20 -49t-20 -49t-49 -20z" />
    <glyph glyph-name="Gcommaaccent" unicode="&#x122;" horiz-adv-x="655" 
d="M485 250h-102q-29 0 -47 16.5t-18 41.5t18 41.5t47 16.5h163q28 0 44.5 -16.5t16.5 -44.5v-58q0 -108 -68.5 -183.5t-194.5 -75.5q-143 0 -224.5 98t-81.5 243q0 144 82 242.5t221 98.5q66 0 118.5 -22t82.5 -57q22 -25 22 -54q0 -25 -14.5 -40t-40.5 -15q-24 0 -55 23
q-2 1 -13.5 10t-15 11.5t-15.5 9t-20 9t-21.5 5t-27.5 2.5q-83 0 -131.5 -63t-48.5 -160t48.5 -160t131.5 -63q65 0 104.5 36.5t39.5 85.5v22zM306 -275q-24 0 -39 15.5t-15 42.5q0 19 14 68l11 39q10 33 24.5 51t41.5 18q24 0 39 -15.5t15 -42.5q0 -19 -14 -68l-11 -39
q-10 -33 -24.5 -51t-41.5 -18z" />
    <glyph glyph-name="gcommaaccent" unicode="&#x123;" horiz-adv-x="535" 
d="M255 120q47 0 74.5 35.5t27.5 90.5t-27.5 90.5t-74.5 35.5q-46 0 -73.5 -35.5t-27.5 -90.5t27.5 -90.5t73.5 -35.5zM355 46v9q-39 -48 -120 -48q-90 0 -146 68t-56 171t56 171.5t146 68.5q84 0 121 -51q5 22 20 35t37 13q25 0 42 -18t17 -48v-382q0 -102 -55.5 -163.5
t-157.5 -61.5q-24 0 -53 5t-59.5 15.5t-50.5 31t-20 47.5q0 23 14 36.5t36 13.5t45 -14q2 -1 8 -5t9.5 -5.5t9.5 -4.5t11 -5t12.5 -3.5t15 -2.5t16.5 -1q102 0 102 128zM249 541q-24 0 -39 15.5t-15 42.5q0 19 14 68l11 39q10 33 24.5 51t41.5 18q24 0 39 -15.5t15 -42.5
q0 -19 -14 -68l-11 -39q-10 -33 -24.5 -51t-41.5 -18z" />
    <glyph glyph-name="Hcircumflex" unicode="&#x124;" horiz-adv-x="636" 
d="M446 280h-256v-221q0 -31 -17.5 -49.5t-43.5 -18.5t-43.5 18.5t-17.5 49.5v540q0 31 17.5 49.5t43.5 18.5t43.5 -18.5t17.5 -49.5v-203h256v203q0 31 17.5 49.5t43.5 18.5t43.5 -18.5t17.5 -49.5v-540q0 -31 -17.5 -49.5t-43.5 -18.5t-43.5 18.5t-17.5 49.5v221zM318 788
l-80 -76q-23 -21 -44 -21t-34 13.5t-13 33.5q0 27 26 51l109 103q17 17 36 17t36 -17l109 -103q26 -24 26 -51q0 -20 -13 -33.5t-34 -13.5t-44 21z" />
    <glyph glyph-name="hcircumflex" unicode="&#x125;" horiz-adv-x="528" 
d="M181 438q37 48 117 48q86 0 129.5 -58.5t43.5 -159.5v-211q0 -29 -17 -47.5t-42 -18.5t-42 18.5t-17 47.5v208q0 107 -77 107q-41 0 -68 -31t-27 -86v-198q0 -29 -17 -47.5t-42 -18.5t-42 18.5t-17 47.5v544q0 30 17 48t42 18t42 -18t17 -48v-163zM264 788l-80 -76
q-23 -21 -44 -21t-34 13.5t-13 33.5q0 27 26 51l109 103q17 17 36 17t36 -17l109 -103q26 -24 26 -51q0 -20 -13 -33.5t-34 -13.5t-44 21z" />
    <glyph glyph-name="Hbar" unicode="&#x126;" horiz-adv-x="636" 
d="M190 396h256v57h-256v-57zM446 59v221h-256v-221q0 -31 -17.5 -49.5t-43.5 -18.5t-43.5 18.5t-17.5 49.5v394h-22q-26 0 -41 14t-15 36t15 36t41 14h22v46q0 31 17.5 49.5t43.5 18.5t43.5 -18.5t17.5 -49.5v-46h256v46q0 31 17.5 49.5t43.5 18.5t43.5 -18.5t17.5 -49.5
v-46h22q26 0 41 -14t15 -36t-15 -36t-41 -14h-22v-394q0 -31 -17.5 -49.5t-43.5 -18.5t-43.5 18.5t-17.5 49.5z" />
    <glyph glyph-name="hbar" unicode="&#x127;" horiz-adv-x="528" 
d="M181 438q37 48 117 48q86 0 129.5 -58.5t43.5 -159.5v-211q0 -29 -17 -47.5t-42 -18.5t-42 18.5t-17 47.5v208q0 107 -77 107q-41 0 -68 -31t-27 -86v-198q0 -29 -17 -47.5t-42 -18.5t-42 18.5t-17 47.5v456h-23q-23 0 -36 12.5t-13 31.5t13 31.5t36 12.5h23q0 30 17 48
t42 18t42 -18t17 -48h100q23 0 36 -12.5t13 -31.5t-13 -31.5t-36 -12.5h-100v-75z" />
    <glyph glyph-name="Itilde" unicode="&#x128;" horiz-adv-x="270" 
d="M135 -9q-26 0 -43.5 18.5t-17.5 49.5v540q0 31 17.5 49.5t43.5 18.5t43.5 -18.5t17.5 -49.5v-540q0 -31 -17.5 -49.5t-43.5 -18.5zM200 705q-35 0 -71.5 22.5t-52.5 22.5q-18 0 -38.5 -22.5t-42.5 -22.5t-33.5 13t-11.5 34q0 38 36 67.5t84 29.5q35 0 71.5 -22.5
t52.5 -22.5q18 0 38.5 22.5t42.5 22.5t33.5 -13t11.5 -34q0 -38 -36 -67.5t-84 -29.5z" />
    <glyph glyph-name="itilde" unicode="&#x129;" horiz-adv-x="244" 
d="M187 545q-35 0 -71.5 22.5t-52.5 22.5q-18 0 -38.5 -22.5t-42.5 -22.5t-33.5 13t-11.5 34q0 38 36 67.5t84 29.5q35 0 71.5 -22.5t52.5 -22.5q18 0 38.5 22.5t42.5 22.5t33.5 -13t11.5 -34q0 -38 -36 -67.5t-84 -29.5zM122 -9q-25 0 -42 18t-17 48v360q0 30 17 48t42 18
t42 -18t17 -48v-360q0 -30 -17 -48t-42 -18z" />
    <glyph glyph-name="imacron" unicode="&#x12b;" horiz-adv-x="244" 
d="M235 567h-226q-26 0 -41 14t-15 36t15 36t41 14h226q26 0 41 -14t15 -36t-15 -36t-41 -14zM122 -9q-25 0 -42 18t-17 48v360q0 30 17 48t42 18t42 -18t17 -48v-360q0 -30 -17 -48t-42 -18z" />
    <glyph glyph-name="Ibreve" unicode="&#x12c;" horiz-adv-x="270" 
d="M135 -9q-26 0 -43.5 18.5t-17.5 49.5v540q0 31 17.5 49.5t43.5 18.5t43.5 -18.5t17.5 -49.5v-540q0 -31 -17.5 -49.5t-43.5 -18.5zM135 700q-66 0 -116.5 44.5t-50.5 98.5q0 27 13 40.5t34 13.5q28 0 43 -24q5 -7 13.5 -23.5t14 -25t18.5 -16.5t31 -8t31 8t18.5 16.5
t14 25t13.5 23.5q15 24 43 24q21 0 34 -13.5t13 -40.5q0 -54 -50.5 -98.5t-116.5 -44.5z" />
    <glyph glyph-name="Iogonek" unicode="&#x12e;" horiz-adv-x="270" 
d="M143 -245q-60 0 -94.5 36.5t-34.5 97.5q0 83 68 134q-8 14 -8 36v540q0 31 17.5 49.5t43.5 18.5t43.5 -18.5t17.5 -49.5v-540q0 -29 -8 -44t-29 -29q-18 -13 -28 -22t-19 -27.5t-9 -41.5q0 -55 44 -55q17 0 37 14t34 14q18 0 28.5 -11t10.5 -29q0 -31 -34 -52t-80 -21z
" />
    <glyph glyph-name="iogonek" unicode="&#x12f;" horiz-adv-x="244" 
d="M122 548q28 0 48.5 20t20.5 49t-20.5 49t-48.5 20t-48.5 -20t-20.5 -49t20.5 -49t48.5 -20zM128 -245q-60 0 -94.5 36.5t-34.5 98.5q0 86 70 136q-6 14 -6 31v360q0 30 17 48t42 18t42 -18t17 -48v-360q0 -27 -8 -42t-29 -29q-18 -13 -28 -22t-19 -27.5t-9 -41.5
q0 -55 44 -55q18 0 37.5 14t33.5 14q17 0 28 -11t11 -29q0 -31 -34 -52t-80 -21z" />
    <glyph glyph-name="Idotaccent" unicode="&#x130;" horiz-adv-x="270" 
d="M135 -9q-26 0 -43.5 18.5t-17.5 49.5v540q0 31 17.5 49.5t43.5 18.5t43.5 -18.5t17.5 -49.5v-540q0 -31 -17.5 -49.5t-43.5 -18.5zM135 708q-29 0 -49 20t-20 49t20 49t49 20t49 -20t20 -49t-20 -49t-49 -20z" />
    <glyph glyph-name="dotlessi" unicode="&#x131;" horiz-adv-x="244" 
d="M122 -9q-25 0 -42 18t-17 48v360q0 30 17 48t42 18t42 -18t17 -48v-360q0 -30 -17 -48t-42 -18z" />
    <glyph glyph-name="IJ" unicode="&#x132;" horiz-adv-x="686" 
d="M135 -9q-26 0 -43.5 18.5t-17.5 49.5v540q0 31 17.5 49.5t43.5 18.5t43.5 -18.5t17.5 -49.5v-540q0 -31 -17.5 -49.5t-43.5 -18.5zM436 -12q-67 0 -130 35.5t-63 97.5q0 26 14.5 41.5t38.5 15.5t43 -19q3 -3 15.5 -16.5t19 -19t22 -11.5t34.5 -6q40 0 56 24.5t16 79.5
v389q0 31 17.5 49.5t43.5 18.5t43.5 -18.5t17.5 -49.5v-386q0 -110 -48 -167.5t-140 -57.5z" />
    <glyph glyph-name="ij" unicode="&#x133;" horiz-adv-x="482" 
d="M122 548q-28 0 -48.5 20t-20.5 49t20.5 49t48.5 20t48.5 -20t20.5 -49t-20.5 -49t-48.5 -20zM122 -9q-25 0 -42 18t-17 48v360q0 30 17 48t42 18t42 -18t17 -48v-360q0 -30 -17 -48t-42 -18zM260 -190q-90 0 -90 60q0 55 71 55q32 0 46 15.5t14 53.5v423q0 30 17 48
t42 18t42 -18t17 -48v-434q0 -83 -41 -128t-118 -45zM360 548q-28 0 -48.5 20t-20.5 49t20.5 49t48.5 20t48.5 -20t20.5 -49t-20.5 -49t-48.5 -20z" />
    <glyph glyph-name="Jcircumflex" unicode="&#x134;" horiz-adv-x="463" 
d="M213 -12q-67 0 -130 35.5t-63 97.5q0 26 14.5 41.5t38.5 15.5t43 -19q3 -3 15.5 -16.5t19 -19t22 -11.5t34.5 -6q40 0 56 24.5t16 79.5v389q0 31 17.5 49.5t43.5 18.5t43.5 -18.5t17.5 -49.5v-386q0 -110 -48 -167.5t-140 -57.5zM340 788l-80 -76q-23 -21 -44 -21
t-34 13.5t-13 33.5q0 27 26 51l109 103q17 17 36 17t36 -17l109 -103q26 -24 26 -51q0 -20 -13 -33.5t-34 -13.5t-44 21z" />
    <glyph glyph-name="jcircumflex" unicode="&#x135;" horiz-adv-x="277" 
d="M55 -190q-90 0 -90 60q0 55 71 55q32 0 46 15.5t14 53.5v423q0 30 17 48t42 18t42 -18t17 -48v-434q0 -83 -41 -128t-118 -45zM155 628l-80 -76q-23 -21 -44 -21t-34 13.5t-13 33.5q0 27 26 51l109 103q17 17 36 17t36 -17l109 -103q26 -24 26 -51q0 -20 -13 -33.5
t-34 -13.5t-44 21z" />
    <glyph glyph-name="Kcommaaccent" unicode="&#x136;" horiz-adv-x="602" 
d="M190 192v-133q0 -31 -17.5 -49.5t-43.5 -18.5t-43.5 18.5t-17.5 49.5v540q0 31 17.5 49.5t43.5 18.5t43.5 -18.5t17.5 -49.5v-241q107 128 163 188l78 84q35 37 67 37q24 0 38.5 -14.5t14.5 -38.5q0 -32 -34 -68l-140 -151l179 -297q16 -27 16 -52q0 -26 -15.5 -40.5
t-41.5 -14.5q-38 0 -66 48l-158 262zM282 -275q-24 0 -39 15.5t-15 42.5q0 19 14 68l11 39q10 33 24.5 51t41.5 18q24 0 39 -15.5t15 -42.5q0 -19 -14 -68l-11 -39q-10 -33 -24.5 -51t-41.5 -18z" />
    <glyph glyph-name="kcommaaccent" unicode="&#x137;" horiz-adv-x="491" 
d="M181 134v-77q0 -30 -17 -48t-42 -18t-42 18t-17 48v544q0 30 17 48t42 18t42 -18t17 -48v-320q75 93 167 179q25 23 53 23q25 0 39.5 -15.5t14.5 -39.5q0 -27 -26 -53l-98 -95l122 -184q17 -26 17 -52q0 -24 -15 -38.5t-41 -14.5q-34 0 -57 35l-112 170zM236 -275
q-24 0 -39 15.5t-15 42.5q0 19 14 68l11 39q10 33 24.5 51t41.5 18q24 0 39 -15.5t15 -42.5q0 -19 -14 -68l-11 -39q-10 -33 -24.5 -51t-41.5 -18z" />
    <glyph glyph-name="kgreenlandic" unicode="&#x138;" horiz-adv-x="491" 
d="M181 134v-77q0 -30 -17 -48t-42 -18t-42 18t-17 48v360q0 30 17 48t42 18t42 -18t17 -48v-136q75 93 167 179q25 23 53 23q25 0 39.5 -15.5t14.5 -39.5q0 -27 -26 -53l-98 -95l122 -184q17 -26 17 -52q0 -24 -15 -38.5t-41 -14.5q-34 0 -57 35l-112 170z" />
    <glyph glyph-name="Lacute" unicode="&#x139;" horiz-adv-x="506" 
d="M190 118h235q30 0 48 -17t18 -42t-18 -42t-48 -17h-296q-28 0 -44.5 16.5t-16.5 44.5v538q0 31 17.5 49.5t43.5 18.5t43.5 -18.5t17.5 -49.5v-481zM112 702q-21 0 -34 13.5t-13 33.5q0 27 26 51l105 99q23 21 44 21t34 -13.5t13 -33.5q0 -27 -26 -51l-105 -99
q-23 -21 -44 -21z" />
    <glyph glyph-name="lacute" unicode="&#x13a;" horiz-adv-x="261" 
d="M180 -9q-54 0 -85.5 47.5t-31.5 131.5v431q0 30 17 48t42 18t42 -18t17 -48v-444q0 -46 29 -69q26 -22 26 -50q0 -47 -56 -47zM107 702q-21 0 -34 13.5t-13 33.5q0 27 26 51l105 99q23 21 44 21t34 -13.5t13 -33.5q0 -27 -26 -51l-105 -99q-23 -21 -44 -21z" />
    <glyph glyph-name="Lcommaaccent" unicode="&#x13b;" horiz-adv-x="506" 
d="M190 118h235q30 0 48 -17t18 -42t-18 -42t-48 -17h-296q-28 0 -44.5 16.5t-16.5 44.5v538q0 31 17.5 49.5t43.5 18.5t43.5 -18.5t17.5 -49.5v-481zM244 -275q-24 0 -39 15.5t-15 42.5q0 19 14 68l11 39q10 33 24.5 51t41.5 18q24 0 39 -15.5t15 -42.5q0 -19 -14 -68
l-11 -39q-10 -33 -24.5 -51t-41.5 -18z" />
    <glyph glyph-name="lcommaaccent" unicode="&#x13c;" horiz-adv-x="261" 
d="M180 -9q-54 0 -85.5 47.5t-31.5 131.5v431q0 30 17 48t42 18t42 -18t17 -48v-444q0 -46 29 -69q26 -22 26 -50q0 -47 -56 -47zM121 -275q-24 0 -39 15.5t-15 42.5q0 19 14 68l11 39q10 33 24.5 51t41.5 18q24 0 39 -15.5t15 -42.5q0 -19 -14 -68l-11 -39
q-10 -33 -24.5 -51t-41.5 -18z" />
    <glyph glyph-name="Lcaron" unicode="&#x13d;" horiz-adv-x="506" 
d="M190 118h235q30 0 48 -17t18 -42t-18 -42t-48 -17h-296q-28 0 -44.5 16.5t-16.5 44.5v538q0 31 17.5 49.5t43.5 18.5t43.5 -18.5t17.5 -49.5v-481zM304 433q-24 0 -39 15.5t-15 42.5q0 19 14 68l11 39q10 33 24.5 51t41.5 18q24 0 39 -15.5t15 -42.5q0 -19 -14 -68
l-11 -39q-10 -33 -24.5 -51t-41.5 -18z" />
    <glyph glyph-name="lcaron" unicode="&#x13e;" horiz-adv-x="364" 
d="M180 -9q-54 0 -85.5 47.5t-31.5 131.5v431q0 30 17 48t42 18t42 -18t17 -48v-444q0 -46 29 -69q26 -22 26 -50q0 -47 -56 -47zM283 433q-24 0 -39 15.5t-15 42.5q0 19 14 68l11 39q10 33 24.5 51t41.5 18q24 0 39 -15.5t15 -42.5q0 -19 -14 -68l-11 -39
q-10 -33 -24.5 -51t-41.5 -18z" />
    <glyph glyph-name="Ldot" unicode="&#x13f;" horiz-adv-x="506" 
d="M190 118h235q30 0 48 -17t18 -42t-18 -42t-48 -17h-296q-28 0 -44.5 16.5t-16.5 44.5v538q0 31 17.5 49.5t43.5 18.5t43.5 -18.5t17.5 -49.5v-481zM319 256q-30 0 -51.5 21.5t-21.5 51.5t21.5 51.5t51.5 21.5t51.5 -21.5t21.5 -51.5t-21.5 -51.5t-51.5 -21.5z" />
    <glyph glyph-name="ldot" unicode="&#x140;" horiz-adv-x="398" 
d="M180 -9q-54 0 -85.5 47.5t-31.5 131.5v431q0 30 17 48t42 18t42 -18t17 -48v-444q0 -46 29 -69q26 -22 26 -50q0 -47 -56 -47zM310 256q-30 0 -51.5 21.5t-21.5 51.5t21.5 51.5t51.5 21.5t51.5 -21.5t21.5 -51.5t-21.5 -51.5t-51.5 -21.5z" />
    <glyph glyph-name="Lslash" unicode="&#x141;" horiz-adv-x="567" 
d="M251 118h235q30 0 48 -17t18 -42t-18 -42t-48 -17h-296q-28 0 -44.5 16.5t-16.5 44.5v142l-19 -8q-22 -10 -42 -10q-25 0 -39 15t-14 39q0 39 40 57l74 34v269q0 31 17.5 49.5t43.5 18.5t43.5 -18.5t17.5 -49.5v-212l86 40q22 10 42 10q25 0 39 -15t14 -39q0 -39 -40 -57
l-141 -66v-142z" />
    <glyph glyph-name="lslash" unicode="&#x142;" horiz-adv-x="395" 
d="M249 276v-119q0 -46 29 -69q26 -22 26 -50q0 -47 -56 -47q-54 0 -85.5 47.5t-31.5 131.5v51l-16 -7q-24 -11 -42 -11q-25 0 -39 15t-14 39q0 39 40 57l71 33v254q0 30 17 48t42 18t42 -18t17 -48v-199l31 14q24 11 42 11q25 0 39 -15t14 -39q0 -39 -40 -57z" />
    <glyph glyph-name="Nacute" unicode="&#x143;" horiz-adv-x="662" 
d="M477 223q-5 97 -5 148v228q0 31 17.5 49.5t43.5 18.5t43.5 -18.5t17.5 -49.5v-544q0 -30 -15 -47t-43 -17q-25 0 -41.5 13.5t-37.5 42.5l-190 267q-51 71 -82 121q5 -97 5 -148v-228q0 -31 -17.5 -49.5t-43.5 -18.5t-43.5 18.5t-17.5 49.5v544q0 30 15 47t43 17
q25 0 41.5 -13.5t37.5 -42.5l190 -267q51 -71 82 -121zM311 702q-21 0 -34 13.5t-13 33.5q0 27 26 51l105 99q23 21 44 21t34 -13.5t13 -33.5q0 -27 -26 -51l-105 -99q-23 -21 -44 -21z" />
    <glyph glyph-name="nacute" unicode="&#x144;" horiz-adv-x="528" 
d="M179 435q36 51 119 51q86 0 129.5 -58.5t43.5 -159.5v-211q0 -30 -17 -48t-42 -18t-42 18t-17 48v208q0 107 -77 107q-41 0 -68 -31t-27 -86v-198q0 -30 -17 -48t-42 -18t-42 18t-17 48v360q0 30 17 48t42 18q22 0 37 -13t20 -35zM218 542q-21 0 -34 13.5t-13 33.5
q0 27 26 51l105 99q23 21 44 21t34 -13.5t13 -33.5q0 -27 -26 -51l-105 -99q-23 -21 -44 -21z" />
    <glyph glyph-name="Ncommaaccent" unicode="&#x145;" horiz-adv-x="662" 
d="M477 223q-5 97 -5 148v228q0 31 17.5 49.5t43.5 18.5t43.5 -18.5t17.5 -49.5v-544q0 -30 -15 -47t-43 -17q-25 0 -41.5 13.5t-37.5 42.5l-190 267q-51 71 -82 121q5 -97 5 -148v-228q0 -31 -17.5 -49.5t-43.5 -18.5t-43.5 18.5t-17.5 49.5v544q0 30 15 47t43 17
q25 0 41.5 -13.5t37.5 -42.5l190 -267q51 -71 82 -121zM315 -275q-24 0 -39 15.5t-15 42.5q0 19 14 68l11 39q10 33 24.5 51t41.5 18q24 0 39 -15.5t15 -42.5q0 -19 -14 -68l-11 -39q-10 -33 -24.5 -51t-41.5 -18z" />
    <glyph glyph-name="ncommaaccent" unicode="&#x146;" horiz-adv-x="528" 
d="M179 435q36 51 119 51q86 0 129.5 -58.5t43.5 -159.5v-211q0 -30 -17 -48t-42 -18t-42 18t-17 48v208q0 107 -77 107q-41 0 -68 -31t-27 -86v-198q0 -30 -17 -48t-42 -18t-42 18t-17 48v360q0 30 17 48t42 18q22 0 37 -13t20 -35zM239 -275q-24 0 -39 15.5t-15 42.5
q0 19 14 68l11 39q10 33 24.5 51t41.5 18q24 0 39 -15.5t15 -42.5q0 -19 -14 -68l-11 -39q-10 -33 -24.5 -51t-41.5 -18z" />
    <glyph glyph-name="Ncaron" unicode="&#x147;" horiz-adv-x="662" 
d="M477 223q-5 97 -5 148v228q0 31 17.5 49.5t43.5 18.5t43.5 -18.5t17.5 -49.5v-544q0 -30 -15 -47t-43 -17q-25 0 -41.5 13.5t-37.5 42.5l-190 267q-51 71 -82 121q5 -97 5 -148v-228q0 -31 -17.5 -49.5t-43.5 -18.5t-43.5 18.5t-17.5 49.5v544q0 30 15 47t43 17
q25 0 41.5 -13.5t37.5 -42.5l190 -267q51 -71 82 -121zM252 888l80 -76l80 76q23 21 44 21t34 -13.5t13 -33.5q0 -27 -26 -51l-109 -103q-17 -17 -36 -17t-36 17l-109 103q-26 24 -26 51q0 20 13 33.5t34 13.5t44 -21z" />
    <glyph glyph-name="ncaron" unicode="&#x148;" horiz-adv-x="528" 
d="M179 435q36 51 119 51q86 0 129.5 -58.5t43.5 -159.5v-211q0 -30 -17 -48t-42 -18t-42 18t-17 48v208q0 107 -77 107q-41 0 -68 -31t-27 -86v-198q0 -30 -17 -48t-42 -18t-42 18t-17 48v360q0 30 17 48t42 18q22 0 37 -13t20 -35zM185 728l80 -76l80 76q23 21 44 21
t34 -13.5t13 -33.5q0 -27 -26 -51l-109 -103q-17 -17 -36 -17t-36 17l-109 103q-26 24 -26 51q0 20 13 33.5t34 13.5t44 -21z" />
    <glyph glyph-name="napostrophe" unicode="&#x149;" horiz-adv-x="633" 
d="M284 435q36 51 119 51q86 0 129.5 -58.5t43.5 -159.5v-211q0 -30 -17 -48t-42 -18t-42 18t-17 48v208q0 107 -77 107q-41 0 -68 -31t-27 -86v-198q0 -30 -17 -48t-42 -18t-42 18t-17 48v360q0 30 17 48t42 18q22 0 37 -13t20 -35zM69 432q-24 0 -39 15.5t-15 42.5
q0 19 14 68l11 39q10 33 24.5 51t41.5 18q24 0 39 -15.5t15 -42.5q0 -19 -14 -68l-11 -39q-10 -33 -24.5 -51t-41.5 -18z" />
    <glyph glyph-name="Eng" unicode="&#x14a;" horiz-adv-x="662" 
d="M477 223q-5 97 -5 148v228q0 31 17.5 49.5t43.5 18.5t43.5 -18.5t17.5 -49.5v-616q0 -83 -41 -128t-118 -45q-90 0 -90 60q0 55 71 55q32 0 46 15.5t14 53.5v28q-1 1 -8 10.5t-11 14.5l-190 267q-51 71 -82 121q5 -97 5 -148v-228q0 -31 -17.5 -49.5t-43.5 -18.5
t-43.5 18.5t-17.5 49.5v544q0 30 15 47t43 17q25 0 41.5 -13.5t37.5 -42.5l190 -267q51 -71 82 -121z" />
    <glyph glyph-name="eng" unicode="&#x14b;" horiz-adv-x="528" 
d="M179 435q36 51 119 51q86 0 129.5 -58.5t43.5 -159.5v-285q0 -83 -41 -128t-118 -45q-90 0 -90 60q0 55 71 55q32 0 46 15.5t14 53.5v271q0 107 -77 107q-41 0 -68 -31t-27 -86v-198q0 -30 -17 -48t-42 -18t-42 18t-17 48v360q0 30 17 48t42 18q22 0 37 -13t20 -35z" />
    <glyph glyph-name="Omacron" unicode="&#x14c;" horiz-adv-x="678" 
d="M339 106q81 0 129.5 63.5t48.5 159.5t-48.5 159.5t-129.5 63.5t-129.5 -63.5t-48.5 -159.5t48.5 -159.5t129.5 -63.5zM339 -12q-137 0 -219 98.5t-82 242.5t82 242.5t219 98.5t219 -98.5t82 -242.5t-82 -242.5t-219 -98.5zM452 727h-226q-26 0 -41 14t-15 36t15 36t41 14
h226q26 0 41 -14t15 -36t-15 -36t-41 -14z" />
    <glyph glyph-name="omacron" unicode="&#x14d;" horiz-adv-x="518" 
d="M259 102q49 0 78 38.5t29 96.5t-29 96.5t-78 38.5t-78 -38.5t-29 -96.5t29 -96.5t78 -38.5zM259 -12q-103 0 -164.5 72t-61.5 177t61.5 177t164.5 72t164.5 -72t61.5 -177t-61.5 -177t-164.5 -72zM372 567h-226q-26 0 -41 14t-15 36t15 36t41 14h226q26 0 41 -14t15 -36
t-15 -36t-41 -14z" />
    <glyph glyph-name="Obreve" unicode="&#x14e;" horiz-adv-x="678" 
d="M339 106q81 0 129.5 63.5t48.5 159.5t-48.5 159.5t-129.5 63.5t-129.5 -63.5t-48.5 -159.5t48.5 -159.5t129.5 -63.5zM339 -12q-137 0 -219 98.5t-82 242.5t82 242.5t219 98.5t219 -98.5t82 -242.5t-82 -242.5t-219 -98.5zM339 700q-66 0 -116.5 44.5t-50.5 98.5
q0 27 13 40.5t34 13.5q28 0 43 -24q5 -7 13.5 -23.5t14 -25t18.5 -16.5t31 -8t31 8t18.5 16.5t14 25t13.5 23.5q15 24 43 24q21 0 34 -13.5t13 -40.5q0 -54 -50.5 -98.5t-116.5 -44.5z" />
    <glyph glyph-name="obreve" unicode="&#x14f;" horiz-adv-x="518" 
d="M259 102q49 0 78 38.5t29 96.5t-29 96.5t-78 38.5t-78 -38.5t-29 -96.5t29 -96.5t78 -38.5zM259 -12q-103 0 -164.5 72t-61.5 177t61.5 177t164.5 72t164.5 -72t61.5 -177t-61.5 -177t-164.5 -72zM259 540q-66 0 -116.5 44.5t-50.5 98.5q0 27 13 40.5t34 13.5
q28 0 43 -24q5 -7 13.5 -23.5t14 -25t18.5 -16.5t31 -8t31 8t18.5 16.5t14 25t13.5 23.5q15 24 43 24q21 0 34 -13.5t13 -40.5q0 -54 -50.5 -98.5t-116.5 -44.5z" />
    <glyph glyph-name="Ohungarumlaut" unicode="&#x150;" horiz-adv-x="678" 
d="M339 106q81 0 129.5 63.5t48.5 159.5t-48.5 159.5t-129.5 63.5t-129.5 -63.5t-48.5 -159.5t48.5 -159.5t129.5 -63.5zM339 -12q-137 0 -219 98.5t-82 242.5t82 242.5t219 98.5t219 -98.5t82 -242.5t-82 -242.5t-219 -98.5zM221 702q-21 0 -34 13.5t-13 33.5q0 27 26 51
l105 99q23 21 44 21t34 -13.5t13 -33.5q0 -27 -26 -51l-105 -99q-23 -21 -44 -21zM435 702q-21 0 -34 13.5t-13 33.5q0 27 26 51l105 99q23 21 44 21t34 -13.5t13 -33.5q0 -27 -26 -51l-105 -99q-23 -21 -44 -21z" />
    <glyph glyph-name="ohungarumlaut" unicode="&#x151;" horiz-adv-x="518" 
d="M259 102q49 0 78 38.5t29 96.5t-29 96.5t-78 38.5t-78 -38.5t-29 -96.5t29 -96.5t78 -38.5zM259 -12q-103 0 -164.5 72t-61.5 177t61.5 177t164.5 72t164.5 -72t61.5 -177t-61.5 -177t-164.5 -72zM143 542q-21 0 -34 13.5t-13 33.5q0 27 26 51l105 99q23 21 44 21
t34 -13.5t13 -33.5q0 -27 -26 -51l-105 -99q-23 -21 -44 -21zM357 542q-21 0 -34 13.5t-13 33.5q0 27 26 51l105 99q23 21 44 21t34 -13.5t13 -33.5q0 -27 -26 -51l-105 -99q-23 -21 -44 -21z" />
    <glyph glyph-name="OE" unicode="&#x152;" horiz-adv-x="983" 
d="M339 106q81 0 129.5 63.5t48.5 159.5t-48.5 159.5t-129.5 63.5t-129.5 -63.5t-48.5 -159.5t48.5 -159.5t129.5 -63.5zM639 280v-162h253q30 0 48 -17t18 -42t-18 -42t-48 -17h-313q-28 0 -44.5 16.5t-16.5 44.5v27q-48 -100 -180 -100q-136 0 -218 98.5t-82 242.5
t82 242.5t218 98.5q132 0 180 -100v27q0 28 16.5 44.5t44.5 16.5h307q30 0 48 -17t18 -42t-18 -42t-48 -17h-247v-144h142q29 0 47 -16.5t18 -41.5t-18 -41.5t-47 -16.5h-142z" />
    <glyph glyph-name="oe" unicode="&#x153;" horiz-adv-x="822" 
d="M259 102q49 0 78 38.5t29 96.5t-29 96.5t-78 38.5t-78 -38.5t-29 -96.5t29 -96.5t78 -38.5zM490 287h180q-7 42 -30 67.5t-60 25.5t-60 -25.5t-30 -67.5zM731 191h-243q14 -93 103 -93q10 0 19.5 1.5t15.5 3t13.5 5.5t10.5 6t10 7t9 6q17 12 39 12t35.5 -14.5t13.5 -36.5
q0 -26 -18.5 -46.5t-46.5 -31.5t-55.5 -16.5t-50.5 -5.5q-109 0 -162 90q-58 -90 -165 -90q-103 0 -164.5 72t-61.5 177t61.5 177t163.5 72q107 0 165 -89q55 89 157 89q100 0 156 -71.5t56 -162.5q0 -28 -16 -44.5t-45 -16.5z" />
    <glyph glyph-name="Racute" unicode="&#x154;" horiz-adv-x="576" 
d="M190 540v-186h116q52 0 81 24t29 69t-29 69t-81 24h-116zM303 238h-113v-179q0 -31 -17.5 -49.5t-43.5 -18.5t-43.5 18.5t-17.5 49.5v538q0 28 16.5 44.5t44.5 16.5h178q106 0 169.5 -57t63.5 -153q0 -130 -116 -180l101 -164q21 -36 21 -59q0 -25 -14.5 -39.5
t-41.5 -14.5q-39 0 -69 49zM236 702q-21 0 -34 13.5t-13 33.5q0 27 26 51l105 99q23 21 44 21t34 -13.5t13 -33.5q0 -27 -26 -51l-105 -99q-23 -21 -44 -21z" />
    <glyph glyph-name="racute" unicode="&#x155;" horiz-adv-x="362" 
d="M181 420q13 30 38.5 47.5t57.5 17.5q29 0 47 -15t18 -43q0 -29 -19 -45.5t-50 -16.5q-41 0 -66.5 -30t-25.5 -95v-183q0 -30 -17 -48t-42 -18t-42 18t-17 48v360q0 30 17 48t42 18t41.5 -17t17.5 -46zM155 542q-21 0 -34 13.5t-13 33.5q0 27 26 51l105 99q23 21 44 21
t34 -13.5t13 -33.5q0 -27 -26 -51l-105 -99q-23 -21 -44 -21z" />
    <glyph glyph-name="Rcommaaccent" unicode="&#x156;" horiz-adv-x="576" 
d="M190 540v-186h116q52 0 81 24t29 69t-29 69t-81 24h-116zM303 238h-113v-179q0 -31 -17.5 -49.5t-43.5 -18.5t-43.5 18.5t-17.5 49.5v538q0 28 16.5 44.5t44.5 16.5h178q106 0 169.5 -57t63.5 -153q0 -130 -116 -180l101 -164q21 -36 21 -59q0 -25 -14.5 -39.5
t-41.5 -14.5q-39 0 -69 49zM273 -275q-24 0 -39 15.5t-15 42.5q0 19 14 68l11 39q10 33 24.5 51t41.5 18q24 0 39 -15.5t15 -42.5q0 -19 -14 -68l-11 -39q-10 -33 -24.5 -51t-41.5 -18z" />
    <glyph glyph-name="rcommaaccent" unicode="&#x157;" horiz-adv-x="362" 
d="M181 420q13 30 38.5 47.5t57.5 17.5q29 0 47 -15t18 -43q0 -29 -19 -45.5t-50 -16.5q-41 0 -66.5 -30t-25.5 -95v-183q0 -30 -17 -48t-42 -18t-42 18t-17 48v360q0 30 17 48t42 18t41.5 -17t17.5 -46zM87 -275q-24 0 -39 15.5t-15 42.5q0 19 14 68l11 39q10 33 24.5 51
t41.5 18q24 0 39 -15.5t15 -42.5q0 -19 -14 -68l-11 -39q-10 -33 -24.5 -51t-41.5 -18z" />
    <glyph glyph-name="Rcaron" unicode="&#x158;" horiz-adv-x="576" 
d="M190 540v-186h116q52 0 81 24t29 69t-29 69t-81 24h-116zM303 238h-113v-179q0 -31 -17.5 -49.5t-43.5 -18.5t-43.5 18.5t-17.5 49.5v538q0 28 16.5 44.5t44.5 16.5h178q106 0 169.5 -57t63.5 -153q0 -130 -116 -180l101 -164q21 -36 21 -59q0 -25 -14.5 -39.5
t-41.5 -14.5q-39 0 -69 49zM203 888l80 -76l80 76q23 21 44 21t34 -13.5t13 -33.5q0 -27 -26 -51l-109 -103q-17 -17 -36 -17t-36 17l-109 103q-26 24 -26 51q0 20 13 33.5t34 13.5t44 -21z" />
    <glyph glyph-name="rcaron" unicode="&#x159;" horiz-adv-x="362" 
d="M181 420q13 30 38.5 47.5t57.5 17.5q29 0 47 -15t18 -43q0 -29 -19 -45.5t-50 -16.5q-41 0 -66.5 -30t-25.5 -95v-183q0 -30 -17 -48t-42 -18t-42 18t-17 48v360q0 30 17 48t42 18t41.5 -17t17.5 -46zM101 728l80 -76l80 76q23 21 44 21t34 -13.5t13 -33.5q0 -27 -26 -51
l-109 -103q-17 -17 -36 -17t-36 17l-109 103q-26 24 -26 51q0 20 13 33.5t34 13.5t44 -21z" />
    <glyph glyph-name="Sacute" unicode="&#x15a;" horiz-adv-x="532" 
d="M270 -12q-30 0 -67 6.5t-76.5 20.5t-65.5 40.5t-26 60.5q0 25 15 40.5t41 15.5q28 0 53 -23q17 -15 27.5 -22t37 -16t60.5 -9q104 0 104 72q0 23 -9 39t-31 27.5t-39.5 17t-54.5 15.5q-39 10 -69 24t-59.5 37t-46 59.5t-16.5 84.5q0 90 57 141t165 51q27 0 58.5 -5.5
t65 -16.5t55.5 -34t22 -54q0 -24 -14.5 -38t-39.5 -14q-22 0 -45 16q-48 32 -102 32q-98 0 -98 -73q0 -42 29 -61.5t99 -39.5q33 -9 56.5 -18t52 -25.5t46 -36.5t30 -51.5t12.5 -70.5q0 -88 -58 -140t-169 -52zM222 702q-21 0 -34 13.5t-13 33.5q0 27 26 51l105 99
q23 21 44 21t34 -13.5t13 -33.5q0 -27 -26 -51l-105 -99q-23 -21 -44 -21z" />
    <glyph glyph-name="sacute" unicode="&#x15b;" horiz-adv-x="427" 
d="M211 -12q-73 0 -126.5 27t-53.5 71q0 21 13 35t38 14q21 0 56.5 -22.5t74.5 -22.5q32 0 51 11t19 32q0 8 -2.5 14t-9 11t-12.5 8t-17.5 7t-18.5 6t-22 5.5t-22 5.5q-29 8 -50 16.5t-43.5 24.5t-34 42.5t-11.5 62.5q0 69 44.5 109.5t129.5 40.5q65 0 110.5 -22.5
t45.5 -64.5q0 -22 -13.5 -35t-36.5 -13q-18 0 -47.5 16.5t-60.5 16.5q-59 0 -59 -39q0 -25 21 -35.5t63 -19.5q32 -7 54.5 -15t49 -24.5t41 -44.5t14.5 -67q0 -73 -49 -112t-136 -39zM172 542q-21 0 -34 13.5t-13 33.5q0 27 26 51l105 99q23 21 44 21t34 -13.5t13 -33.5
q0 -27 -26 -51l-105 -99q-23 -21 -44 -21z" />
    <glyph glyph-name="Scircumflex" unicode="&#x15c;" horiz-adv-x="532" 
d="M270 -12q-30 0 -67 6.5t-76.5 20.5t-65.5 40.5t-26 60.5q0 25 15 40.5t41 15.5q28 0 53 -23q17 -15 27.5 -22t37 -16t60.5 -9q104 0 104 72q0 23 -9 39t-31 27.5t-39.5 17t-54.5 15.5q-39 10 -69 24t-59.5 37t-46 59.5t-16.5 84.5q0 90 57 141t165 51q27 0 58.5 -5.5
t65 -16.5t55.5 -34t22 -54q0 -24 -14.5 -38t-39.5 -14q-22 0 -45 16q-48 32 -102 32q-98 0 -98 -73q0 -42 29 -61.5t99 -39.5q33 -9 56.5 -18t52 -25.5t46 -36.5t30 -51.5t12.5 -70.5q0 -88 -58 -140t-169 -52zM263 788l-80 -76q-23 -21 -44 -21t-34 13.5t-13 33.5
q0 27 26 51l109 103q17 17 36 17t36 -17l109 -103q26 -24 26 -51q0 -20 -13 -33.5t-34 -13.5t-44 21z" />
    <glyph glyph-name="scircumflex" unicode="&#x15d;" horiz-adv-x="427" 
d="M211 -12q-73 0 -126.5 27t-53.5 71q0 21 13 35t38 14q21 0 56.5 -22.5t74.5 -22.5q32 0 51 11t19 32q0 8 -2.5 14t-9 11t-12.5 8t-17.5 7t-18.5 6t-22 5.5t-22 5.5q-29 8 -50 16.5t-43.5 24.5t-34 42.5t-11.5 62.5q0 69 44.5 109.5t129.5 40.5q65 0 110.5 -22.5
t45.5 -64.5q0 -22 -13.5 -35t-36.5 -13q-18 0 -47.5 16.5t-60.5 16.5q-59 0 -59 -39q0 -25 21 -35.5t63 -19.5q32 -7 54.5 -15t49 -24.5t41 -44.5t14.5 -67q0 -73 -49 -112t-136 -39zM210 628l-80 -76q-23 -21 -44 -21t-34 13.5t-13 33.5q0 27 26 51l109 103q17 17 36 17
t36 -17l109 -103q26 -24 26 -51q0 -20 -13 -33.5t-34 -13.5t-44 21z" />
    <glyph glyph-name="Scedilla" unicode="&#x15e;" horiz-adv-x="532" 
d="M300 -11q-3 -4 -7 -9t-9 -11.5t-8 -9.5q15 3 31 3q43 0 67 -26.5t24 -68.5q0 -54 -35 -83t-86 -29q-43 0 -79 18t-36 52q0 17 10 27t26 10q13 0 33 -14.5t43 -14.5q43 0 43 34q0 32 -43 32q-9 0 -27 -2t-23 -2q-18 0 -28.5 10t-10.5 26t7 31l15 31q-38 5 -73.5 17.5
t-67 41t-31.5 65.5q0 24 15 39t41 15q29 0 53 -22q17 -15 27.5 -22t37 -16t60.5 -9q104 0 104 72q0 23 -9 39t-31 27.5t-39.5 17t-54.5 15.5q-39 10 -69 24t-59.5 37t-46 59.5t-16.5 84.5q0 90 57 141t165 51q27 0 58.5 -5.5t65 -16.5t55.5 -34t22 -54q0 -24 -14.5 -38
t-39.5 -14q-22 0 -45 16q-48 32 -102 32q-98 0 -98 -73q0 -42 29 -61.5t99 -39.5q33 -9 56.5 -18t52 -25.5t46 -36.5t30 -51.5t12.5 -70.5q0 -82 -50 -133t-147 -58z" />
    <glyph glyph-name="scedilla" unicode="&#x15f;" horiz-adv-x="427" 
d="M247 -10q-6 -8 -24 -31q15 3 31 3q43 0 67 -26.5t24 -68.5q0 -54 -35 -83t-86 -29q-43 0 -79 18t-36 52q0 17 10 27t26 10q13 0 33 -14.5t43 -14.5q43 0 43 34q0 32 -43 32q-9 0 -27 -2t-23 -2q-18 0 -28.5 10t-10.5 26t7 31l15 31q-54 9 -88.5 33.5t-34.5 59.5
q0 21 13 35t38 14q21 0 56.5 -22.5t74.5 -22.5q32 0 51 11t19 32q0 8 -2.5 14t-9 11t-12.5 8t-17.5 7t-18.5 6t-22 5.5t-22 5.5q-29 8 -50 16.5t-43.5 24.5t-34 42.5t-11.5 62.5q0 69 44.5 109.5t129.5 40.5q65 0 110.5 -22.5t45.5 -64.5q0 -22 -13.5 -35t-36.5 -13
q-18 0 -47.5 16.5t-60.5 16.5q-59 0 -59 -39q0 -25 21 -35.5t63 -19.5q32 -7 54.5 -15t49 -24.5t41 -44.5t14.5 -67q0 -65 -39 -103t-110 -46z" />
    <glyph glyph-name="Scaron" unicode="&#x160;" horiz-adv-x="532" 
d="M270 -12q-30 0 -67 6.5t-76.5 20.5t-65.5 40.5t-26 60.5q0 25 15 40.5t41 15.5q28 0 53 -23q17 -15 27.5 -22t37 -16t60.5 -9q104 0 104 72q0 23 -9 39t-31 27.5t-39.5 17t-54.5 15.5q-39 10 -69 24t-59.5 37t-46 59.5t-16.5 84.5q0 90 57 141t165 51q27 0 58.5 -5.5
t65 -16.5t55.5 -34t22 -54q0 -24 -14.5 -38t-39.5 -14q-22 0 -45 16q-48 32 -102 32q-98 0 -98 -73q0 -42 29 -61.5t99 -39.5q33 -9 56.5 -18t52 -25.5t46 -36.5t30 -51.5t12.5 -70.5q0 -88 -58 -140t-169 -52zM259 812l80 76q23 21 44 21t34 -13.5t13 -33.5q0 -27 -26 -51
l-109 -103q-17 -17 -36 -17t-36 17l-109 103q-26 24 -26 51q0 20 13 33.5t34 13.5t44 -21z" />
    <glyph glyph-name="scaron" unicode="&#x161;" horiz-adv-x="427" 
d="M211 -12q-73 0 -126.5 27t-53.5 71q0 21 13 35t38 14q21 0 56.5 -22.5t74.5 -22.5q32 0 51 11t19 32q0 8 -2.5 14t-9 11t-12.5 8t-17.5 7t-18.5 6t-22 5.5t-22 5.5q-29 8 -50 16.5t-43.5 24.5t-34 42.5t-11.5 62.5q0 69 44.5 109.5t129.5 40.5q65 0 110.5 -22.5
t45.5 -64.5q0 -22 -13.5 -35t-36.5 -13q-18 0 -47.5 16.5t-60.5 16.5q-59 0 -59 -39q0 -25 21 -35.5t63 -19.5q32 -7 54.5 -15t49 -24.5t41 -44.5t14.5 -67q0 -73 -49 -112t-136 -39zM208 652l80 76q23 21 44 21t34 -13.5t13 -33.5q0 -27 -26 -51l-109 -103q-17 -17 -36 -17
t-36 17l-109 103q-26 24 -26 51q0 20 13 33.5t34 13.5t44 -21z" />
    <glyph glyph-name="Tcommaaccent" unicode="&#x162;" horiz-adv-x="542" 
d="M332 540v-481q0 -31 -17.5 -49.5t-43.5 -18.5t-43.5 18.5t-17.5 49.5v481h-129q-30 0 -48 17t-18 42t18 42t48 17h380q30 0 48 -17t18 -42t-18 -42t-48 -17h-129zM234 -275q-24 0 -39 15.5t-15 42.5q0 19 14 68l11 39q10 33 24.5 51t41.5 18q24 0 39 -15.5t15 -42.5
q0 -19 -14 -68l-11 -39q-10 -33 -24.5 -51t-41.5 -18z" />
    <glyph glyph-name="tcommaaccent" unicode="&#x163;" horiz-adv-x="381" 
d="M230 360v-188q0 -38 14 -53.5t46 -15.5q71 0 71 -55q0 -60 -90 -60q-77 0 -118 45t-41 128v199h-33q-29 0 -46.5 16t-17.5 41t17.5 41t46.5 16h33v84q0 29 17 47.5t42 18.5t42 -18.5t17 -47.5v-84h67q29 0 46.5 -16t17.5 -41t-17.5 -41t-46.5 -16h-67zM198 -275
q-24 0 -39 15.5t-15 42.5q0 19 14 68l11 39q10 33 24.5 51t41.5 18q24 0 39 -15.5t15 -42.5q0 -19 -14 -68l-11 -39q-10 -33 -24.5 -51t-41.5 -18z" />
    <glyph glyph-name="Tcaron" unicode="&#x164;" horiz-adv-x="542" 
d="M332 540v-481q0 -31 -17.5 -49.5t-43.5 -18.5t-43.5 18.5t-17.5 49.5v481h-129q-30 0 -48 17t-18 42t18 42t48 17h380q30 0 48 -17t18 -42t-18 -42t-48 -17h-129zM271 812l80 76q23 21 44 21t34 -13.5t13 -33.5q0 -27 -26 -51l-109 -103q-17 -17 -36 -17t-36 17l-109 103
q-26 24 -26 51q0 20 13 33.5t34 13.5t44 -21z" />
    <glyph glyph-name="tcaron" unicode="&#x165;" horiz-adv-x="381" 
d="M230 360v-188q0 -38 14 -53.5t46 -15.5q71 0 71 -55q0 -60 -90 -60q-77 0 -118 45t-41 128v199h-33q-29 0 -46.5 16t-17.5 41t17.5 41t46.5 16h33v84q0 29 17 47.5t42 18.5t42 -18.5t17 -47.5v-84h67q29 0 46.5 -16t17.5 -41t-17.5 -41t-46.5 -16h-67zM329 509
q-24 0 -39 15.5t-15 42.5q0 19 14 68l11 39q10 33 24.5 51t41.5 18q24 0 39 -15.5t15 -42.5q0 -19 -14 -68l-11 -39q-10 -33 -24.5 -51t-41.5 -18z" />
    <glyph glyph-name="Tbar" unicode="&#x166;" horiz-adv-x="542" 
d="M332 292v-233q0 -31 -17.5 -49.5t-43.5 -18.5t-43.5 18.5t-17.5 49.5v233h-73q-29 0 -46 16t-17 40t17 40t46 16h73v136h-129q-30 0 -48 17t-18 42t18 42t48 17h380q30 0 48 -17t18 -42t-18 -42t-48 -17h-129v-136h73q29 0 46 -16t17 -40t-17 -40t-46 -16h-73z" />
    <glyph glyph-name="tbar" unicode="&#x167;" horiz-adv-x="381" 
d="M230 211v-39q0 -38 14 -53.5t46 -15.5q71 0 71 -55q0 -60 -90 -60q-77 0 -118 45t-41 128v50h-31q-26 0 -41 14t-15 36t15 36t41 14h31v49h-33q-29 0 -46.5 16t-17.5 41t17.5 41t46.5 16h33v84q0 29 17 47.5t42 18.5t42 -18.5t17 -47.5v-84h67q29 0 46.5 -16t17.5 -41
t-17.5 -41t-46.5 -16h-67v-49h48q26 0 41 -14t15 -36t-15 -36t-41 -14h-48z" />
    <glyph glyph-name="Utilde" unicode="&#x168;" horiz-adv-x="640" 
d="M320 -12q-121 0 -189 78.5t-68 206.5v326q0 31 17.5 49.5t43.5 18.5t43.5 -18.5t17.5 -49.5v-323q0 -170 135 -170t135 170v323q0 31 17.5 49.5t43.5 18.5t43.5 -18.5t17.5 -49.5v-326q0 -128 -68 -206.5t-189 -78.5zM385 705q-35 0 -71.5 22.5t-52.5 22.5
q-18 0 -38.5 -22.5t-42.5 -22.5t-33.5 13t-11.5 34q0 38 36 67.5t84 29.5q35 0 71.5 -22.5t52.5 -22.5q18 0 38.5 22.5t42.5 22.5t33.5 -13t11.5 -34q0 -38 -36 -67.5t-84 -29.5z" />
    <glyph glyph-name="utilde" unicode="&#x169;" horiz-adv-x="528" 
d="M349 39q-36 -51 -119 -51q-86 0 -129.5 58.5t-43.5 159.5v211q0 30 17 48t42 18t42 -18t17 -48v-208q0 -107 77 -107q41 0 68 31t27 86v198q0 30 17 48t42 18t42 -18t17 -48v-360q0 -30 -17 -48t-42 -18q-22 0 -37 13t-20 35zM329 545q-35 0 -71.5 22.5t-52.5 22.5
q-18 0 -38.5 -22.5t-42.5 -22.5t-33.5 13t-11.5 34q0 38 36 67.5t84 29.5q35 0 71.5 -22.5t52.5 -22.5q18 0 38.5 22.5t42.5 22.5t33.5 -13t11.5 -34q0 -38 -36 -67.5t-84 -29.5z" />
    <glyph glyph-name="Umacron" unicode="&#x16a;" horiz-adv-x="640" 
d="M320 -12q-121 0 -189 78.5t-68 206.5v326q0 31 17.5 49.5t43.5 18.5t43.5 -18.5t17.5 -49.5v-323q0 -170 135 -170t135 170v323q0 31 17.5 49.5t43.5 18.5t43.5 -18.5t17.5 -49.5v-326q0 -128 -68 -206.5t-189 -78.5zM433 727h-226q-26 0 -41 14t-15 36t15 36t41 14h226
q26 0 41 -14t15 -36t-15 -36t-41 -14z" />
    <glyph glyph-name="umacron" unicode="&#x16b;" horiz-adv-x="528" 
d="M349 39q-36 -51 -119 -51q-86 0 -129.5 58.5t-43.5 159.5v211q0 30 17 48t42 18t42 -18t17 -48v-208q0 -107 77 -107q41 0 68 31t27 86v198q0 30 17 48t42 18t42 -18t17 -48v-360q0 -30 -17 -48t-42 -18q-22 0 -37 13t-20 35zM377 567h-226q-26 0 -41 14t-15 36t15 36
t41 14h226q26 0 41 -14t15 -36t-15 -36t-41 -14z" />
    <glyph glyph-name="Ubreve" unicode="&#x16c;" horiz-adv-x="640" 
d="M320 -12q-121 0 -189 78.5t-68 206.5v326q0 31 17.5 49.5t43.5 18.5t43.5 -18.5t17.5 -49.5v-323q0 -170 135 -170t135 170v323q0 31 17.5 49.5t43.5 18.5t43.5 -18.5t17.5 -49.5v-326q0 -128 -68 -206.5t-189 -78.5zM320 700q-66 0 -116.5 44.5t-50.5 98.5q0 27 13 40.5
t34 13.5q28 0 43 -24q5 -7 13.5 -23.5t14 -25t18.5 -16.5t31 -8t31 8t18.5 16.5t14 25t13.5 23.5q15 24 43 24q21 0 34 -13.5t13 -40.5q0 -54 -50.5 -98.5t-116.5 -44.5z" />
    <glyph glyph-name="ubreve" unicode="&#x16d;" horiz-adv-x="528" 
d="M349 39q-36 -51 -119 -51q-86 0 -129.5 58.5t-43.5 159.5v211q0 30 17 48t42 18t42 -18t17 -48v-208q0 -107 77 -107q41 0 68 31t27 86v198q0 30 17 48t42 18t42 -18t17 -48v-360q0 -30 -17 -48t-42 -18q-22 0 -37 13t-20 35zM262 540q-66 0 -116.5 44.5t-50.5 98.5
q0 27 13 40.5t34 13.5q28 0 43 -24q5 -7 13.5 -23.5t14 -25t18.5 -16.5t31 -8t31 8t18.5 16.5t14 25t13.5 23.5q15 24 43 24q21 0 34 -13.5t13 -40.5q0 -54 -50.5 -98.5t-116.5 -44.5z" />
    <glyph glyph-name="Uring" unicode="&#x16e;" horiz-adv-x="640" 
d="M320 770q19 0 30.5 12.5t11.5 32.5t-11.5 32.5t-30.5 12.5t-30.5 -12.5t-11.5 -32.5t11.5 -32.5t30.5 -12.5zM320 -12q-121 0 -189 78.5t-68 206.5v326q0 31 17.5 49.5t43.5 18.5t43.5 -18.5t17.5 -49.5v-323q0 -170 135 -170t135 170v323q0 31 17.5 49.5t43.5 18.5
t43.5 -18.5t17.5 -49.5v-326q0 -128 -68 -206.5t-189 -78.5zM320 700q-47 0 -81 34t-34 81t34 81t81 34t81 -34t34 -81t-34 -81t-81 -34z" />
    <glyph glyph-name="uring" unicode="&#x16f;" horiz-adv-x="528" 
d="M264 610q19 0 30.5 12.5t11.5 32.5t-11.5 32.5t-30.5 12.5t-30.5 -12.5t-11.5 -32.5t11.5 -32.5t30.5 -12.5zM349 39q-36 -51 -119 -51q-86 0 -129.5 58.5t-43.5 159.5v211q0 30 17 48t42 18t42 -18t17 -48v-208q0 -107 77 -107q41 0 68 31t27 86v198q0 30 17 48t42 18
t42 -18t17 -48v-360q0 -30 -17 -48t-42 -18q-22 0 -37 13t-20 35zM264 540q-47 0 -81 34t-34 81t34 81t81 34t81 -34t34 -81t-34 -81t-81 -34z" />
    <glyph glyph-name="Uhungarumlaut" unicode="&#x170;" horiz-adv-x="640" 
d="M320 -12q-121 0 -189 78.5t-68 206.5v326q0 31 17.5 49.5t43.5 18.5t43.5 -18.5t17.5 -49.5v-323q0 -170 135 -170t135 170v323q0 31 17.5 49.5t43.5 18.5t43.5 -18.5t17.5 -49.5v-326q0 -128 -68 -206.5t-189 -78.5zM208 702q-21 0 -34 13.5t-13 33.5q0 27 26 51l105 99
q23 21 44 21t34 -13.5t13 -33.5q0 -27 -26 -51l-105 -99q-23 -21 -44 -21zM422 702q-21 0 -34 13.5t-13 33.5q0 27 26 51l105 99q23 21 44 21t34 -13.5t13 -33.5q0 -27 -26 -51l-105 -99q-23 -21 -44 -21z" />
    <glyph glyph-name="uhungarumlaut" unicode="&#x171;" horiz-adv-x="528" 
d="M349 39q-36 -51 -119 -51q-86 0 -129.5 58.5t-43.5 159.5v211q0 30 17 48t42 18t42 -18t17 -48v-208q0 -107 77 -107q41 0 68 31t27 86v198q0 30 17 48t42 18t42 -18t17 -48v-360q0 -30 -17 -48t-42 -18q-22 0 -37 13t-20 35zM153 542q-21 0 -34 13.5t-13 33.5
q0 27 26 51l105 99q23 21 44 21t34 -13.5t13 -33.5q0 -27 -26 -51l-105 -99q-23 -21 -44 -21zM367 542q-21 0 -34 13.5t-13 33.5q0 27 26 51l105 99q23 21 44 21t34 -13.5t13 -33.5q0 -27 -26 -51l-105 -99q-23 -21 -44 -21z" />
    <glyph glyph-name="Uogonek" unicode="&#x172;" horiz-adv-x="640" 
d="M270 -8q-99 16 -153 92.5t-54 188.5v326q0 31 17.5 49.5t43.5 18.5t43.5 -18.5t17.5 -49.5v-323q0 -170 135 -170t135 170v323q0 31 17.5 49.5t43.5 18.5t43.5 -18.5t17.5 -49.5v-326q0 -93 -34 -156.5t-88 -94.5q-11 -7 -33 -17t-36 -18t-29.5 -20.5t-23.5 -30.5t-8 -41
q0 -55 44 -55q17 0 37 14t34 14q18 0 28.5 -11t10.5 -29q0 -31 -34 -52t-80 -21q-60 0 -94.5 36.5t-34.5 96.5t34 104z" />
    <glyph glyph-name="uogonek" unicode="&#x173;" horiz-adv-x="528" 
d="M349 39q-36 -51 -119 -51q-86 0 -129.5 58.5t-43.5 159.5v211q0 30 17 48t42 18t42 -18t17 -48v-208q0 -107 77 -107q41 0 68 31t27 86v198q0 30 17 48t42 18t42 -18t17 -48v-360q0 -27 -8 -42t-29 -29q-18 -13 -28 -22t-19 -27.5t-9 -41.5q0 -55 44 -55q18 0 37 14
t34 14q17 0 28 -11t11 -29q0 -31 -34 -52t-80 -21q-60 0 -94.5 36.5t-34.5 98.5q0 86 70 136q-1 3 -4 13z" />
    <glyph glyph-name="Wcircumflex" unicode="&#x174;" horiz-adv-x="866" 
d="M609 240q38 127 59 193l57 179q18 55 63 55q28 0 43 -16.5t15 -44.5q0 -15 -12 -56l-163 -505q-17 -52 -61 -52t-61 52l-58 185q-30 96 -58 194q-28 -98 -58 -194l-58 -185q-17 -52 -61 -52t-61 52l-163 505q-12 41 -12 56q0 28 15 44.5t43 16.5q45 0 63 -55l57 -179
q21 -66 59 -193q15 56 57 193l57 182q17 52 62 52t62 -52l57 -182q42 -137 57 -193zM513 712l-80 76l-80 -76q-23 -21 -44 -21t-34 13.5t-13 33.5q0 27 26 51l109 103q17 17 36 17t36 -17l109 -103q26 -24 26 -51q0 -20 -13 -33.5t-34 -13.5t-44 21z" />
    <glyph glyph-name="wcircumflex" unicode="&#x175;" horiz-adv-x="680" 
d="M340 279q-26 -92 -54 -179l-20 -60q-16 -49 -60 -49q-41 0 -58 49l-118 333q-13 39 -13 53q0 24 14.5 40.5t41.5 16.5q44 0 63 -56l21 -62q28 -82 49 -167q47 153 54 173l22 63q17 49 58 49t58 -49l22 -63q7 -20 54 -173q21 85 49 167l21 62q19 56 63 56q27 0 41.5 -16.5
t14.5 -40.5q0 -14 -13 -53l-118 -333q-17 -49 -58 -49q-44 0 -60 49l-20 60q-28 87 -54 179zM340 628l-80 -76q-23 -21 -44 -21t-34 13.5t-13 33.5q0 27 26 51l109 103q17 17 36 17t36 -17l109 -103q26 -24 26 -51q0 -20 -13 -33.5t-34 -13.5t-44 21z" />
    <glyph glyph-name="Ycircumflex" unicode="&#x176;" horiz-adv-x="526" 
d="M263 371q51 104 81 160l40 76q17 31 32 44.5t39 13.5q26 0 41 -15.5t15 -41.5q0 -24 -19 -58l-168 -307v-184q0 -31 -17.5 -49.5t-43.5 -18.5t-43.5 18.5t-17.5 49.5v184l-168 307q-19 34 -19 58q0 26 15 41.5t41 15.5q24 0 39 -13.5t32 -44.5l40 -76q30 -56 81 -160z
M343 712l-80 76l-80 -76q-23 -21 -44 -21t-34 13.5t-13 33.5q0 27 26 51l109 103q17 17 36 17t36 -17l109 -103q26 -24 26 -51q0 -20 -13 -33.5t-34 -13.5t-44 21z" />
    <glyph glyph-name="ycircumflex" unicode="&#x177;" horiz-adv-x="446" 
d="M223 167q42 150 91 266q22 50 62 50q24 0 39.5 -14.5t15.5 -41.5q0 -19 -9 -41l-129 -321q-17 -41 -35.5 -77t-48 -79.5t-67 -69.5t-76.5 -26q-28 0 -44 14.5t-16 38.5q0 29 27 48q5 4 29 18t37 24.5t31 36t28 59.5l-134 334q-9 22 -9 41q0 27 15.5 41.5t39.5 14.5
q40 0 62 -50q49 -116 91 -266zM303 552l-80 76l-80 -76q-23 -21 -44 -21t-34 13.5t-13 33.5q0 27 26 51l109 103q17 17 36 17t36 -17l109 -103q26 -24 26 -51q0 -20 -13 -33.5t-34 -13.5t-44 21z" />
    <glyph glyph-name="Ydieresis" unicode="&#x178;" horiz-adv-x="526" 
d="M263 371q51 104 81 160l40 76q17 31 32 44.5t39 13.5q26 0 41 -15.5t15 -41.5q0 -24 -19 -58l-168 -307v-184q0 -31 -17.5 -49.5t-43.5 -18.5t-43.5 18.5t-17.5 49.5v184l-168 307q-19 34 -19 58q0 26 15 41.5t41 15.5q24 0 39 -13.5t32 -44.5l40 -76q30 -56 81 -160z
M166 708q-28 0 -48.5 20t-20.5 49t20.5 49t48.5 20t48.5 -20t20.5 -49t-20.5 -49t-48.5 -20zM361 708q-29 0 -49 20t-20 49t20 49t49 20t49 -20t20 -49t-20 -49t-49 -20z" />
    <glyph glyph-name="Zacute" unicode="&#x179;" horiz-adv-x="560" 
d="M207 118h250q30 0 48 -17t18 -42t-18 -42t-48 -17h-362q-58 0 -58 52q0 26 26 67l278 421h-231q-30 0 -48 17t-18 42t18 42t48 17h343q58 0 58 -52q0 -26 -26 -67zM259 702q-21 0 -34 13.5t-13 33.5q0 27 26 51l105 99q23 21 44 21t34 -13.5t13 -33.5q0 -27 -26 -51
l-105 -99q-23 -21 -44 -21z" />
    <glyph glyph-name="zacute" unicode="&#x17a;" horiz-adv-x="439" 
d="M199 114h148q29 0 46.5 -16t17.5 -41t-17.5 -41t-46.5 -16h-260q-59 0 -59 50q0 27 22 58l182 252h-136q-29 0 -46.5 16t-17.5 41t17.5 41t46.5 16h248q59 0 59 -50q0 -27 -22 -58zM195 542q-21 0 -34 13.5t-13 33.5q0 27 26 51l105 99q23 21 44 21t34 -13.5t13 -33.5
q0 -27 -26 -51l-105 -99q-23 -21 -44 -21z" />
    <glyph glyph-name="Zdotaccent" unicode="&#x17b;" horiz-adv-x="560" 
d="M207 118h250q30 0 48 -17t18 -42t-18 -42t-48 -17h-362q-58 0 -58 52q0 26 26 67l278 421h-231q-30 0 -48 17t-18 42t18 42t48 17h343q58 0 58 -52q0 -26 -26 -67zM286 708q-28 0 -48.5 20t-20.5 49t20.5 49t48.5 20t48.5 -20t20.5 -49t-20.5 -49t-48.5 -20z" />
    <glyph glyph-name="zdotaccent" unicode="&#x17c;" horiz-adv-x="439" 
d="M199 114h148q29 0 46.5 -16t17.5 -41t-17.5 -41t-46.5 -16h-260q-59 0 -59 50q0 27 22 58l182 252h-136q-29 0 -46.5 16t-17.5 41t17.5 41t46.5 16h248q59 0 59 -50q0 -27 -22 -58zM225 548q-29 0 -49 20t-20 49t20 49t49 20t49 -20t20 -49t-20 -49t-49 -20z" />
    <glyph glyph-name="Zcaron" unicode="&#x17d;" horiz-adv-x="560" 
d="M207 118h250q30 0 48 -17t18 -42t-18 -42t-48 -17h-362q-58 0 -58 52q0 26 26 67l278 421h-231q-30 0 -48 17t-18 42t18 42t48 17h343q58 0 58 -52q0 -26 -26 -67zM283 812l80 76q23 21 44 21t34 -13.5t13 -33.5q0 -27 -26 -51l-109 -103q-17 -17 -36 -17t-36 17
l-109 103q-26 24 -26 51q0 20 13 33.5t34 13.5t44 -21z" />
    <glyph glyph-name="zcaron" unicode="&#x17e;" horiz-adv-x="439" 
d="M199 114h148q29 0 46.5 -16t17.5 -41t-17.5 -41t-46.5 -16h-260q-59 0 -59 50q0 27 22 58l182 252h-136q-29 0 -46.5 16t-17.5 41t17.5 41t46.5 16h248q59 0 59 -50q0 -27 -22 -58zM220 652l80 76q23 21 44 21t34 -13.5t13 -33.5q0 -27 -26 -51l-109 -103
q-17 -17 -36 -17t-36 17l-109 103q-26 24 -26 51q0 20 13 33.5t34 13.5t44 -21z" />
    <glyph glyph-name="longs" unicode="&#x17f;" horiz-adv-x="293" 
d="M171 -9q-25 0 -42 18.5t-17 47.5v291h-33q-29 0 -46.5 16t-17.5 41t17.5 41t46.5 16h33v35q0 83 41 128t118 45q90 0 90 -60q0 -55 -71 -55q-32 0 -46 -15.5t-14 -53.5v-429q0 -29 -17 -47.5t-42 -18.5z" />
    <glyph glyph-name="uni018F" unicode="&#x18f;" horiz-adv-x="655" 
d="M484 250h-314v-22q0 -49 39.5 -85.5t104.5 -36.5q64 0 108.5 39t61.5 105zM109 366h383q-9 83 -56.5 134.5t-121.5 51.5q-14 0 -27.5 -2.5t-21.5 -5t-20 -9t-15.5 -9t-15 -11.5t-13.5 -10q-31 -23 -55 -23q-26 0 -40.5 15t-14.5 40q0 29 22 54q30 35 82.5 57t118.5 22
q139 0 221 -98.5t82 -242.5q0 -145 -81.5 -243t-224.5 -98q-126 0 -194.5 75.5t-68.5 183.5v58q0 28 16.5 44.5t44.5 16.5z" />
    <glyph glyph-name="florin" unicode="&#x192;" horiz-adv-x="529" 
d="M311 272v-234q0 -83 -41 -128t-118 -45q-90 0 -90 60q0 55 71 55q32 0 46 15.5t14 53.5v223h-74q-29 0 -46.5 16t-17.5 41t17.5 41t46.5 16h74v111q0 83 41 128t118 45q90 0 90 -60q0 -55 -71 -55q-32 0 -46 -15.5t-14 -53.5v-100h99q29 0 46.5 -16t17.5 -41t-17.5 -41
t-46.5 -16h-99z" />
    <glyph glyph-name="uni01B5" unicode="&#x1b5;" horiz-adv-x="560" 
d="M207 118h250q30 0 48 -17t18 -42t-18 -42t-48 -17h-362q-58 0 -58 52q0 26 26 67l101 154h-57q-29 0 -46 16t-17 40t17 40t46 16h131l103 155h-231q-30 0 -48 17t-18 42t18 42t48 17h343q58 0 58 -52q0 -26 -26 -67l-102 -154h56q29 0 46 -16t17 -40t-17 -40t-46 -16
h-130z" />
    <glyph glyph-name="uni01B6" unicode="&#x1b6;" horiz-adv-x="439" 
d="M199 114h148q29 0 46.5 -16t17.5 -41t-17.5 -41t-46.5 -16h-260q-59 0 -59 50q0 27 22 58l61 85h-34q-23 0 -36 12.5t-13 31.5t13 31.5t36 12.5h98l57 79h-136q-29 0 -46.5 16t-17.5 41t17.5 41t46.5 16h248q59 0 59 -50q0 -27 -22 -58l-62 -85h35q23 0 36 -12.5
t13 -31.5t-13 -31.5t-36 -12.5h-98z" />
    <glyph glyph-name="Aringacute" unicode="&#x1fa;" horiz-adv-x="582" 
d="M214 245h153q-69 191 -76 215q-24 -73 -77 -215zM291 667q19 0 30.5 12.5t11.5 32.5t-11.5 32.5t-30.5 12.5t-30.5 -12.5t-11.5 -32.5t11.5 -32.5t30.5 -12.5zM445 47l-33 82h-243l-32 -82q-22 -56 -65 -56q-27 0 -42 17t-15 44q0 18 16 59l198 504q-53 35 -53 97
q0 47 34 81t81 34t81 -34t34 -81q0 -62 -53 -97l198 -504q16 -41 16 -59q0 -27 -15 -44t-42 -17q-43 0 -65 56zM258 847q-21 0 -34 13.5t-13 33.5q0 27 26 51l105 99q23 21 44 21t34 -13.5t13 -33.5q0 -27 -26 -51l-105 -99q-23 -21 -44 -21z" />
    <glyph glyph-name="aringacute" unicode="&#x1fb;" horiz-adv-x="501" 
d="M308 188v10h-41q-27 0 -43 -1.5t-35 -6.5t-28.5 -17t-9.5 -31q0 -26 18 -39.5t47 -13.5q44 0 68 27.5t24 71.5zM241 527q19 0 30.5 12.5t11.5 32.5t-11.5 32.5t-30.5 12.5t-30.5 -12.5t-11.5 -32.5t11.5 -32.5t30.5 -12.5zM333 49q-37 -61 -130 -61q-78 0 -124 41.5
t-46 111.5q0 153 228 153h47v12q0 70 -78 70q-32 0 -60.5 -19.5t-50.5 -19.5q-25 0 -39.5 14.5t-14.5 36.5q0 37 32.5 60t75.5 31q-47 35 -47 93q0 47 34 81t81 34t81 -34t34 -81q0 -60 -51 -95q55 -15 88 -58t33 -115v-147q0 -46 29 -69q26 -22 26 -50q0 -47 -56 -47
q-61 0 -92 58zM215 707q-21 0 -34 13.5t-13 33.5q0 27 26 51l105 99q23 21 44 21t34 -13.5t13 -33.5q0 -27 -26 -51l-105 -99q-23 -21 -44 -21z" />
    <glyph glyph-name="AEacute" unicode="&#x1fc;" horiz-adv-x="842" 
d="M225 251h151v289h-26zM376 61v74h-200l-43 -98q-19 -46 -61 -46q-26 0 -41.5 16t-15.5 41t16 59l224 510q17 41 69 41h421q30 0 48 -17t18 -42t-18 -42t-48 -17h-247v-144h142q29 0 47 -16.5t18 -41.5t-18 -41.5t-47 -16.5h-142v-162h253q30 0 48 -17t18 -42t-18 -42
t-48 -17h-314q-28 0 -44.5 16.5t-16.5 44.5zM478 702q-21 0 -34 13.5t-13 33.5q0 27 26 51l105 99q23 21 44 21t34 -13.5t13 -33.5q0 -27 -26 -51l-105 -99q-23 -21 -44 -21z" />
    <glyph glyph-name="aeacute" unicode="&#x1fd;" horiz-adv-x="764" 
d="M308 184v10h-41q-27 0 -43 -1.5t-35 -6t-28.5 -16t-9.5 -30.5q0 -25 18 -38t47 -13q44 0 68 26t24 69zM432 290h180q-8 40 -31 65t-59 25t-59 -25t-31 -65zM360 73q-45 -85 -158 -85q-77 0 -123 41t-46 110q0 151 228 151h47v16q0 70 -78 70q-32 0 -60.5 -19.5
t-50.5 -19.5q-25 0 -39.5 14.5t-14.5 36.5q0 27 18.5 47t46.5 30.5t55.5 15.5t51.5 5q94 0 141 -69q49 69 145 69q98 0 154.5 -71.5t56.5 -159.5q0 -29 -16 -45t-45 -16h-243q5 -44 30.5 -70t72.5 -26q10 0 19.5 1.5t15.5 3t13.5 5.5t10.5 6t10 7t9 6q17 12 39 12
t35.5 -14.5t13.5 -36.5q0 -34 -32 -58t-68.5 -33t-69.5 -9q-54 0 -99.5 22t-69.5 63zM363 542q-21 0 -34 13.5t-13 33.5q0 27 26 51l105 99q23 21 44 21t34 -13.5t13 -33.5q0 -27 -26 -51l-105 -99q-23 -21 -44 -21z" />
    <glyph glyph-name="Oslashacute" unicode="&#x1fe;" horiz-adv-x="678" 
d="M339 106q81 0 129.5 63.5t48.5 159.5t-48.5 159.5t-129.5 63.5t-129.5 -63.5t-48.5 -159.5t48.5 -159.5t129.5 -63.5zM339 -12q-92 0 -159 46l-31 -40q-24 -31 -54 -31q-22 0 -35.5 14t-13.5 36q0 24 18 48l38 49q-64 91 -64 219q0 144 82 242.5t219 98.5q92 0 159 -46
l31 40q24 31 54 31q22 0 35.5 -14t13.5 -36q0 -24 -18 -48l-38 -49q64 -91 64 -219q0 -144 -82 -242.5t-219 -98.5zM306 702q-21 0 -34 13.5t-13 33.5q0 27 26 51l105 99q23 21 44 21t34 -13.5t13 -33.5q0 -27 -26 -51l-105 -99q-23 -21 -44 -21z" />
    <glyph glyph-name="oslashacute" unicode="&#x1ff;" horiz-adv-x="518" 
d="M259 102q49 0 78 38.5t29 96.5t-29 96.5t-78 38.5t-78 -38.5t-29 -96.5t29 -96.5t78 -38.5zM259 -12q-58 0 -108 26l-16 -20q-25 -31 -55 -31q-23 0 -38 14t-15 38t19 48l24 30q-37 63 -37 144q0 105 61.5 177t164.5 72q58 0 108 -26l16 20q25 31 55 31q23 0 38 -14
t15 -38t-19 -48l-24 -30q37 -63 37 -144q0 -105 -61.5 -177t-164.5 -72zM226 542q-21 0 -34 13.5t-13 33.5q0 27 26 51l105 99q23 21 44 21t34 -13.5t13 -33.5q0 -27 -26 -51l-105 -99q-23 -21 -44 -21z" />
    <glyph glyph-name="Scommaaccent" unicode="&#x218;" horiz-adv-x="532" 
d="M270 -12q-30 0 -67 6.5t-76.5 20.5t-65.5 40.5t-26 60.5q0 25 15 40.5t41 15.5q28 0 53 -23q17 -15 27.5 -22t37 -16t60.5 -9q104 0 104 72q0 23 -9 39t-31 27.5t-39.5 17t-54.5 15.5q-39 10 -69 24t-59.5 37t-46 59.5t-16.5 84.5q0 90 57 141t165 51q27 0 58.5 -5.5
t65 -16.5t55.5 -34t22 -54q0 -24 -14.5 -38t-39.5 -14q-22 0 -45 16q-48 32 -102 32q-98 0 -98 -73q0 -42 29 -61.5t99 -39.5q33 -9 56.5 -18t52 -25.5t46 -36.5t30 -51.5t12.5 -70.5q0 -88 -58 -140t-169 -52zM237 -275q-24 0 -39 15.5t-15 42.5q0 19 14 68l11 39
q10 33 24.5 51t41.5 18q24 0 39 -15.5t15 -42.5q0 -19 -14 -68l-11 -39q-10 -33 -24.5 -51t-41.5 -18z" />
    <glyph glyph-name="scommaaccent" unicode="&#x219;" horiz-adv-x="427" 
d="M211 -12q-73 0 -126.5 27t-53.5 71q0 21 13 35t38 14q21 0 56.5 -22.5t74.5 -22.5q32 0 51 11t19 32q0 8 -2.5 14t-9 11t-12.5 8t-17.5 7t-18.5 6t-22 5.5t-22 5.5q-29 8 -50 16.5t-43.5 24.5t-34 42.5t-11.5 62.5q0 69 44.5 109.5t129.5 40.5q65 0 110.5 -22.5
t45.5 -64.5q0 -22 -13.5 -35t-36.5 -13q-18 0 -47.5 16.5t-60.5 16.5q-59 0 -59 -39q0 -25 21 -35.5t63 -19.5q32 -7 54.5 -15t49 -24.5t41 -44.5t14.5 -67q0 -73 -49 -112t-136 -39zM185 -275q-24 0 -39 15.5t-15 42.5q0 19 14 68l11 39q10 33 24.5 51t41.5 18
q24 0 39 -15.5t15 -42.5q0 -19 -14 -68l-11 -39q-10 -33 -24.5 -51t-41.5 -18z" />
    <glyph glyph-name="uni021A" unicode="&#x21a;" horiz-adv-x="542" 
d="M332 540v-481q0 -31 -17.5 -49.5t-43.5 -18.5t-43.5 18.5t-17.5 49.5v481h-129q-30 0 -48 17t-18 42t18 42t48 17h380q30 0 48 -17t18 -42t-18 -42t-48 -17h-129zM234 -275q-24 0 -39 15.5t-15 42.5q0 19 14 68l11 39q10 33 24.5 51t41.5 18q24 0 39 -15.5t15 -42.5
q0 -19 -14 -68l-11 -39q-10 -33 -24.5 -51t-41.5 -18z" />
    <glyph glyph-name="uni021B" unicode="&#x21b;" horiz-adv-x="381" 
d="M230 360v-188q0 -38 14 -53.5t46 -15.5q71 0 71 -55q0 -60 -90 -60q-77 0 -118 45t-41 128v199h-33q-29 0 -46.5 16t-17.5 41t17.5 41t46.5 16h33v84q0 29 17 47.5t42 18.5t42 -18.5t17 -47.5v-84h67q29 0 46.5 -16t17.5 -41t-17.5 -41t-46.5 -16h-67zM198 -275
q-24 0 -39 15.5t-15 42.5q0 19 14 68l11 39q10 33 24.5 51t41.5 18q24 0 39 -15.5t15 -42.5q0 -19 -14 -68l-11 -39q-10 -33 -24.5 -51t-41.5 -18z" />
    <glyph glyph-name="dotlessj" unicode="&#x237;" horiz-adv-x="277" 
d="M55 -190q-90 0 -90 60q0 55 71 55q32 0 46 15.5t14 53.5v423q0 30 17 48t42 18t42 -18t17 -48v-434q0 -83 -41 -128t-118 -45z" />
    <glyph glyph-name="uni0259" unicode="&#x259;" horiz-adv-x="489" 
d="M332 187h-180q7 -42 30 -67.5t60 -25.5t60 25.5t30 67.5zM91 283h243q-14 93 -103 93q-10 0 -19.5 -1.5t-15.5 -3t-13.5 -5.5t-10.5 -6t-10 -7t-9 -6q-17 -12 -39 -12t-35.5 14.5t-13.5 36.5q0 34 32 58t68.5 33t69.5 9q102 0 161.5 -72t59.5 -178q0 -105 -57.5 -176.5
t-156.5 -71.5q-100 0 -156 71.5t-56 162.5q0 28 16 44.5t45 16.5z" />
    <glyph glyph-name="circumflex" unicode="&#x2c6;" horiz-adv-x="500" 
d="M250 628l-80 -76q-23 -21 -44 -21t-34 13.5t-13 33.5q0 27 26 51l109 103q17 17 36 17t36 -17l109 -103q26 -24 26 -51q0 -20 -13 -33.5t-34 -13.5t-44 21z" />
    <glyph glyph-name="caron" unicode="&#x2c7;" horiz-adv-x="500" 
d="M250 652l80 76q23 21 44 21t34 -13.5t13 -33.5q0 -27 -26 -51l-109 -103q-17 -17 -36 -17t-36 17l-109 103q-26 24 -26 51q0 20 13 33.5t34 13.5t44 -21z" />
    <glyph glyph-name="breve" unicode="&#x2d8;" horiz-adv-x="500" 
d="M250 540q-66 0 -116.5 44.5t-50.5 98.5q0 27 13 40.5t34 13.5q28 0 43 -24q5 -7 13.5 -23.5t14 -25t18.5 -16.5t31 -8t31 8t18.5 16.5t14 25t13.5 23.5q15 24 43 24q21 0 34 -13.5t13 -40.5q0 -54 -50.5 -98.5t-116.5 -44.5z" />
    <glyph glyph-name="dotaccent" unicode="&#x2d9;" horiz-adv-x="500" 
d="M250 548q-28 0 -48.5 20t-20.5 49t20.5 49t48.5 20t48.5 -20t20.5 -49t-20.5 -49t-48.5 -20z" />
    <glyph glyph-name="ring" unicode="&#x2da;" horiz-adv-x="500" 
d="M250 610q19 0 30.5 12.5t11.5 32.5t-11.5 32.5t-30.5 12.5t-30.5 -12.5t-11.5 -32.5t11.5 -32.5t30.5 -12.5zM250 540q-47 0 -81 34t-34 81t34 81t81 34t81 -34t34 -81t-34 -81t-81 -34z" />
    <glyph glyph-name="ogonek" unicode="&#x2db;" horiz-adv-x="500" 
d="M257 -245q-59 0 -94 36.5t-35 95.5q0 71 43 129t92 58q19 0 31 -11t12 -29t-14 -32.5t-30.5 -24t-30.5 -31t-14 -51.5q0 -55 44 -55q17 0 37 14t34 14q18 0 28.5 -11t10.5 -29q0 -31 -34 -52t-80 -21z" />
    <glyph glyph-name="tilde" unicode="&#x2dc;" horiz-adv-x="500" 
d="M315 545q-35 0 -71.5 22.5t-52.5 22.5q-18 0 -38.5 -22.5t-42.5 -22.5t-33.5 13t-11.5 34q0 38 36 67.5t84 29.5q35 0 71.5 -22.5t52.5 -22.5q18 0 38.5 22.5t42.5 22.5t33.5 -13t11.5 -34q0 -38 -36 -67.5t-84 -29.5z" />
    <glyph glyph-name="hungarumlaut" unicode="&#x2dd;" horiz-adv-x="500" 
d="M79 542q-21 0 -34 13.5t-13 33.5q0 27 26 51l105 99q23 21 44 21t34 -13.5t13 -33.5q0 -27 -26 -51l-105 -99q-23 -21 -44 -21zM293 542q-21 0 -34 13.5t-13 33.5q0 27 26 51l105 99q23 21 44 21t34 -13.5t13 -33.5q0 -27 -26 -51l-105 -99q-23 -21 -44 -21z" />
    <glyph glyph-name="Delta" unicode="&#x394;" horiz-adv-x="614" 
d="M444 116q-32 65 -53 117l-42 106q-18 47 -42 116q-24 -69 -42 -116l-42 -106q-21 -52 -53 -117q40 2 120 2h34q80 0 120 -2zM528 0h-442q-28 0 -44.5 14.5t-16.5 41.5q0 18 6 36t19.5 48.5t18.5 41.5l176 433q21 52 62 52t62 -52l176 -433q5 -11 18.5 -41.5t19.5 -48.5
t6 -36q0 -27 -16.5 -41.5t-44.5 -14.5z" />
    <glyph glyph-name="Omega" unicode="&#x3a9;" horiz-adv-x="718" 
d="M559 118h35q30 0 48 -17t18 -42t-18 -42t-48 -17h-137q-30 0 -48 17t-18 41q0 21 15 39.5t36.5 36t43 40.5t36.5 63.5t15 93.5q0 99 -47.5 160t-130.5 61t-130.5 -61t-47.5 -160q0 -53 15 -93.5t36.5 -63.5t43 -40.5t36.5 -36t15 -39.5q0 -24 -18 -41t-48 -17h-137
q-30 0 -48 17t-18 42t18 42t48 17h35q-101 88 -101 223q0 86 34 159.5t104 121.5t163 48t163 -48t104 -121.5t34 -159.5q0 -135 -101 -223z" />
    <glyph glyph-name="mu" unicode="&#x3bc;" horiz-adv-x="534" 
d="M353 65q-18 -40 -46.5 -58.5t-73.5 -18.5q-26 0 -52 8v-65q0 -30 -17 -48t-42 -18t-42 18t-17 48v486q0 29 17 47.5t42 18.5t42 -18.5t17 -47.5v-208q0 -107 77 -107q41 0 68 31t27 86v198q0 29 17 47.5t42 18.5t42 -18.5t17 -47.5v-360q0 -30 -17 -48t-42 -18t-42 18
t-17 48v8z" />
    <glyph glyph-name="pi" unicode="&#x3c0;" horiz-adv-x="649" 
d="M503 360v-203q0 -46 29 -69q26 -22 26 -50q0 -47 -56 -47q-54 0 -85.5 47.5t-31.5 131.5v190h-121v-303q0 -30 -17 -48t-42 -18t-42 18t-17 48v303h-52q-29 0 -46.5 16t-17.5 41t17.5 41t46.5 16h461q29 0 46.5 -16t17.5 -41t-17.5 -41t-46.5 -16h-52z" />
    <glyph glyph-name="Wgrave" unicode="&#x1e80;" horiz-adv-x="866" 
d="M609 240q38 127 59 193l57 179q18 55 63 55q28 0 43 -16.5t15 -44.5q0 -15 -12 -56l-163 -505q-17 -52 -61 -52t-61 52l-58 185q-30 96 -58 194q-28 -98 -58 -194l-58 -185q-17 -52 -61 -52t-61 52l-163 505q-12 41 -12 56q0 28 15 44.5t43 16.5q45 0 63 -55l57 -179
q21 -66 59 -193q15 56 57 193l57 182q17 52 62 52t62 -52l57 -182q42 -137 57 -193zM479 702q-21 0 -44 21l-105 99q-26 24 -26 51q0 20 13 33.5t34 13.5t44 -21l105 -99q26 -24 26 -51q0 -20 -13 -33.5t-34 -13.5z" />
    <glyph glyph-name="wgrave" unicode="&#x1e81;" horiz-adv-x="680" 
d="M340 279q-26 -92 -54 -179l-20 -60q-16 -49 -60 -49q-41 0 -58 49l-118 333q-13 39 -13 53q0 24 14.5 40.5t41.5 16.5q44 0 63 -56l21 -62q28 -82 49 -167q47 153 54 173l22 63q17 49 58 49t58 -49l22 -63q7 -20 54 -173q21 85 49 167l21 62q19 56 63 56q27 0 41.5 -16.5
t14.5 -40.5q0 -14 -13 -53l-118 -333q-17 -49 -58 -49q-44 0 -60 49l-20 60q-28 87 -54 179zM381 542q-21 0 -44 21l-105 99q-26 24 -26 51q0 20 13 33.5t34 13.5t44 -21l105 -99q26 -24 26 -51q0 -20 -13 -33.5t-34 -13.5z" />
    <glyph glyph-name="Wacute" unicode="&#x1e82;" horiz-adv-x="866" 
d="M609 240q38 127 59 193l57 179q18 55 63 55q28 0 43 -16.5t15 -44.5q0 -15 -12 -56l-163 -505q-17 -52 -61 -52t-61 52l-58 185q-30 96 -58 194q-28 -98 -58 -194l-58 -185q-17 -52 -61 -52t-61 52l-163 505q-12 41 -12 56q0 28 15 44.5t43 16.5q45 0 63 -55l57 -179
q21 -66 59 -193q15 56 57 193l57 182q17 52 62 52t62 -52l57 -182q42 -137 57 -193zM387 702q-21 0 -34 13.5t-13 33.5q0 27 26 51l105 99q23 21 44 21t34 -13.5t13 -33.5q0 -27 -26 -51l-105 -99q-23 -21 -44 -21z" />
    <glyph glyph-name="wacute" unicode="&#x1e83;" horiz-adv-x="680" 
d="M340 279q-26 -92 -54 -179l-20 -60q-16 -49 -60 -49q-41 0 -58 49l-118 333q-13 39 -13 53q0 24 14.5 40.5t41.5 16.5q44 0 63 -56l21 -62q28 -82 49 -167q47 153 54 173l22 63q17 49 58 49t58 -49l22 -63q7 -20 54 -173q21 85 49 167l21 62q19 56 63 56q27 0 41.5 -16.5
t14.5 -40.5q0 -14 -13 -53l-118 -333q-17 -49 -58 -49q-44 0 -60 49l-20 60q-28 87 -54 179zM299 542q-21 0 -34 13.5t-13 33.5q0 27 26 51l105 99q23 21 44 21t34 -13.5t13 -33.5q0 -27 -26 -51l-105 -99q-23 -21 -44 -21z" />
    <glyph glyph-name="Wdieresis" unicode="&#x1e84;" horiz-adv-x="866" 
d="M609 240q38 127 59 193l57 179q18 55 63 55q28 0 43 -16.5t15 -44.5q0 -15 -12 -56l-163 -505q-17 -52 -61 -52t-61 52l-58 185q-30 96 -58 194q-28 -98 -58 -194l-58 -185q-17 -52 -61 -52t-61 52l-163 505q-12 41 -12 56q0 28 15 44.5t43 16.5q45 0 63 -55l57 -179
q21 -66 59 -193q15 56 57 193l57 182q17 52 62 52t62 -52l57 -182q42 -137 57 -193zM335 708q-29 0 -49 20t-20 49t20 49t49 20t49 -20t20 -49t-20 -49t-49 -20zM530 708q-28 0 -48.5 20t-20.5 49t20.5 49t48.5 20t48.5 -20t20.5 -49t-20.5 -49t-48.5 -20z" />
    <glyph glyph-name="wdieresis" unicode="&#x1e85;" horiz-adv-x="680" 
d="M340 279q-26 -92 -54 -179l-20 -60q-16 -49 -60 -49q-41 0 -58 49l-118 333q-13 39 -13 53q0 24 14.5 40.5t41.5 16.5q44 0 63 -56l21 -62q28 -82 49 -167q47 153 54 173l22 63q17 49 58 49t58 -49l22 -63q7 -20 54 -173q21 85 49 167l21 62q19 56 63 56q27 0 41.5 -16.5
t14.5 -40.5q0 -14 -13 -53l-118 -333q-17 -49 -58 -49q-44 0 -60 49l-20 60q-28 87 -54 179zM243 548q-29 0 -49 20t-20 49t20 49t49 20t49 -20t20 -49t-20 -49t-49 -20zM438 548q-28 0 -48.5 20t-20.5 49t20.5 49t48.5 20t48.5 -20t20.5 -49t-20.5 -49t-48.5 -20z" />
    <glyph glyph-name="uni1E8A" unicode="&#x1e8a;" horiz-adv-x="550" 
d="M272 236q-7 -11 -73 -112l-57 -86q-32 -47 -70 -47q-25 0 -39.5 15.5t-14.5 40.5q0 27 24 61l155 233l-145 207q-24 33 -24 61q0 25 14.5 40.5t39.5 15.5q38 0 70 -47l52 -75q48 -68 74 -107q18 30 70 107l50 75q32 47 70 47q25 0 39.5 -15.5t14.5 -40.5q0 -24 -24 -61
l-146 -216l156 -224q24 -34 24 -61q0 -25 -14.5 -40.5t-39.5 -15.5q-38 0 -70 47l-60 86q-31 44 -76 112zM275 708q-29 0 -49 20t-20 49t20 49t49 20t49 -20t20 -49t-20 -49t-49 -20z" />
    <glyph glyph-name="uni1E8B" unicode="&#x1e8b;" horiz-adv-x="454" 
d="M223 158l-92 -134q-23 -33 -58 -33q-24 0 -38.5 15t-14.5 39q0 26 19 52l110 151l-100 129q-19 26 -19 52q0 24 14.5 39t38.5 15q34 0 58 -33l90 -120l81 120q22 33 58 33q24 0 38.5 -15t14.5 -39q0 -26 -19 -52l-99 -138l110 -142q19 -26 19 -52q0 -24 -14.5 -39
t-38.5 -15q-34 0 -58 33zM227 548q-29 0 -49 20t-20 49t20 49t49 20t49 -20t20 -49t-20 -49t-49 -20z" />
    <glyph glyph-name="Ygrave" unicode="&#x1ef2;" horiz-adv-x="526" 
d="M263 371q51 104 81 160l40 76q17 31 32 44.5t39 13.5q26 0 41 -15.5t15 -41.5q0 -24 -19 -58l-168 -307v-184q0 -31 -17.5 -49.5t-43.5 -18.5t-43.5 18.5t-17.5 49.5v184l-168 307q-19 34 -19 58q0 26 15 41.5t41 15.5q24 0 39 -13.5t32 -44.5l40 -76q30 -56 81 -160z
M286 702q-21 0 -44 21l-105 99q-26 24 -26 51q0 20 13 33.5t34 13.5t44 -21l105 -99q26 -24 26 -51q0 -20 -13 -33.5t-34 -13.5z" />
    <glyph glyph-name="ygrave" unicode="&#x1ef3;" horiz-adv-x="446" 
d="M223 167q42 150 91 266q22 50 62 50q24 0 39.5 -14.5t15.5 -41.5q0 -19 -9 -41l-129 -321q-17 -41 -35.5 -77t-48 -79.5t-67 -69.5t-76.5 -26q-28 0 -44 14.5t-16 38.5q0 29 27 48q5 4 29 18t37 24.5t31 36t28 59.5l-134 334q-9 22 -9 41q0 27 15.5 41.5t39.5 14.5
q40 0 62 -50q49 -116 91 -266zM240 542q-21 0 -44 21l-105 99q-26 24 -26 51q0 20 13 33.5t34 13.5t44 -21l105 -99q26 -24 26 -51q0 -20 -13 -33.5t-34 -13.5z" />
    <glyph glyph-name="enspace" unicode="&#x2002;" horiz-adv-x="500" 
 />
    <glyph glyph-name="emspace" unicode="&#x2003;" horiz-adv-x="1000" 
 />
    <glyph glyph-name="threeperemspace" unicode="&#x2004;" horiz-adv-x="333" 
 />
    <glyph glyph-name="fourperemspace" unicode="&#x2005;" horiz-adv-x="250" 
 />
    <glyph glyph-name="sixperemspace" unicode="&#x2006;" horiz-adv-x="167" 
 />
    <glyph glyph-name="figurespace" unicode="&#x2007;" 
 />
    <glyph glyph-name="punctuationspace" unicode="&#x2008;" horiz-adv-x="300" 
 />
    <glyph glyph-name="thinspace" unicode="&#x2009;" horiz-adv-x="125" 
 />
    <glyph glyph-name="hairspace" unicode="&#x200a;" horiz-adv-x="42" 
 />
    <glyph glyph-name="zerowidthspace" unicode="&#x200b;" horiz-adv-x="0" 
 />
    <glyph glyph-name="endash" unicode="&#x2013;" horiz-adv-x="606" 
d="M483 181h-360q-30 0 -48 17t-18 42t18 42t48 17h360q30 0 48 -17t18 -42t-18 -42t-48 -17z" />
    <glyph glyph-name="emdash" unicode="&#x2014;" horiz-adv-x="732" 
d="M609 181h-486q-30 0 -48 17t-18 42t18 42t48 17h486q30 0 48 -17t18 -42t-18 -42t-48 -17z" />
    <glyph glyph-name="quoteleft" unicode="&#x2018;" horiz-adv-x="269" 
d="M104 349q-24 0 -39 15.5t-15 42.5q0 19 14 68l35 123q10 33 24.5 51t41.5 18q24 0 39 -15.5t15 -42.5q0 -19 -14 -68l-35 -123q-10 -33 -24.5 -51t-41.5 -18z" />
    <glyph glyph-name="quoteright" unicode="&#x2019;" horiz-adv-x="269" 
d="M104 349q-24 0 -39 15.5t-15 42.5q0 19 14 68l35 123q10 33 24.5 51t41.5 18q24 0 39 -15.5t15 -42.5q0 -19 -14 -68l-35 -123q-10 -33 -24.5 -51t-41.5 -18z" />
    <glyph glyph-name="quotesinglbase" unicode="&#x201a;" horiz-adv-x="269" 
d="M104 -163q-24 0 -39 15.5t-15 42.5q0 19 14 68l35 123q10 33 24.5 51t41.5 18q24 0 39 -15.5t15 -42.5q0 -19 -14 -68l-35 -123q-10 -33 -24.5 -51t-41.5 -18z" />
    <glyph glyph-name="quotedblleft" unicode="&#x201c;" horiz-adv-x="467" 
d="M302 349q-24 0 -39 15.5t-15 42.5q0 19 14 68l35 123q10 33 24.5 51t41.5 18q24 0 39 -15.5t15 -42.5q0 -19 -14 -68l-35 -123q-10 -33 -24.5 -51t-41.5 -18zM104 349q-24 0 -39 15.5t-15 42.5q0 19 14 68l35 123q10 33 24.5 51t41.5 18q24 0 39 -15.5t15 -42.5
q0 -19 -14 -68l-35 -123q-10 -33 -24.5 -51t-41.5 -18z" />
    <glyph glyph-name="quotedblright" unicode="&#x201d;" horiz-adv-x="467" 
d="M302 349q-24 0 -39 15.5t-15 42.5q0 19 14 68l35 123q10 33 24.5 51t41.5 18q24 0 39 -15.5t15 -42.5q0 -19 -14 -68l-35 -123q-10 -33 -24.5 -51t-41.5 -18zM104 349q-24 0 -39 15.5t-15 42.5q0 19 14 68l35 123q10 33 24.5 51t41.5 18q24 0 39 -15.5t15 -42.5
q0 -19 -14 -68l-35 -123q-10 -33 -24.5 -51t-41.5 -18z" />
    <glyph glyph-name="quotedblbase" unicode="&#x201e;" horiz-adv-x="467" 
d="M302 -163q-24 0 -39 15.5t-15 42.5q0 19 14 68l35 123q10 33 24.5 51t41.5 18q24 0 39 -15.5t15 -42.5q0 -19 -14 -68l-35 -123q-10 -33 -24.5 -51t-41.5 -18zM104 -163q-24 0 -39 15.5t-15 42.5q0 19 14 68l35 123q10 33 24.5 51t41.5 18q24 0 39 -15.5t15 -42.5
q0 -19 -14 -68l-35 -123q-10 -33 -24.5 -51t-41.5 -18z" />
    <glyph glyph-name="dagger" unicode="&#x2020;" horiz-adv-x="466" 
d="M292 360v-303q0 -30 -17 -48t-42 -18t-42 18t-17 48v303h-83q-29 0 -46.5 16t-17.5 41t17.5 41t46.5 16h83v127q0 30 17 48t42 18t42 -18t17 -48v-127h83q29 0 46.5 -16t17.5 -41t-17.5 -41t-46.5 -16h-83z" />
    <glyph glyph-name="daggerdbl" unicode="&#x2021;" horiz-adv-x="466" 
d="M292 165v-108q0 -30 -17 -48t-42 -18t-42 18t-17 48v108h-83q-29 0 -46.5 16t-17.5 41t17.5 41t46.5 16h83v100h-83q-29 0 -46.5 16t-17.5 41t17.5 41t46.5 16h83v108q0 30 17 48t42 18t42 -18t17 -48v-108h83q29 0 46.5 -16t17.5 -41t-17.5 -41t-46.5 -16h-83v-100h83
q29 0 46.5 -16t17.5 -41t-17.5 -41t-46.5 -16h-83z" />
    <glyph glyph-name="bullet" unicode="&#x2022;" horiz-adv-x="342" 
d="M171 213q-47 0 -81.5 34.5t-34.5 81.5t34.5 81.5t81.5 34.5t81.5 -34.5t34.5 -81.5t-34.5 -81.5t-81.5 -34.5z" />
    <glyph glyph-name="ellipsis" unicode="&#x2026;" horiz-adv-x="697" 
d="M136 -9q-29 0 -51 21.5t-22 51.5q0 29 22 50.5t51 21.5t51 -21.5t22 -50.5q0 -30 -22 -51.5t-51 -21.5zM349 -9q-30 0 -51.5 21.5t-21.5 51.5q0 29 21.5 50.5t51.5 21.5q29 0 50.5 -21.5t21.5 -50.5q0 -30 -21.5 -51.5t-50.5 -21.5zM562 -9q-30 0 -51.5 21.5t-21.5 51.5
q0 29 21.5 50.5t51.5 21.5q29 0 50.5 -21.5t21.5 -50.5q0 -30 -21.5 -51.5t-50.5 -21.5z" />
    <glyph glyph-name="guilsinglleft" unicode="&#x2039;" horiz-adv-x="348" 
d="M176 228l104 -111q23 -23 23 -50q0 -24 -15 -40t-41 -16q-30 0 -55 27l-141 152q-16 16 -16 38t16 38l141 152q25 27 55 27q26 0 41 -16t15 -40q0 -27 -23 -50z" />
    <glyph glyph-name="guilsinglright" unicode="&#x203a;" horiz-adv-x="348" 
d="M172 228l-104 111q-23 23 -23 50q0 24 15 40t41 16q30 0 55 -27l141 -152q16 -16 16 -38t-16 -38l-141 -152q-25 -27 -55 -27q-26 0 -41 16t-15 40q0 27 23 50z" />
    <glyph glyph-name="fraction" unicode="&#x2044;" horiz-adv-x="172" 
d="M-56 -9q-34 0 -34 36q0 13 7 29l270 581q13 30 41 30q34 0 34 -36q0 -13 -7 -29l-270 -581q-13 -30 -41 -30z" />
    <glyph glyph-name="uni2070" unicode="&#x2070;" horiz-adv-x="405" 
d="M202 334q38 0 60 36t22 90t-22 90.5t-60 36.5q-37 0 -59 -36.5t-22 -90.5t22 -90t59 -36zM202 256q-74 0 -118 59t-44 145q0 87 44 146t118 59q75 0 119 -59t44 -146t-44 -145.5t-119 -58.5z" />
    <glyph glyph-name="uni2074" unicode="&#x2074;" horiz-adv-x="380" 
d="M287 337v-35q0 -20 -11.5 -32.5t-28.5 -12.5t-28.5 12.5t-11.5 32.5v35h-139q-39 0 -39 38q0 15 12 39l104 213q17 36 46 36q17 0 26.5 -10.5t9.5 -26.5t-13 -40l-41 -82q-22 -45 -49 -92q23 1 65 1h18v49q0 20 11.5 32.5t28.5 12.5t28.5 -12.5t11.5 -32.5v-47h20
q20 0 32 -11t12 -28t-12 -28t-32 -11h-20z" />
    <glyph glyph-name="uni2075" unicode="&#x2075;" horiz-adv-x="344" 
d="M125 506q23 14 55 14q52 0 89 -36.5t37 -92.5q0 -58 -39 -96.5t-105 -38.5q-54 0 -90.5 25t-36.5 59q0 17 10 27.5t27 10.5q18 0 40.5 -22t50.5 -22q27 0 44.5 14.5t17.5 41.5q0 26 -17 40.5t-45 14.5q-23 0 -45 -12t-35 -12q-17 0 -27 11t-10 28q0 16 2 44l7 116
q2 38 41 38h141q20 0 32 -11t12 -28t-12 -28t-32 -11h-104z" />
    <glyph glyph-name="uni2076" unicode="&#x2076;" horiz-adv-x="349" 
d="M176 464q-27 0 -42.5 -18.5t-15.5 -46.5t15.5 -46.5t42.5 -18.5q26 0 42 18.5t16 46.5t-16 46.5t-42 18.5zM135 514q27 20 61 20q52 0 85.5 -38t33.5 -97q0 -61 -37.5 -102t-103.5 -41q-65 0 -101.5 42t-36.5 118t34.5 140.5t92.5 95.5q22 12 40 12t28.5 -10t10.5 -26
q0 -17 -12.5 -28t-28.5 -18t-35.5 -24.5t-30.5 -43.5z" />
    <glyph glyph-name="uni2077" unicode="&#x2077;" horiz-adv-x="340" 
d="M214 582q-24 -2 -72 -2h-25v-18q0 -20 -11.5 -32.5t-28.5 -12.5t-28.5 12.5t-11.5 32.5v55q0 19 10.5 30t29.5 11h186q43 0 43 -36q0 -10 -12 -41l-114 -288q-14 -36 -43 -36q-36 0 -36 38q0 16 9 38l63 156q8 18 22.5 51t18.5 42z" />
    <glyph glyph-name="uni2078" unicode="&#x2078;" horiz-adv-x="358" 
d="M179 506q22 0 34.5 11.5t12.5 29.5t-12.5 29t-34.5 11t-34.5 -11t-12.5 -29t12.5 -29.5t34.5 -11.5zM179 334q27 0 43 14t16 35q0 22 -16 36t-43 14t-43 -14t-16 -36q0 -21 16 -35t43 -14zM179 256q-66 0 -103 34.5t-37 87.5q0 67 55 91q-43 27 -43 84q0 49 34.5 80.5
t93.5 31.5t93.5 -31.5t34.5 -80.5q0 -57 -43 -84q55 -24 55 -91q0 -53 -37 -87.5t-103 -34.5z" />
    <glyph glyph-name="uni2079" unicode="&#x2079;" horiz-adv-x="349" 
d="M173 457q27 0 42.5 18.5t15.5 46.5t-15.5 46.5t-42.5 18.5q-26 0 -42 -18.5t-16 -46.5t16 -46.5t42 -18.5zM214 407q-27 -20 -61 -20q-52 0 -85.5 38t-33.5 97q0 61 37.5 102t103.5 41q65 0 101.5 -42t36.5 -118t-34.5 -140.5t-92.5 -95.5q-22 -12 -40 -12t-28.5 10
t-10.5 26q0 17 12.5 28t28.5 18t35.5 24.5t30.5 43.5z" />
    <glyph glyph-name="uni2080" unicode="&#x2080;" horiz-adv-x="405" 
d="M202 -116q38 0 60 36t22 90t-22 90.5t-60 36.5q-37 0 -59 -36.5t-22 -90.5t22 -90t59 -36zM202 -194q-74 0 -118 59t-44 145q0 87 44 146t118 59q75 0 119 -59t44 -146t-44 -145.5t-119 -58.5z" />
    <glyph glyph-name="uni2081" unicode="&#x2081;" horiz-adv-x="261" 
d="M123 97l-21 -19q-20 -16 -39 -16q-17 0 -27.5 10t-10.5 27q0 23 23 40l84 63q16 11 32 11q36 0 36 -40v-321q0 -20 -11.5 -32.5t-28.5 -12.5t-28.5 12.5t-11.5 32.5v160q0 43 3 85z" />
    <glyph glyph-name="uni2082" unicode="&#x2082;" horiz-adv-x="349" 
d="M123 -110q28 1 89 1h55q20 0 32 -11t12 -28t-12 -28t-32 -11h-185q-40 0 -40 47v14q0 30 9 53.5t29.5 43t34 28.5t40.5 26q23 14 34.5 22t22 22t10.5 29q0 17 -12 28t-35 11q-31 0 -53 -26t-42 -26q-36 0 -36 38q0 37 39 64.5t95 27.5q60 0 93 -33t33 -84q0 -73 -84 -126
q-10 -7 -27.5 -17t-27.5 -16t-21 -14.5t-16 -17t-5 -17.5z" />
    <glyph glyph-name="uni2083" unicode="&#x2083;" horiz-adv-x="339" 
d="M161 -194q-57 0 -93 25t-36 59q0 18 10.5 27.5t27.5 9.5t39.5 -21.5t50.5 -21.5t43.5 13.5t15.5 35.5t-15.5 35.5t-43.5 13.5h-18q-18 0 -29.5 10.5t-11.5 26.5t11.5 27t29.5 11h18q22 0 35 11t13 29t-12.5 29t-35.5 11q-22 0 -40.5 -16t-35.5 -16q-18 0 -28 10t-10 26
q0 31 33 52.5t82 21.5q59 0 93.5 -31.5t34.5 -80.5q0 -57 -44 -84q55 -24 55 -91q0 -53 -37 -87.5t-102 -34.5z" />
    <glyph glyph-name="uni2084" unicode="&#x2084;" horiz-adv-x="380" 
d="M287 -113v-35q0 -20 -11.5 -32.5t-28.5 -12.5t-28.5 12.5t-11.5 32.5v35h-139q-39 0 -39 38q0 15 12 39l104 213q17 36 46 36q17 0 26.5 -10.5t9.5 -26.5t-13 -40l-41 -82q-22 -45 -49 -92q23 1 65 1h18v49q0 20 11.5 32.5t28.5 12.5t28.5 -12.5t11.5 -32.5v-47h20
q20 0 32 -11t12 -28t-12 -28t-32 -11h-20z" />
    <glyph glyph-name="uni2085" unicode="&#x2085;" horiz-adv-x="344" 
d="M125 56q23 14 55 14q52 0 89 -36.5t37 -92.5q0 -58 -39 -96.5t-105 -38.5q-54 0 -90.5 25t-36.5 59q0 17 10 27.5t27 10.5q18 0 40.5 -22t50.5 -22q27 0 44.5 14.5t17.5 41.5q0 26 -17 40.5t-45 14.5q-23 0 -45 -12t-35 -12q-17 0 -27 11t-10 28q0 16 2 44l7 116
q2 38 41 38h141q20 0 32 -11t12 -28t-12 -28t-32 -11h-104z" />
    <glyph glyph-name="uni2086" unicode="&#x2086;" horiz-adv-x="349" 
d="M176 14q-27 0 -42.5 -18.5t-15.5 -46.5t15.5 -46.5t42.5 -18.5q26 0 42 18.5t16 46.5t-16 46.5t-42 18.5zM135 64q27 20 61 20q52 0 85.5 -38t33.5 -97q0 -61 -37.5 -102t-103.5 -41q-65 0 -101.5 42t-36.5 118t34.5 140.5t92.5 95.5q22 12 40 12t28.5 -10t10.5 -26
q0 -17 -12.5 -28t-28.5 -18t-35.5 -24.5t-30.5 -43.5z" />
    <glyph glyph-name="uni2087" unicode="&#x2087;" horiz-adv-x="340" 
d="M214 132q-24 -2 -72 -2h-25v-18q0 -20 -11.5 -32.5t-28.5 -12.5t-28.5 12.5t-11.5 32.5v55q0 19 10.5 30t29.5 11h186q43 0 43 -36q0 -10 -12 -41l-114 -288q-14 -36 -43 -36q-36 0 -36 38q0 16 9 38l63 156q8 18 22.5 51t18.5 42z" />
    <glyph glyph-name="uni2088" unicode="&#x2088;" horiz-adv-x="358" 
d="M179 56q22 0 34.5 11.5t12.5 29.5t-12.5 29t-34.5 11t-34.5 -11t-12.5 -29t12.5 -29.5t34.5 -11.5zM179 -116q27 0 43 14t16 35q0 22 -16 36t-43 14t-43 -14t-16 -36q0 -21 16 -35t43 -14zM179 -194q-66 0 -103 34.5t-37 87.5q0 67 55 91q-43 27 -43 84q0 49 34.5 80.5
t93.5 31.5t93.5 -31.5t34.5 -80.5q0 -57 -43 -84q55 -24 55 -91q0 -53 -37 -87.5t-103 -34.5z" />
    <glyph glyph-name="uni2089" unicode="&#x2089;" horiz-adv-x="349" 
d="M173 7q27 0 42.5 18.5t15.5 46.5t-15.5 46.5t-42.5 18.5q-26 0 -42 -18.5t-16 -46.5t16 -46.5t42 -18.5zM214 -43q-27 -20 -61 -20q-52 0 -85.5 38t-33.5 97q0 61 37.5 102t103.5 41q65 0 101.5 -42t36.5 -118t-34.5 -140.5t-92.5 -95.5q-22 -12 -40 -12t-28.5 10
t-10.5 26q0 17 12.5 28t28.5 18t35.5 24.5t30.5 43.5z" />
    <glyph glyph-name="Euro" unicode="&#x20ac;" horiz-adv-x="646" 
d="M266 213q40 -107 135 -107q15 0 28 3t25 9.5t18.5 10.5t18.5 14t15 12q24 19 50 19q23 0 37.5 -15t14.5 -38q0 -25 -15 -47q-28 -41 -80 -63.5t-115 -22.5q-97 0 -165.5 62t-94.5 163h-59q-23 0 -36 12.5t-13 31.5t13 31.5t36 12.5h46q-1 9 -1 28q0 18 1 28h-46
q-23 0 -36 12.5t-13 31.5t13 31.5t36 12.5h59q26 101 94.5 163t165.5 62q63 0 115 -22.5t80 -63.5q15 -22 15 -47q0 -23 -14.5 -38t-37.5 -15q-26 0 -50 19q-3 2 -15 12t-18.5 14t-18.5 10.5t-25 9.5t-28 3q-95 0 -135 -107h161q23 0 36 -12.5t13 -31.5t-13 -31.5t-36 -12.5
h-179q-1 -9 -1 -28t1 -28h152q23 0 36 -12.5t13 -31.5t-13 -31.5t-36 -12.5h-134z" />
    <glyph glyph-name="trademark" unicode="&#x2122;" horiz-adv-x="712" 
d="M210 576v-222q0 -22 -12 -35t-31 -13t-31 13t-12 35v222h-48q-21 0 -33.5 11.5t-12.5 29.5t12.5 29.5t33.5 11.5h182q21 0 33.5 -11.5t12.5 -29.5t-12.5 -29.5t-33.5 -11.5h-48zM495 494l73 128q9 15 14 22t14 12.5t20 5.5q38 0 38 -44v-264q0 -22 -12 -35t-31 -13
t-31 13t-12 35v33q0 35 3 87q-13 -30 -18 -39l-12 -22q-18 -35 -46 -35t-46 35l-12 22q-5 9 -18 39q3 -52 3 -87v-33q0 -22 -12 -35t-31 -13t-31 13t-12 35v264q0 44 38 44q16 0 25.5 -9t22.5 -31z" />
    <glyph glyph-name="uni2126" unicode="&#x2126;" horiz-adv-x="718" 
d="M559 118h35q30 0 48 -17t18 -42t-18 -42t-48 -17h-137q-30 0 -48 17t-18 41q0 21 15 39.5t36.5 36t43 40.5t36.5 63.5t15 93.5q0 99 -47.5 160t-130.5 61t-130.5 -61t-47.5 -160q0 -53 15 -93.5t36.5 -63.5t43 -40.5t36.5 -36t15 -39.5q0 -24 -18 -41t-48 -17h-137
q-30 0 -48 17t-18 42t18 42t48 17h35q-101 88 -101 223q0 86 34 159.5t104 121.5t163 48t163 -48t104 -121.5t34 -159.5q0 -135 -101 -223z" />
    <glyph glyph-name="estimated" unicode="&#x212e;" horiz-adv-x="769" 
d="M205 553v-180h360v180q-79 73 -182 73t-178 -73zM704 328h-499v-223q72 -72 179 -72q152 0 239 148l44 -26q-58 -90 -122.5 -128.5t-160.5 -38.5q-143 0 -231 97t-88 243q0 147 88 244.5t231 97.5q142 0 230.5 -95.5t89.5 -246.5z" />
    <glyph glyph-name="arrowleft" unicode="&#x2190;" horiz-adv-x="800" 
d="M298 270l104 -104q26 -26 26 -54q0 -26 -15.5 -42t-40.5 -16q-28 0 -54 26l-211 211q-16 16 -16 38t16 38l211 211q26 26 54 26q25 0 40.5 -16t15.5 -42q0 -28 -26 -54l-104 -104h345q30 0 48 -17t18 -42t-18 -42t-48 -17h-345z" />
    <glyph glyph-name="arrowup" unicode="&#x2191;" horiz-adv-x="800" 
d="M460 430v-343q0 -31 -17 -49t-43 -18t-43 18t-17 49v343l-105 -105q-26 -26 -54 -26q-25 0 -40.5 16t-15.5 42q0 28 26 54l211 211q16 16 38 16t38 -16l211 -211q26 -26 26 -54q0 -26 -15.5 -42t-40.5 -16q-28 0 -54 26z" />
    <glyph glyph-name="arrowright" unicode="&#x2192;" horiz-adv-x="800" 
d="M502 270h-345q-30 0 -48 17t-18 42t18 42t48 17h345l-104 104q-26 26 -26 54q0 26 15.5 42t40.5 16q28 0 54 -26l211 -211q16 -16 16 -38t-16 -38l-211 -211q-26 -26 -54 -26q-25 0 -40.5 16t-15.5 42q0 28 26 54z" />
    <glyph glyph-name="arrowdown" unicode="&#x2193;" horiz-adv-x="800" 
d="M460 228l105 105q26 26 54 26q25 0 40.5 -16t15.5 -42q0 -28 -26 -54l-211 -211q-16 -16 -38 -16t-38 16l-211 211q-26 26 -26 54q0 26 15.5 42t40.5 16q28 0 54 -26l105 -105v343q0 31 17 49t43 18t43 -18t17 -49v-343z" />
    <glyph glyph-name="uni2196" unicode="&#x2196;" horiz-adv-x="800" 
d="M285 358v-155q0 -31 -17 -49t-43 -18t-43 18t-17 49v306q0 25 14.5 39.5t39.5 14.5h307q30 0 48 -17t18 -42t-18 -42t-48 -17h-158l240 -240q26 -26 26 -54q0 -26 -15.5 -42t-40.5 -16q-28 0 -54 26z" />
    <glyph glyph-name="uni2197" unicode="&#x2197;" horiz-adv-x="800" 
d="M514 358l-239 -239q-26 -26 -54 -26q-25 0 -40.5 16t-15.5 42q0 28 26 54l240 240h-158q-30 0 -48 17t-18 42t18 42t48 17h307q25 0 39.5 -14.5t14.5 -39.5v-306q0 -31 -17 -49t-43 -18t-43 18t-17 49v155z" />
    <glyph glyph-name="uni2198" unicode="&#x2198;" horiz-adv-x="800" 
d="M431 211l-240 240q-26 26 -26 54q0 26 15.5 42t40.5 16q28 0 54 -26l239 -239v155q0 31 17 49t43 18t43 -18t17 -49v-306q0 -25 -14.5 -39.5t-39.5 -14.5h-307q-30 0 -48 17t-18 42t18 42t48 17h158z" />
    <glyph glyph-name="uni2199" unicode="&#x2199;" horiz-adv-x="800" 
d="M368 211h158q30 0 48 -17t18 -42t-18 -42t-48 -17h-307q-25 0 -39.5 14.5t-14.5 39.5v306q0 31 17 49t43 18t43 -18t17 -49v-155l239 239q26 26 54 26q25 0 40.5 -16t15.5 -42q0 -28 -26 -54z" />
    <glyph glyph-name="partialdiff" unicode="&#x2202;" horiz-adv-x="529" 
d="M267 106q49 0 77.5 33.5t28.5 84.5t-28.5 84.5t-77.5 33.5q-48 0 -77 -33.5t-29 -84.5t29 -84.5t77 -33.5zM344 418q-15 33 -36.5 58.5t-38 37t-42 26t-34.5 20.5q-32 23 -32 55q0 23 15.5 37.5t42.5 14.5q34 0 69 -19q91 -51 149.5 -155t58.5 -237q0 -129 -58.5 -198.5
t-165.5 -69.5q-109 0 -171.5 68t-62.5 169q0 98 57 161t146 63q61 0 103 -31z" />
    <glyph glyph-name="uni2206" unicode="&#x2206;" horiz-adv-x="614" 
d="M444 116q-32 65 -53 117l-42 106q-18 47 -42 116q-24 -69 -42 -116l-42 -106q-21 -52 -53 -117q40 2 120 2h34q80 0 120 -2zM528 0h-442q-28 0 -44.5 14.5t-16.5 41.5q0 18 6 36t19.5 48.5t18.5 41.5l176 433q21 52 62 52t62 -52l176 -433q5 -11 18.5 -41.5t19.5 -48.5
t6 -36q0 -27 -16.5 -41.5t-44.5 -14.5z" />
    <glyph glyph-name="product" unicode="&#x220f;" horiz-adv-x="636" 
d="M446 582h-256v-649q0 -31 -17.5 -49.5t-43.5 -18.5t-43.5 18.5t-17.5 49.5v706q0 28 16.5 44.5t44.5 16.5h378q28 0 44.5 -16.5t16.5 -44.5v-706q0 -31 -17.5 -49.5t-43.5 -18.5t-43.5 18.5t-17.5 49.5v649z" />
    <glyph glyph-name="summation" unicode="&#x2211;" horiz-adv-x="591" 
d="M214 -11q77 3 153 3h113q30 0 48 -17t18 -42t-18 -42t-48 -17h-375q-28 0 -44 14.5t-16 39.5q0 26 20 54l222 305l-222 305q-20 28 -20 54q0 25 16 39.5t44 14.5h375q30 0 48 -17t18 -42t-18 -42t-48 -17h-113q-77 0 -153 3q56 -72 100 -134l87 -121q16 -22 16 -43
t-16 -43l-87 -121q-44 -62 -100 -134z" />
    <glyph glyph-name="minus" unicode="&#x2212;" 
d="M480 228h-360q-30 0 -48 17t-18 42t18 42t48 17h360q30 0 48 -17t18 -42t-18 -42t-48 -17z" />
    <glyph glyph-name="radical" unicode="&#x221a;" horiz-adv-x="659" 
d="M358 201q61 174 104 283l50 127q21 56 65 56q27 0 42 -17t15 -44q0 -18 -16 -59l-198 -504q-21 -52 -62 -52t-62 52l-123 313h-82q-30 0 -48 17t-18 42t18 42t48 17h125q43 0 59 -44q27 -71 83 -229z" />
    <glyph glyph-name="infinity" unicode="&#x221e;" horiz-adv-x="908" 
d="M393 287q-35 49 -64 70t-64 21q-39 0 -63.5 -23t-24.5 -68t24.5 -68t63.5 -23q35 0 64 21t64 70zM515 287q35 -49 64 -70t64 -21q39 0 63.5 23t24.5 68t-24.5 68t-63.5 23q-35 0 -64 -21t-64 -70zM454 195q-47 -56 -91.5 -84.5t-102.5 -28.5q-81 0 -141.5 53.5
t-60.5 151.5t60.5 151.5t141.5 53.5q58 0 102.5 -28.5t91.5 -84.5q47 56 91.5 84.5t102.5 28.5q81 0 141.5 -53.5t60.5 -151.5t-60.5 -151.5t-141.5 -53.5q-58 0 -102.5 28.5t-91.5 84.5z" />
    <glyph glyph-name="integral" unicode="&#x222b;" horiz-adv-x="464" 
d="M132 -150q-90 0 -90 60q0 55 71 55q32 0 46 15.5t14 53.5v505q0 83 41 128t118 45q90 0 90 -60q0 -55 -71 -55q-32 0 -46 -15.5t-14 -53.5v-505q0 -83 -41 -128t-118 -45z" />
    <glyph glyph-name="approxequal" unicode="&#x2248;" 
d="M392 310q-42 0 -98 31t-82 31q-28 0 -54 -31t-53 -31q-25 0 -39 15t-14 40q0 50 49.5 87.5t106.5 37.5q42 0 98 -31t82 -31q28 0 54 31t53 31q25 0 39 -15t14 -40q0 -50 -49.5 -87.5t-106.5 -37.5zM392 84q-42 0 -98 31t-82 31q-28 0 -54 -31t-53 -31q-25 0 -39 15
t-14 40q0 50 49.5 87.5t106.5 37.5q42 0 98 -31t82 -31q28 0 54 31t53 31q25 0 39 -15t14 -40q0 -50 -49.5 -87.5t-106.5 -37.5z" />
    <glyph glyph-name="notequal" unicode="&#x2260;" 
d="M296 115l-50 -96q-20 -39 -60 -39q-26 0 -40 15.5t-14 40.5q0 23 13 47l18 32h-43q-30 0 -48 17t-18 42t18 42t48 17h85l57 108h-142q-30 0 -48 17t-18 42t18 42t48 17h183l50 96q20 39 60 39q26 0 40 -15.5t14 -40.5q0 -23 -13 -47l-17 -32h43q30 0 48 -17t18 -42
t-18 -42t-48 -17h-85l-57 -108h142q30 0 48 -17t18 -42t-18 -42t-48 -17h-184z" />
    <glyph glyph-name="lessequal" unicode="&#x2264;" 
d="M237 364q92 -32 114 -42l143 -62q52 -23 52 -63q0 -25 -15 -39.5t-41 -14.5t-56 14l-329 147q-51 23 -51 60t51 60l329 147q30 14 56 14t41 -14.5t15 -39.5q0 -40 -52 -63l-143 -62q-22 -10 -114 -42zM480 0h-360q-30 0 -48 17t-18 42t18 42t48 17h360q30 0 48 -17
t18 -42t-18 -42t-48 -17z" />
    <glyph glyph-name="greaterequal" unicode="&#x2265;" 
d="M480 0h-360q-30 0 -48 17t-18 42t18 42t48 17h360q30 0 48 -17t18 -42t-18 -42t-48 -17zM363 364q-92 32 -114 42l-143 62q-52 23 -52 63q0 25 15 39.5t41 14.5t56 -14l329 -147q51 -23 51 -60t-51 -60l-329 -147q-30 -14 -56 -14t-41 14.5t-15 39.5q0 40 52 63l143 62
q22 10 114 42z" />
    <glyph glyph-name="lozenge" unicode="&#x25ca;" horiz-adv-x="606" 
d="M172 329l131 -178l131 178l-131 178zM303 -9q-28 0 -53 34l-194 261q-16 22 -16 43t16 43l194 261q25 34 53 34t53 -34l194 -261q16 -22 16 -43t-16 -43l-194 -261q-25 -34 -53 -34z" />
    <glyph glyph-name="M.ss01" horiz-adv-x="756" 
d="M378 -9q-40 0 -59 45l-42 97q-50 114 -93 220q6 -79 6 -193v-101q0 -31 -17.5 -49.5t-43.5 -18.5t-43.5 18.5t-17.5 49.5v546q0 28 16.5 45t42.5 17q41 0 61 -45l190 -431l190 431q20 45 61 45q26 0 42.5 -17t16.5 -45v-546q0 -31 -17.5 -49.5t-43.5 -18.5t-43.5 18.5
t-17.5 49.5v101q0 114 6 193q-43 -106 -93 -220l-42 -97q-19 -45 -59 -45z" />
    <glyph glyph-name="a.ss02" horiz-adv-x="554" 
d="M257 102q47 0 74.5 38t27.5 97t-27.5 97t-74.5 38t-75 -37.5t-28 -97.5t28 -97.5t75 -37.5zM378 55q-18 -31 -54.5 -49t-83.5 -18q-94 0 -150.5 70.5t-56.5 178.5q0 107 56.5 178t147.5 71q83 0 121 -51q5 22 20 35t37 13q25 0 42 -18t17 -48v-260q0 -46 29 -69
q26 -22 26 -50q0 -47 -56 -47q-64 0 -95 64z" />
    <glyph glyph-name="l.ss03" horiz-adv-x="244" 
d="M122 -9q-25 0 -42 18t-17 48v544q0 30 17 48t42 18t42 -18t17 -48v-544q0 -30 -17 -48t-42 -18z" />
    <glyph glyph-name="one.ss04" horiz-adv-x="466" 
d="M306 118h64q30 0 48 -17t18 -42t-18 -42t-48 -17h-275q-30 0 -48 17t-18 42t18 42t48 17h91v231q0 9 3 141l-40 -33q-34 -28 -63 -28q-25 0 -41 15t-16 41q0 34 35 60l137 103q27 19 50 19q25 0 40 -16t15 -45v-488z" />
    <glyph glyph-name="zero.zero" horiz-adv-x="620" 
d="M179 230l201 298q-32 24 -70 24q-66 0 -105.5 -63.5t-39.5 -159.5q0 -57 14 -99zM240 130q32 -24 70 -24q66 0 105.5 63.5t39.5 159.5q0 57 -14 99zM310 -12q-122 0 -194.5 98.5t-72.5 242.5t72.5 242.5t194.5 98.5t194.5 -98.5t72.5 -242.5t-72.5 -242.5t-194.5 -98.5z
" />
    <glyph glyph-name="parenleft.case" horiz-adv-x="371" 
d="M278 -93q-23 0 -39 12t-36 35q-138 158 -138 375t138 375q13 15 21 23t23 16t31 8q23 0 38 -15t15 -39q0 -30 -35 -65q-113 -112 -113 -303t113 -303q35 -35 35 -65q0 -24 -15 -39t-38 -15z" />
    <glyph glyph-name="parenright.case" horiz-adv-x="371" 
d="M93 -93q-23 0 -38 15t-15 39q0 30 35 65q113 112 113 303t-113 303q-35 35 -35 65q0 24 15 39t38 15t39 -12t36 -35q138 -158 138 -375t-138 -375q-13 -15 -21 -23t-23 -16t-31 -8z" />
    <glyph glyph-name="bracketleft.case" horiz-adv-x="347" 
d="M186 30h72q29 0 46.5 -16t17.5 -41t-17.5 -41t-46.5 -16h-131q-27 0 -43 16t-16 43v708q0 27 16 43t43 16h131q29 0 46.5 -16t17.5 -41t-17.5 -41t-46.5 -16h-72v-598z" />
    <glyph glyph-name="bracketright.case" horiz-adv-x="347" 
d="M161 30v598h-72q-29 0 -46.5 16t-17.5 41t17.5 41t46.5 16h131q27 0 43 -16t16 -43v-708q0 -27 -16 -43t-43 -16h-131q-29 0 -46.5 16t-17.5 41t17.5 41t46.5 16h72z" />
    <glyph glyph-name="braceleft.case" horiz-adv-x="405" 
d="M185 329q62 -24 62 -98v-133q0 -67 59 -67q30 0 47 -16t17 -41q0 -58 -82 -58q-74 0 -116.5 48t-42.5 127v140q0 41 -34 41q-25 0 -42.5 16.5t-17.5 40.5t17.5 40.5t42.5 16.5q34 0 34 41v140q0 79 42.5 127t116.5 48q82 0 82 -58q0 -25 -17 -41t-47 -16q-59 0 -59 -67
v-133q0 -74 -62 -98z" />
    <glyph glyph-name="braceright.case" horiz-adv-x="405" 
d="M220 329q-62 24 -62 98v133q0 67 -59 67q-30 0 -47 16t-17 41q0 58 82 58q74 0 116.5 -48t42.5 -127v-140q0 -41 34 -41q25 0 42.5 -16.5t17.5 -40.5t-17.5 -40.5t-42.5 -16.5q-34 0 -34 -41v-140q0 -79 -42.5 -127t-116.5 -48q-82 0 -82 58q0 25 17 41t47 16q59 0 59 67
v133q0 74 62 98z" />
    <glyph glyph-name="guillemotleft.case" horiz-adv-x="615" 
d="M176 329l104 -111q23 -23 23 -50q0 -24 -15 -40t-41 -16q-30 0 -55 27l-141 152q-16 16 -16 38t16 38l141 152q25 27 55 27q26 0 41 -16t15 -40q0 -27 -23 -50zM443 329l104 -111q23 -23 23 -50q0 -24 -15 -40t-41 -16q-30 0 -55 27l-141 152q-16 16 -16 38t16 38
l141 152q25 27 55 27q26 0 41 -16t15 -40q0 -27 -23 -50z" />
    <glyph glyph-name="guillemotright.case" horiz-adv-x="615" 
d="M172 329l-104 111q-23 23 -23 50q0 24 15 40t41 16q30 0 55 -27l141 -152q16 -16 16 -38t-16 -38l-141 -152q-25 -27 -55 -27q-26 0 -41 16t-15 40q0 27 23 50zM439 329l-104 111q-23 23 -23 50q0 24 15 40t41 16q30 0 55 -27l141 -152q16 -16 16 -38t-16 -38l-141 -152
q-25 -27 -55 -27q-26 0 -41 16t-15 40q0 27 23 50z" />
    <glyph glyph-name="guilsinglleft.case" horiz-adv-x="348" 
d="M176 329l104 -111q23 -23 23 -50q0 -24 -15 -40t-41 -16q-30 0 -55 27l-141 152q-16 16 -16 38t16 38l141 152q25 27 55 27q26 0 41 -16t15 -40q0 -27 -23 -50z" />
    <glyph glyph-name="guilsinglright.case" horiz-adv-x="348" 
d="M172 329l-104 111q-23 23 -23 50q0 24 15 40t41 16q30 0 55 -27l141 -152q16 -16 16 -38t-16 -38l-141 -152q-25 -27 -55 -27q-26 0 -41 16t-15 40q0 27 23 50z" />
    <glyph glyph-name="hyphen.case" horiz-adv-x="475" 
d="M352 270h-229q-30 0 -48 17t-18 42t18 42t48 17h229q30 0 48 -17t18 -42t-18 -42t-48 -17z" />
    <glyph glyph-name="uni00AD.case" horiz-adv-x="475" 
d="M352 270h-229q-30 0 -48 17t-18 42t18 42t48 17h229q30 0 48 -17t18 -42t-18 -42t-48 -17z" />
    <glyph glyph-name="endash.case" horiz-adv-x="606" 
d="M483 270h-360q-30 0 -48 17t-18 42t18 42t48 17h360q30 0 48 -17t18 -42t-18 -42t-48 -17z" />
    <glyph glyph-name="emdash.case" horiz-adv-x="732" 
d="M609 270h-486q-30 0 -48 17t-18 42t18 42t48 17h486q30 0 48 -17t18 -42t-18 -42t-48 -17z" />
    <glyph glyph-name="grave.case" horiz-adv-x="500" 
d="M314 702q-21 0 -44 21l-105 99q-26 24 -26 51q0 20 13 33.5t34 13.5t44 -21l105 -99q26 -24 26 -51q0 -20 -13 -33.5t-34 -13.5z" />
    <glyph glyph-name="acute.case" horiz-adv-x="500" 
d="M186 702q-21 0 -34 13.5t-13 33.5q0 27 26 51l105 99q23 21 44 21t34 -13.5t13 -33.5q0 -27 -26 -51l-105 -99q-23 -21 -44 -21z" />
    <glyph glyph-name="dieresis.case" horiz-adv-x="500" 
d="M152 708q-28 0 -48.5 20t-20.5 49t20.5 49t48.5 20t48.5 -20t20.5 -49t-20.5 -49t-48.5 -20zM347 708q-29 0 -49 20t-20 49t20 49t49 20t49 -20t20 -49t-20 -49t-49 -20z" />
    <glyph glyph-name="macron.case" horiz-adv-x="500" 
d="M363 727h-226q-26 0 -41 14t-15 36t15 36t41 14h226q26 0 41 -14t15 -36t-15 -36t-41 -14z" />
    <glyph glyph-name="circumflex.case" horiz-adv-x="500" 
d="M250 788l-80 -76q-23 -21 -44 -21t-34 13.5t-13 33.5q0 27 26 51l109 103q17 17 36 17t36 -17l109 -103q26 -24 26 -51q0 -20 -13 -33.5t-34 -13.5t-44 21z" />
    <glyph glyph-name="caron.case" horiz-adv-x="500" 
d="M250 812l80 76q23 21 44 21t34 -13.5t13 -33.5q0 -27 -26 -51l-109 -103q-17 -17 -36 -17t-36 17l-109 103q-26 24 -26 51q0 20 13 33.5t34 13.5t44 -21z" />
    <glyph glyph-name="breve.case" horiz-adv-x="500" 
d="M250 700q-66 0 -116.5 44.5t-50.5 98.5q0 27 13 40.5t34 13.5q28 0 43 -24q5 -7 13.5 -23.5t14 -25t18.5 -16.5t31 -8t31 8t18.5 16.5t14 25t13.5 23.5q15 24 43 24q21 0 34 -13.5t13 -40.5q0 -54 -50.5 -98.5t-116.5 -44.5z" />
    <glyph glyph-name="dotaccent.case" horiz-adv-x="500" 
d="M250 708q-28 0 -48.5 20t-20.5 49t20.5 49t48.5 20t48.5 -20t20.5 -49t-20.5 -49t-48.5 -20z" />
    <glyph glyph-name="ring.case" horiz-adv-x="500" 
d="M250 770q19 0 30.5 12.5t11.5 32.5t-11.5 32.5t-30.5 12.5t-30.5 -12.5t-11.5 -32.5t11.5 -32.5t30.5 -12.5zM250 700q-47 0 -81 34t-34 81t34 81t81 34t81 -34t34 -81t-34 -81t-81 -34z" />
    <glyph glyph-name="tilde.case" horiz-adv-x="500" 
d="M315 705q-35 0 -71.5 22.5t-52.5 22.5q-18 0 -38.5 -22.5t-42.5 -22.5t-33.5 13t-11.5 34q0 38 36 67.5t84 29.5q35 0 71.5 -22.5t52.5 -22.5q18 0 38.5 22.5t42.5 22.5t33.5 -13t11.5 -34q0 -38 -36 -67.5t-84 -29.5z" />
    <glyph glyph-name="hungarumlaut.case" horiz-adv-x="500" 
d="M79 702q-21 0 -34 13.5t-13 33.5q0 27 26 51l105 99q23 21 44 21t34 -13.5t13 -33.5q0 -27 -26 -51l-105 -99q-23 -21 -44 -21zM293 702q-21 0 -34 13.5t-13 33.5q0 27 26 51l105 99q23 21 44 21t34 -13.5t13 -33.5q0 -27 -26 -51l-105 -99q-23 -21 -44 -21z" />
    <glyph glyph-name="commaaccent" horiz-adv-x="500" 
d="M231 -275q-24 0 -39 15.5t-15 42.5q0 19 14 68l11 39q10 33 24.5 51t41.5 18q24 0 39 -15.5t15 -42.5q0 -19 -14 -68l-11 -39q-10 -33 -24.5 -51t-41.5 -18z" />
    <glyph glyph-name="aacute.ss02" horiz-adv-x="554" 
d="M257 102q47 0 74.5 38t27.5 97t-27.5 97t-74.5 38t-75 -37.5t-28 -97.5t28 -97.5t75 -37.5zM378 55q-18 -31 -54.5 -49t-83.5 -18q-94 0 -150.5 70.5t-56.5 178.5q0 107 56.5 178t147.5 71q83 0 121 -51q5 22 20 35t37 13q25 0 42 -18t17 -48v-260q0 -46 29 -69
q26 -22 26 -50q0 -47 -56 -47q-64 0 -95 64zM235 542q-21 0 -34 13.5t-13 33.5q0 27 26 51l105 99q23 21 44 21t34 -13.5t13 -33.5q0 -27 -26 -51l-105 -99q-23 -21 -44 -21z" />
    <glyph glyph-name="acircumflex.ss02" horiz-adv-x="554" 
d="M257 102q47 0 74.5 38t27.5 97t-27.5 97t-74.5 38t-75 -37.5t-28 -97.5t28 -97.5t75 -37.5zM378 55q-18 -31 -54.5 -49t-83.5 -18q-94 0 -150.5 70.5t-56.5 178.5q0 107 56.5 178t147.5 71q83 0 121 -51q5 22 20 35t37 13q25 0 42 -18t17 -48v-260q0 -46 29 -69
q26 -22 26 -50q0 -47 -56 -47q-64 0 -95 64zM348 552l-80 76l-80 -76q-23 -21 -44 -21t-34 13.5t-13 33.5q0 27 26 51l109 103q17 17 36 17t36 -17l109 -103q26 -24 26 -51q0 -20 -13 -33.5t-34 -13.5t-44 21z" />
    <glyph glyph-name="adieresis.ss02" horiz-adv-x="554" 
d="M257 102q47 0 74.5 38t27.5 97t-27.5 97t-74.5 38t-75 -37.5t-28 -97.5t28 -97.5t75 -37.5zM378 55q-18 -31 -54.5 -49t-83.5 -18q-94 0 -150.5 70.5t-56.5 178.5q0 107 56.5 178t147.5 71q83 0 121 -51q5 22 20 35t37 13q25 0 42 -18t17 -48v-260q0 -46 29 -69
q26 -22 26 -50q0 -47 -56 -47q-64 0 -95 64zM168 548q-28 0 -48.5 20t-20.5 49t20.5 49t48.5 20t48.5 -20t20.5 -49t-20.5 -49t-48.5 -20zM363 548q-29 0 -49 20t-20 49t20 49t49 20t49 -20t20 -49t-20 -49t-49 -20z" />
    <glyph glyph-name="agrave.ss02" horiz-adv-x="554" 
d="M257 102q47 0 74.5 38t27.5 97t-27.5 97t-74.5 38t-75 -37.5t-28 -97.5t28 -97.5t75 -37.5zM378 55q-18 -31 -54.5 -49t-83.5 -18q-94 0 -150.5 70.5t-56.5 178.5q0 107 56.5 178t147.5 71q83 0 121 -51q5 22 20 35t37 13q25 0 42 -18t17 -48v-260q0 -46 29 -69
q26 -22 26 -50q0 -47 -56 -47q-64 0 -95 64zM313 542q-21 0 -44 21l-105 99q-26 24 -26 51q0 20 13 33.5t34 13.5t44 -21l105 -99q26 -24 26 -51q0 -20 -13 -33.5t-34 -13.5z" />
    <glyph glyph-name="aring.ss02" horiz-adv-x="554" 
d="M257 102q47 0 74.5 38t27.5 97t-27.5 97t-74.5 38t-75 -37.5t-28 -97.5t28 -97.5t75 -37.5zM264 610q19 0 30.5 12.5t11.5 32.5t-11.5 32.5t-30.5 12.5t-30.5 -12.5t-11.5 -32.5t11.5 -32.5t30.5 -12.5zM378 55q-18 -31 -54.5 -49t-83.5 -18q-94 0 -150.5 70.5
t-56.5 178.5q0 107 56.5 178t147.5 71q83 0 121 -51q5 22 20 35t37 13q25 0 42 -18t17 -48v-260q0 -46 29 -69q26 -22 26 -50q0 -47 -56 -47q-64 0 -95 64zM264 540q-47 0 -81 34t-34 81t34 81t81 34t81 -34t34 -81t-34 -81t-81 -34z" />
    <glyph glyph-name="atilde.ss02" horiz-adv-x="554" 
d="M257 102q47 0 74.5 38t27.5 97t-27.5 97t-74.5 38t-75 -37.5t-28 -97.5t28 -97.5t75 -37.5zM378 55q-18 -31 -54.5 -49t-83.5 -18q-94 0 -150.5 70.5t-56.5 178.5q0 107 56.5 178t147.5 71q83 0 121 -51q5 22 20 35t37 13q25 0 42 -18t17 -48v-260q0 -46 29 -69
q26 -22 26 -50q0 -47 -56 -47q-64 0 -95 64zM334 545q-35 0 -71.5 22.5t-52.5 22.5q-18 0 -38.5 -22.5t-42.5 -22.5t-33.5 13t-11.5 34q0 38 36 67.5t84 29.5q35 0 71.5 -22.5t52.5 -22.5q18 0 38.5 22.5t42.5 22.5t33.5 -13t11.5 -34q0 -38 -36 -67.5t-84 -29.5z" />
    <glyph glyph-name="amacron.ss02" horiz-adv-x="554" 
d="M257 102q47 0 74.5 38t27.5 97t-27.5 97t-74.5 38t-75 -37.5t-28 -97.5t28 -97.5t75 -37.5zM378 55q-18 -31 -54.5 -49t-83.5 -18q-94 0 -150.5 70.5t-56.5 178.5q0 107 56.5 178t147.5 71q83 0 121 -51q5 22 20 35t37 13q25 0 42 -18t17 -48v-260q0 -46 29 -69
q26 -22 26 -50q0 -47 -56 -47q-64 0 -95 64zM386 567h-226q-26 0 -41 14t-15 36t15 36t41 14h226q26 0 41 -14t15 -36t-15 -36t-41 -14z" />
    <glyph glyph-name="abreve.ss02" horiz-adv-x="554" 
d="M257 102q47 0 74.5 38t27.5 97t-27.5 97t-74.5 38t-75 -37.5t-28 -97.5t28 -97.5t75 -37.5zM378 55q-18 -31 -54.5 -49t-83.5 -18q-94 0 -150.5 70.5t-56.5 178.5q0 107 56.5 178t147.5 71q83 0 121 -51q5 22 20 35t37 13q25 0 42 -18t17 -48v-260q0 -46 29 -69
q26 -22 26 -50q0 -47 -56 -47q-64 0 -95 64zM273 540q-66 0 -116.5 44.5t-50.5 98.5q0 27 13 40.5t34 13.5q28 0 43 -24q5 -7 13.5 -23.5t14 -25t18.5 -16.5t31 -8t31 8t18.5 16.5t14 25t13.5 23.5q15 24 43 24q21 0 34 -13.5t13 -40.5q0 -54 -50.5 -98.5t-116.5 -44.5z" />
    <glyph glyph-name="aogonek.ss02" horiz-adv-x="554" 
d="M257 102q47 0 74.5 38t27.5 97t-27.5 97t-74.5 38t-75 -37.5t-28 -97.5t28 -97.5t75 -37.5zM378 55q-18 -31 -54.5 -49t-83.5 -18q-94 0 -150.5 70.5t-56.5 178.5q0 107 56.5 178t147.5 71q83 0 121 -51q5 22 20 35t37 13q25 0 42 -18t17 -48v-260q0 -46 29 -69
q26 -22 26 -50q0 -20 -14 -35.5t-31 -25t-31 -31t-14 -51.5q0 -55 44 -55q17 0 37 14t34 14q18 0 28.5 -11t10.5 -29q0 -31 -34 -52t-80 -21q-59 0 -94 36.5t-35 95.5q0 79 49 136q-13 14 -21 32z" />
    <glyph glyph-name="aringacute.ss02" horiz-adv-x="554" 
d="M257 102q47 0 74.5 38t27.5 97t-27.5 97t-74.5 38t-75 -37.5t-28 -97.5t28 -97.5t75 -37.5zM264 527q19 0 30.5 12.5t11.5 32.5t-11.5 32.5t-30.5 12.5t-30.5 -12.5t-11.5 -32.5t11.5 -32.5t30.5 -12.5zM378 55q-18 -31 -54.5 -49t-83.5 -18q-94 0 -150.5 70.5
t-56.5 178.5q0 94 43.5 161t117.5 83q-45 35 -45 91q0 47 34 81t81 34t81 -34t34 -81q0 -33 -17.5 -61t-46.5 -42q25 -11 43 -34q5 22 20 35t37 13q25 0 42 -18t17 -48v-260q0 -46 29 -69q26 -22 26 -50q0 -47 -56 -47q-64 0 -95 64zM235 707q-21 0 -34 13.5t-13 33.5
q0 27 26 51l105 99q23 21 44 21t34 -13.5t13 -33.5q0 -27 -26 -51l-105 -99q-23 -21 -44 -21z" />
    <glyph glyph-name="ibreve" horiz-adv-x="244" 
d="M122 540q-66 0 -116.5 44.5t-50.5 98.5q0 27 13 40.5t34 13.5q28 0 43 -24q5 -7 13.5 -23.5t14 -25t18.5 -16.5t31 -8t31 8t18.5 16.5t14 25t13.5 23.5q15 24 43 24q21 0 34 -13.5t13 -40.5q0 -54 -50.5 -98.5t-116.5 -44.5zM122 -9q-25 0 -42 18t-17 48v360q0 30 17 48
t42 18t42 -18t17 -48v-360q0 -30 -17 -48t-42 -18z" />
    <glyph glyph-name="Imacron" horiz-adv-x="270" 
d="M135 -9q-26 0 -43.5 18.5t-17.5 49.5v540q0 31 17.5 49.5t43.5 18.5t43.5 -18.5t17.5 -49.5v-540q0 -31 -17.5 -49.5t-43.5 -18.5zM248 727h-226q-26 0 -41 14t-15 36t15 36t41 14h226q26 0 41 -14t15 -36t-15 -36t-41 -14z" />
    <glyph glyph-name="CR" horiz-adv-x="180" 
 />
    <glyph glyph-name="zero.ss05" horiz-adv-x="620" 
d="M179 230l201 298q-32 24 -70 24q-66 0 -105.5 -63.5t-39.5 -159.5q0 -57 14 -99zM240 130q32 -24 70 -24q66 0 105.5 63.5t39.5 159.5q0 57 -14 99zM310 -12q-122 0 -194.5 98.5t-72.5 242.5t72.5 242.5t194.5 98.5t194.5 -98.5t72.5 -242.5t-72.5 -242.5t-194.5 -98.5z
" />
    <glyph glyph-name="fl.ss03" horiz-adv-x="603" 
d="M230 348v-291q0 -29 -17 -47.5t-42 -18.5t-42 18.5t-17 47.5v291h-33q-29 0 -46.5 16t-17.5 41t17.5 41t46.5 16h33v35q0 83 41 128t118 45q90 0 90 -60q0 -55 -71 -55q-32 0 -46 -15.5t-14 -53.5v-24h67q29 0 46.5 -16t17.5 -41t-17.5 -41t-46.5 -16h-67zM481 -9
q-25 0 -42 18t-17 48v544q0 30 17 48t42 18t42 -18t17 -48v-544q0 -30 -17 -48t-42 -18z" />
    <glyph glyph-name="f_f_l.ss03" horiz-adv-x="913" 
d="M540 348v-291q0 -29 -17 -47.5t-42 -18.5t-42 18.5t-17 47.5v291h-192v-291q0 -29 -17 -47.5t-42 -18.5t-42 18.5t-17 47.5v291h-33q-29 0 -46.5 16t-17.5 41t17.5 41t46.5 16h33v35q0 83 41 128t118 45q90 0 90 -60q0 -55 -71 -55q-32 0 -46 -15.5t-14 -53.5v-24h192v35
q0 83 41 128t118 45q90 0 90 -60q0 -55 -71 -55q-32 0 -46 -15.5t-14 -53.5v-24h67q29 0 46.5 -16t17.5 -41t-17.5 -41t-46.5 -16h-67zM791 -9q-25 0 -42 18t-17 48v544q0 30 17 48t42 18t42 -18t17 -48v-544q0 -30 -17 -48t-42 -18z" />
    <glyph glyph-name="t_t" horiz-adv-x="691" 
d="M540 360v-188q0 -38 14 -53.5t46 -15.5q71 0 71 -55q0 -60 -90 -60q-77 0 -118 45t-41 128v199h-192v-188q0 -38 14 -53.5t46 -15.5q71 0 71 -55q0 -60 -90 -60q-77 0 -118 45t-41 128v199h-33q-29 0 -46.5 16t-17.5 41t17.5 41t46.5 16h33v84q0 29 17 47.5t42 18.5
t42 -18.5t17 -47.5v-84h192v84q0 29 17 47.5t42 18.5t42 -18.5t17 -47.5v-84h67q29 0 46.5 -16t17.5 -41t-17.5 -41t-46.5 -16h-67z" />
    <glyph glyph-name="lacute.ss03" horiz-adv-x="244" 
d="M107 702q-21 0 -34 13.5t-13 33.5q0 27 26 51l105 99q23 21 44 21t34 -13.5t13 -33.5q0 -27 -26 -51l-105 -99q-23 -21 -44 -21zM122 -9q-25 0 -42 18t-17 48v544q0 30 17 48t42 18t42 -18t17 -48v-544q0 -30 -17 -48t-42 -18z" />
    <glyph glyph-name="lcommaaccent.ss03" horiz-adv-x="244" 
d="M122 -9q-25 0 -42 18t-17 48v544q0 30 17 48t42 18t42 -18t17 -48v-544q0 -30 -17 -48t-42 -18zM88 -275q-24 0 -39 15.5t-15 42.5q0 19 14 68l11 39q10 33 24.5 51t41.5 18q24 0 39 -15.5t15 -42.5q0 -19 -14 -68l-11 -39q-10 -33 -24.5 -51t-41.5 -18z" />
    <glyph glyph-name="lcaron.ss03" horiz-adv-x="364" 
d="M122 -9q-25 0 -42 18t-17 48v544q0 30 17 48t42 18t42 -18t17 -48v-544q0 -30 -17 -48t-42 -18zM283 433q-24 0 -39 15.5t-15 42.5q0 19 14 68l11 39q10 33 24.5 51t41.5 18q24 0 39 -15.5t15 -42.5q0 -19 -14 -68l-11 -39q-10 -33 -24.5 -51t-41.5 -18z" />
    <glyph glyph-name="ldot.ss03" horiz-adv-x="398" 
d="M122 -9q-25 0 -42 18t-17 48v544q0 30 17 48t42 18t42 -18t17 -48v-544q0 -30 -17 -48t-42 -18zM310 256q-30 0 -51.5 21.5t-21.5 51.5t21.5 51.5t51.5 21.5t51.5 -21.5t21.5 -51.5t-21.5 -51.5t-51.5 -21.5z" />
    <glyph glyph-name="lslash.ss03" horiz-adv-x="395" 
d="M249 276v-219q0 -30 -17 -48t-42 -18t-42 18t-17 48v164l-16 -7q-24 -11 -42 -11q-25 0 -39 15t-14 39q0 39 40 57l71 33v254q0 30 17 48t42 18t42 -18t17 -48v-199l31 14q24 11 42 11q25 0 39 -15t14 -39q0 -39 -40 -57z" />
    <glyph glyph-name="zero.numr" horiz-adv-x="405" 
d="M202 334q38 0 60 36t22 90t-22 90.5t-60 36.5q-37 0 -59 -36.5t-22 -90.5t22 -90t59 -36zM202 256q-74 0 -118 59t-44 145q0 87 44 146t118 59q75 0 119 -59t44 -146t-44 -145.5t-119 -58.5z" />
    <glyph glyph-name="one.numr" horiz-adv-x="261" 
d="M123 547l-21 -19q-20 -16 -39 -16q-17 0 -27.5 10t-10.5 27q0 23 23 40l84 63q16 11 32 11q36 0 36 -40v-321q0 -20 -11.5 -32.5t-28.5 -12.5t-28.5 12.5t-11.5 32.5v160q0 43 3 85z" />
    <glyph glyph-name="two.numr" horiz-adv-x="349" 
d="M123 340q28 1 89 1h55q20 0 32 -11t12 -28t-12 -28t-32 -11h-185q-40 0 -40 47v14q0 30 9 53.5t29.5 43t34 28.5t40.5 26q23 14 34.5 22t22 22t10.5 29q0 17 -12 28t-35 11q-31 0 -53 -26t-42 -26q-36 0 -36 38q0 37 39 64.5t95 27.5q60 0 93 -33t33 -84q0 -73 -84 -126
q-10 -7 -27.5 -17t-27.5 -16t-21 -14.5t-16 -17t-5 -17.5z" />
    <glyph glyph-name="three.numr" horiz-adv-x="339" 
d="M161 256q-57 0 -93 25t-36 59q0 18 10.5 27.5t27.5 9.5t39.5 -21.5t50.5 -21.5t43.5 13.5t15.5 35.5t-15.5 35.5t-43.5 13.5h-18q-18 0 -29.5 10.5t-11.5 26.5t11.5 27t29.5 11h18q22 0 35 11t13 29t-12.5 29t-35.5 11q-22 0 -40.5 -16t-35.5 -16q-18 0 -28 10t-10 26
q0 31 33 52.5t82 21.5q59 0 93.5 -31.5t34.5 -80.5q0 -57 -44 -84q55 -24 55 -91q0 -53 -37 -87.5t-102 -34.5z" />
    <glyph glyph-name="four.numr" horiz-adv-x="380" 
d="M287 337v-35q0 -20 -11.5 -32.5t-28.5 -12.5t-28.5 12.5t-11.5 32.5v35h-139q-39 0 -39 38q0 15 12 39l104 213q17 36 46 36q17 0 26.5 -10.5t9.5 -26.5t-13 -40l-41 -82q-22 -45 -49 -92q23 1 65 1h18v49q0 20 11.5 32.5t28.5 12.5t28.5 -12.5t11.5 -32.5v-47h20
q20 0 32 -11t12 -28t-12 -28t-32 -11h-20z" />
    <glyph glyph-name="five.numr" horiz-adv-x="344" 
d="M125 506q23 14 55 14q52 0 89 -36.5t37 -92.5q0 -58 -39 -96.5t-105 -38.5q-54 0 -90.5 25t-36.5 59q0 17 10 27.5t27 10.5q18 0 40.5 -22t50.5 -22q27 0 44.5 14.5t17.5 41.5q0 26 -17 40.5t-45 14.5q-23 0 -45 -12t-35 -12q-17 0 -27 11t-10 28q0 16 2 44l7 116
q2 38 41 38h141q20 0 32 -11t12 -28t-12 -28t-32 -11h-104z" />
    <glyph glyph-name="six.numr" horiz-adv-x="349" 
d="M176 464q-27 0 -42.5 -18.5t-15.5 -46.5t15.5 -46.5t42.5 -18.5q26 0 42 18.5t16 46.5t-16 46.5t-42 18.5zM135 514q27 20 61 20q52 0 85.5 -38t33.5 -97q0 -61 -37.5 -102t-103.5 -41q-65 0 -101.5 42t-36.5 118t34.5 140.5t92.5 95.5q22 12 40 12t28.5 -10t10.5 -26
q0 -17 -12.5 -28t-28.5 -18t-35.5 -24.5t-30.5 -43.5z" />
    <glyph glyph-name="seven.numr" horiz-adv-x="340" 
d="M214 582q-24 -2 -72 -2h-25v-18q0 -20 -11.5 -32.5t-28.5 -12.5t-28.5 12.5t-11.5 32.5v55q0 19 10.5 30t29.5 11h186q43 0 43 -36q0 -10 -12 -41l-114 -288q-14 -36 -43 -36q-36 0 -36 38q0 16 9 38l63 156q8 18 22.5 51t18.5 42z" />
    <glyph glyph-name="eight.numr" horiz-adv-x="358" 
d="M179 506q22 0 34.5 11.5t12.5 29.5t-12.5 29t-34.5 11t-34.5 -11t-12.5 -29t12.5 -29.5t34.5 -11.5zM179 334q27 0 43 14t16 35q0 22 -16 36t-43 14t-43 -14t-16 -36q0 -21 16 -35t43 -14zM179 256q-66 0 -103 34.5t-37 87.5q0 67 55 91q-43 27 -43 84q0 49 34.5 80.5
t93.5 31.5t93.5 -31.5t34.5 -80.5q0 -57 -43 -84q55 -24 55 -91q0 -53 -37 -87.5t-103 -34.5z" />
    <glyph glyph-name="nine.numr" horiz-adv-x="349" 
d="M173 457q27 0 42.5 18.5t15.5 46.5t-15.5 46.5t-42.5 18.5q-26 0 -42 -18.5t-16 -46.5t16 -46.5t42 -18.5zM214 407q-27 -20 -61 -20q-52 0 -85.5 38t-33.5 97q0 61 37.5 102t103.5 41q65 0 101.5 -42t36.5 -118t-34.5 -140.5t-92.5 -95.5q-22 -12 -40 -12t-28.5 10
t-10.5 26q0 17 12.5 28t28.5 18t35.5 24.5t30.5 43.5z" />
    <glyph glyph-name="zero.dnom" horiz-adv-x="405" 
d="M202 71q38 0 60 36t22 90t-22 90.5t-60 36.5q-37 0 -59 -36.5t-22 -90.5t22 -90t59 -36zM202 -7q-74 0 -118 59t-44 145q0 87 44 146t118 59q75 0 119 -59t44 -146t-44 -145.5t-119 -58.5z" />
    <glyph glyph-name="one.dnom" horiz-adv-x="261" 
d="M123 284l-21 -19q-20 -16 -39 -16q-17 0 -27.5 10t-10.5 27q0 23 23 40l84 63q16 11 32 11q36 0 36 -40v-321q0 -20 -11.5 -32.5t-28.5 -12.5t-28.5 12.5t-11.5 32.5v160q0 43 3 85z" />
    <glyph glyph-name="two.dnom" horiz-adv-x="349" 
d="M123 77q28 1 89 1h55q20 0 32 -11t12 -28t-12 -28t-32 -11h-185q-40 0 -40 47v14q0 30 9 53.5t29.5 43t34 28.5t40.5 26q23 14 34.5 22t22 22t10.5 29q0 17 -12 28t-35 11q-31 0 -53 -26t-42 -26q-36 0 -36 38q0 37 39 64.5t95 27.5q60 0 93 -33t33 -84q0 -73 -84 -126
q-10 -7 -27.5 -17t-27.5 -16t-21 -14.5t-16 -17t-5 -17.5z" />
    <glyph glyph-name="three.dnom" horiz-adv-x="339" 
d="M161 -7q-57 0 -93 25t-36 59q0 18 10.5 27.5t27.5 9.5t39.5 -21.5t50.5 -21.5t43.5 13.5t15.5 35.5t-15.5 35.5t-43.5 13.5h-18q-18 0 -29.5 10.5t-11.5 26.5t11.5 27t29.5 11h18q22 0 35 11t13 29t-12.5 29t-35.5 11q-22 0 -40.5 -16t-35.5 -16q-18 0 -28 10t-10 26
q0 31 33 52.5t82 21.5q59 0 93.5 -31.5t34.5 -80.5q0 -57 -44 -84q55 -24 55 -91q0 -53 -37 -87.5t-102 -34.5z" />
    <glyph glyph-name="four.dnom" horiz-adv-x="380" 
d="M287 74v-35q0 -20 -11.5 -32.5t-28.5 -12.5t-28.5 12.5t-11.5 32.5v35h-139q-39 0 -39 38q0 15 12 39l104 213q17 36 46 36q17 0 26.5 -10.5t9.5 -26.5t-13 -40l-41 -82q-22 -45 -49 -92q23 1 65 1h18v49q0 20 11.5 32.5t28.5 12.5t28.5 -12.5t11.5 -32.5v-47h20
q20 0 32 -11t12 -28t-12 -28t-32 -11h-20z" />
    <glyph glyph-name="five.dnom" horiz-adv-x="344" 
d="M125 243q23 14 55 14q52 0 89 -36.5t37 -92.5q0 -58 -39 -96.5t-105 -38.5q-54 0 -90.5 25t-36.5 59q0 17 10 27.5t27 10.5q18 0 40.5 -22t50.5 -22q27 0 44.5 14.5t17.5 41.5q0 26 -17 40.5t-45 14.5q-23 0 -45 -12t-35 -12q-17 0 -27 11t-10 28q0 16 2 44l7 116
q2 38 41 38h141q20 0 32 -11t12 -28t-12 -28t-32 -11h-104z" />
    <glyph glyph-name="six.dnom" horiz-adv-x="349" 
d="M176 201q-27 0 -42.5 -18.5t-15.5 -46.5t15.5 -46.5t42.5 -18.5q26 0 42 18.5t16 46.5t-16 46.5t-42 18.5zM135 251q27 20 61 20q52 0 85.5 -38t33.5 -97q0 -61 -37.5 -102t-103.5 -41q-65 0 -101.5 42t-36.5 118t34.5 140.5t92.5 95.5q22 12 40 12t28.5 -10t10.5 -26
q0 -17 -12.5 -28t-28.5 -18t-35.5 -24.5t-30.5 -43.5z" />
    <glyph glyph-name="seven.dnom" horiz-adv-x="340" 
d="M214 319q-24 -2 -72 -2h-25v-18q0 -20 -11.5 -32.5t-28.5 -12.5t-28.5 12.5t-11.5 32.5v55q0 19 10.5 30t29.5 11h186q43 0 43 -36q0 -10 -12 -41l-114 -288q-14 -36 -43 -36q-36 0 -36 38q0 16 9 38l63 156q8 18 22.5 51t18.5 42z" />
    <glyph glyph-name="eight.dnom" horiz-adv-x="358" 
d="M179 243q22 0 34.5 11.5t12.5 29.5t-12.5 29t-34.5 11t-34.5 -11t-12.5 -29t12.5 -29.5t34.5 -11.5zM179 71q27 0 43 14t16 35q0 22 -16 36t-43 14t-43 -14t-16 -36q0 -21 16 -35t43 -14zM179 -7q-66 0 -103 34.5t-37 87.5q0 67 55 91q-43 27 -43 84q0 49 34.5 80.5
t93.5 31.5t93.5 -31.5t34.5 -80.5q0 -57 -43 -84q55 -24 55 -91q0 -53 -37 -87.5t-103 -34.5z" />
    <glyph glyph-name="nine.dnom" horiz-adv-x="349" 
d="M173 194q27 0 42.5 18.5t15.5 46.5t-15.5 46.5t-42.5 18.5q-26 0 -42 -18.5t-16 -46.5t16 -46.5t42 -18.5zM214 144q-27 -20 -61 -20q-52 0 -85.5 38t-33.5 97q0 61 37.5 102t103.5 41q65 0 101.5 -42t36.5 -118t-34.5 -140.5t-92.5 -95.5q-22 -12 -40 -12t-28.5 10
t-10.5 26q0 17 12.5 28t28.5 18t35.5 24.5t30.5 43.5z" />
    <glyph glyph-name="numbersign.tf" 
d="M250 257h84l17 144h-84zM482 143h-45l-10 -86q-4 -31 -21.5 -48.5t-44.5 -17.5q-24 0 -38 14.5t-14 43.5q0 5 4 41l6 53h-84l-10 -86q-4 -31 -21.5 -48.5t-44.5 -17.5q-24 0 -38 14.5t-14 43.5q0 5 4 41l7 53h-37q-65 0 -65 56q0 28 19.5 43t51.5 15h45l17 144h-37
q-65 0 -65 56q0 28 19.5 43t51.5 15h45l11 86q4 31 21.5 48.5t44.5 17.5q24 0 38 -14.5t14 -43.5q0 -5 -4 -41l-7 -53h84l11 86q4 31 21.5 48.5t44.5 17.5q24 0 38 -14.5t14 -43.5q0 -5 -4 -41l-7 -53h36q65 0 65 -56q0 -28 -19.5 -43t-51.5 -15h-44l-18 -144h37
q65 0 65 -56q0 -28 -19.5 -43t-51.5 -15z" />
    <glyph glyph-name="dollar.tf" 
d="M410 526q-47 30 -107 30q-104 0 -104 -71q0 -18 7.5 -32.5t17.5 -24t31.5 -19t37.5 -14.5t47 -14q35 -10 58 -18.5t53 -25.5t47.5 -36.5t30 -50.5t12.5 -70q0 -75 -45.5 -125t-131.5 -62v-61q0 -30 -17 -48t-42 -18t-42 18t-17 48v60q-38 5 -76.5 17.5t-73.5 41.5t-35 66
q0 24 15 39.5t41 15.5q24 0 46 -17q1 -1 13 -11t16.5 -12.5l18 -10t25 -10.5t30.5 -6t40 -3q111 0 111 72q0 14 -4.5 25.5t-14.5 21t-20 16t-28 13.5t-30.5 10.5t-36 10.5t-35.5 11q-38 12 -64.5 25t-53.5 35t-41 56.5t-14 79.5q0 77 43.5 125.5t127.5 61.5v60q0 30 17 48
t42 18t42 -18t17 -48v-59q53 -7 101.5 -34t48.5 -72q0 -24 -15 -38t-41 -14q-19 0 -48 18z" />
    <glyph glyph-name="zero.tf" 
d="M173 230l194 298q-30 24 -67 24q-64 0 -102 -63.5t-38 -159.5q0 -60 13 -99zM233 130q30 -24 67 -24q64 0 102 63.5t38 159.5q0 60 -13 99zM300 -12q-120 0 -191 98.5t-71 242.5t71 242.5t191 98.5t191 -98.5t71 -242.5t-71 -242.5t-191 -98.5z" />
    <glyph glyph-name="one.tf" 
d="M386 118h88q30 0 48 -17t18 -42t-18 -42t-48 -17h-324q-30 0 -48 17t-18 42t18 42t48 17h116v240q0 24 1.5 72t1.5 69l-63 -44q-38 -26 -65 -26q-26 0 -41.5 15.5t-15.5 40.5q0 36 36 59l157 103q30 20 54 20q25 0 40 -16t15 -45v-488z" />
    <glyph glyph-name="two.tf" 
d="M190 118h286q30 0 48 -17t18 -42t-18 -42t-48 -17h-347q-28 0 -44.5 16.5t-16.5 44.5v36q0 39 13 73t30.5 57.5t48.5 47.5t53 37t59 33t53 29t39.5 26t33 33t9.5 35q0 37 -29.5 60.5t-82.5 23.5q-22 0 -40 -4t-31.5 -12.5t-21 -14.5t-18 -18t-13.5 -15q-21 -21 -47 -21
q-24 0 -38 14t-14 40q0 31 22 61q29 39 87 63.5t128 24.5q104 0 163 -55t59 -138q0 -70 -40.5 -118.5t-111.5 -90.5q-20 -12 -53.5 -30t-53 -29.5t-41 -27t-31.5 -31t-10 -32.5z" />
    <glyph glyph-name="three.tf" 
d="M428 344q52 -21 79 -61.5t27 -93.5q0 -86 -66.5 -143.5t-182.5 -57.5q-66 0 -119 21t-83 55q-27 30 -27 63q0 25 15.5 40t40.5 15q7 0 13 -1.5t10 -3t9 -5t7.5 -5.5t8.5 -7.5t8 -7.5q15 -14 26 -22t35 -16t54 -8q59 0 93 25t34 65q0 39 -34 64.5t-92 25.5h-30
q-29 0 -47 16.5t-18 41.5t18 41.5t47 16.5h30q49 0 77.5 21t28.5 54q0 34 -28 54.5t-77 20.5q-14 0 -26.5 -2t-20 -4t-17.5 -8t-13.5 -8t-13.5 -9.5t-11 -8.5q-23 -18 -48 -18t-40 15t-15 40q0 40 39 69t84 40.5t83 11.5q104 0 166 -52.5t62 -132.5q0 -45 -22 -82t-64 -59z
" />
    <glyph glyph-name="four.tf" 
d="M464 128v-70q0 -30 -17.5 -48.5t-42.5 -18.5t-42.5 18.5t-17.5 48.5v70h-253q-26 0 -41 15t-15 40q0 23 21 65l175 358q16 32 32 46.5t40 14.5q25 0 39 -15.5t14 -40.5q0 -22 -20 -64l-70 -141q-37 -76 -88 -166q84 2 131 2h35v92q0 30 17.5 48.5t42.5 18.5t42.5 -18.5
t17.5 -48.5v-88h40q30 0 48 -17t18 -42t-18 -42t-48 -17h-40z" />
    <glyph glyph-name="five.tf" 
d="M210 400q49 25 107 25q96 0 163.5 -60.5t67.5 -154.5q0 -95 -68.5 -158.5t-187.5 -63.5q-124 0 -192 68q-33 33 -33 71q0 24 15 39.5t40 15.5q26 0 53 -25q2 -2 9 -8t10 -9t10.5 -8.5t13 -8t15 -6.5t18.5 -6t21 -3.5t26 -1.5q62 0 95 26.5t33 75.5t-33.5 75t-92.5 26
q-47 0 -91 -20.5t-63 -20.5q-28 0 -42.5 16t-14.5 42q0 20 2 48l15 228q2 26 18 41t44 15h266q30 0 48 -17t18 -42t-18 -42t-48 -17h-208z" />
    <glyph glyph-name="six.tf" 
d="M301 106q55 0 88 33.5t33 84.5t-33 84.5t-88 33.5q-56 0 -89 -33.5t-33 -84.5t33 -84.5t89 -33.5zM295 -12q-114 0 -176.5 69.5t-62.5 196.5q0 134 64.5 239.5t157.5 154.5q35 19 74 19q30 0 45 -14.5t15 -38.5q0 -36 -38 -56q-4 -2 -23.5 -11.5t-28.5 -14.5t-27.5 -17.5
t-30 -24.5t-25.5 -30.5t-25 -40.5q44 30 111 30q96 0 158 -63.5t62 -161.5q0 -101 -66.5 -168.5t-183.5 -67.5z" />
    <glyph glyph-name="seven.tf" 
d="M405 544q-69 -4 -154 -4h-65v-37q0 -30 -17.5 -48.5t-42.5 -18.5t-42.5 18.5t-17.5 48.5v94q0 28 16.5 44.5t44.5 16.5h352q65 0 65 -54q0 -25 -22 -76l-211 -476q-14 -31 -29.5 -46t-40.5 -15t-40 15.5t-15 40.5q0 23 21 67l124 272q12 27 37 79.5t37 78.5z" />
    <glyph glyph-name="eight.tf" 
d="M300 106q56 0 88 25.5t32 64.5t-32 64.5t-88 25.5t-88 -25.5t-32 -64.5t32 -64.5t88 -25.5zM300 402q46 0 73 21t27 54t-27 54t-73 21t-73 -21t-27 -54t27 -54t73 -21zM300 -12q-114 0 -178.5 57t-64.5 144q0 53 26 93.5t75 61.5q-81 45 -81 141q0 80 60.5 132.5
t162.5 52.5t162.5 -52.5t60.5 -132.5q0 -96 -81 -141q49 -21 75 -61.5t26 -93.5q0 -87 -64.5 -144t-178.5 -57z" />
    <glyph glyph-name="nine.tf" 
d="M299 316q56 0 89 33.5t33 84.5t-33 84.5t-89 33.5q-55 0 -88 -33.5t-33 -84.5t33 -84.5t88 -33.5zM386 239q-44 -30 -111 -30q-96 0 -158 63.5t-62 161.5q0 101 66.5 168.5t183.5 67.5q114 0 176.5 -69.5t62.5 -196.5q0 -134 -64.5 -239.5t-157.5 -154.5q-35 -19 -74 -19
q-30 0 -45 14.5t-15 38.5q0 36 38 56q4 2 23.5 11.5t28.5 14.5t27.5 17.5t30 24.5t25.5 30.5t25 40.5z" />
    <glyph glyph-name="cent.tf" 
d="M385 -7v-61q0 -30 -17 -48t-42 -18t-42 18t-17 48v65q-88 22 -138 88t-50 152t50 152t138 88v65q0 30 17 48t42 18t42 -18t17 -48v-61q49 -8 92 -33.5t43 -67.5q0 -24 -14.5 -38t-38.5 -14q-23 0 -48 17q-42 27 -88 27q-61 0 -97 -38.5t-36 -96.5t36 -96.5t97 -38.5
q46 0 88 27q25 17 48 17q24 0 38.5 -14t14.5 -38q0 -42 -43 -67.5t-92 -33.5z" />
    <glyph glyph-name="sterling.tf" 
d="M271 118h239q30 0 48 -17t18 -42t-18 -42t-48 -17h-300q-28 0 -44.5 16.5t-16.5 44.5v219h-55q-29 0 -47 16.5t-18 41.5t18 41.5t47 16.5h55v54q0 104 55 162t153 58q82 0 137 -35.5t55 -85.5q0 -25 -14.5 -40t-40.5 -15q-19 0 -34.5 9t-25 20t-29 20t-45.5 9
q-89 0 -89 -108v-48h145q29 0 47 -16.5t18 -41.5t-18 -41.5t-47 -16.5h-145v-162z" />
    <glyph glyph-name="yen.tf" 
d="M361 155v-96q0 -31 -17.5 -49.5t-43.5 -18.5t-43.5 18.5t-17.5 49.5v96h-139q-24 0 -39 14t-15 34t15 34t39 14h136l-43 75h-93q-24 0 -39 14t-15 34t15 34t39 14h39l-73 128q-20 36 -20 58q0 26 14.5 41.5t40.5 15.5q41 0 73 -58l41 -76q67 -127 85 -161q18 34 85 161
l41 76q32 58 73 58q26 0 40.5 -15.5t14.5 -41.5q0 -22 -20 -58l-73 -128h39q24 0 39 -14t15 -34t-15 -34t-39 -14h-93l-43 -75h136q24 0 39 -14t15 -34t-15 -34t-39 -14h-139z" />
    <glyph glyph-name="section.tf" 
d="M384 186q37 20 37 47q0 30 -28 48.5t-79 33.5q-82 24 -98 31q-37 -20 -37 -47q0 -30 28 -48.5t79 -33.5q82 -24 98 -31zM469 119q33 -34 33 -93q0 -76 -50.5 -120t-143.5 -44q-28 0 -60.5 6.5t-65.5 19.5t-55 37.5t-22 55.5q0 24 14 38.5t39 14.5t52 -20q2 -1 11.5 -8.5
t13 -10t13 -8t16.5 -7.5t18 -4t23 -2q35 0 55 13.5t20 35.5q0 10 -3.5 18.5t-13 16t-17.5 13t-25 11.5t-27 10t-32 10.5t-32 10.5q-81 27 -128 65t-47 109q0 80 76 126q-33 34 -33 93q0 76 50.5 120t143.5 44q28 0 60.5 -6.5t65.5 -19.5t55 -37.5t22 -55.5q0 -24 -14 -38.5
t-39 -14.5t-52 20q-2 1 -11.5 8.5t-13 10t-13 8t-16.5 7.5t-18 4t-23 2q-35 0 -55 -13.5t-20 -35.5q0 -10 3.5 -18.5t13 -16t17.5 -13t25 -11.5t27 -10t32 -10.5t32 -10.5q81 -27 128 -65t47 -109q0 -80 -76 -126z" />
    <glyph glyph-name="figurespace.tf" 
 />
    <glyph glyph-name="Euro.tf" 
d="M254 213q35 -107 121 -107q50 0 95 43q26 26 55 26q24 0 38.5 -15t14.5 -39q0 -32 -31 -65q-28 -31 -74.5 -49.5t-98.5 -18.5q-94 0 -158.5 61.5t-90.5 163.5h-52q-23 0 -36 12.5t-13 31.5t13 31.5t36 12.5h40q-1 9 -1 28q0 18 1 28h-40q-23 0 -36 12.5t-13 31.5t13 31.5
t36 12.5h52q26 102 90.5 163.5t158.5 61.5q52 0 98.5 -18.5t74.5 -49.5q31 -33 31 -65q0 -24 -14.5 -39t-38.5 -15q-29 0 -55 26q-45 43 -95 43q-86 0 -121 -107h143q23 0 36 -12.5t13 -31.5t-13 -31.5t-36 -12.5h-161q-1 -9 -1 -28t1 -28h135q23 0 36 -12.5t13 -31.5
t-13 -31.5t-36 -12.5h-117z" />
    </font>
</defs>
</svg>
